<?xml version="1.0" encoding="utf-8"?>
<!-- Generator: Adobe Illustrator 24.0.0, SVG Export Plug-In . SVG Version: 6.00 Build 0)  -->
<svg version="1.1" id="WohnBau-Logo" xmlns="http://www.w3.org/2000/svg" xmlns:xlink="http://www.w3.org/1999/xlink" x="0px"
	 y="0px" viewBox="0 0 300 69" style="enable-background:new 0 0 300 69;" xml:space="preserve">
<style type="text/css">
	.st0{fill:#157298;}
	.st1{fill:#B8CA47;}
</style>
<path d="M31.1,68.8h-0.7l-3.1-8.9c-0.4-1.3-1-2.7-1.5-4.5h0c-0.5,1.8-1,3.2-1.4,4.5l-3.1,8.9h-0.7L15,52.5h2.1l2.7,7.9
	c0.4,1.2,0.9,2.6,1.3,4h0c0.4-1.3,0.9-2.8,1.2-4l2.7-7.9h1.8l2.8,7.9c0.4,1.2,0.8,2.6,1.2,4h0c0.4-1.3,0.9-2.8,1.3-4l2.8-7.9h1.9
	L31.1,68.8z"/>
<path d="M46.1,62.1L45,63.2h-7.4c0,1.9,1.6,4,4.4,4c1.4,0,2.5-0.4,3.3-1l-0.2,1.8c-0.8,0.4-1.8,0.8-3.3,0.8c-3.3,0-6-2.4-6-6
	c0-3.8,2.9-6,5.6-6c3.2,0,4.9,2.2,4.9,4.4C46.2,61.6,46.2,61.9,46.1,62.1z M41.4,58.5c-1.7,0-3.3,1.4-3.6,3.2h6.5c0-0.1,0-0.2,0-0.4
	C44.3,60,43.2,58.5,41.4,58.5z"/>
<path d="M51.3,68.7c-1.3,0-2.4-0.4-3.2-0.9l-0.2-2c0.8,0.7,2.1,1.3,3.4,1.3c1.2,0,2-0.6,2-1.6c0-0.9-0.7-1.5-1.9-1.9
	c-2.1-0.8-3.3-1.7-3.3-3.5c0-1.8,1.5-3.1,3.6-3.1c1.2,0,2.4,0.4,2.8,0.7l-0.4,1.6c-0.5-0.4-1.3-0.8-2.5-0.8c-1.1,0-1.8,0.6-1.8,1.5
	c0,0.9,0.6,1.3,1.8,1.7c2.2,0.8,3.5,1.8,3.5,3.7C55.2,67.3,53.8,68.7,51.3,68.7z"/>
<path d="M64.3,58.7h-3.8v6.7c0,1.3,0.7,1.8,1.8,1.8c0.4,0,0.8-0.1,1.1-0.2l-0.2,1.5c-0.3,0.2-0.8,0.2-1.2,0.2
	c-1.9,0-3.3-1.1-3.3-3.2v-6.8h-2.3v-1.5h2.3v-2.4l1.8-1v3.4h4.1L64.3,58.7z"/>
<path d="M81,68.6v-7.5c0-1.3-0.6-2.5-2.7-2.5c-2,0-2.7,1.1-2.7,2.5v7.5h-2v-7.5c0-1.3-0.6-2.5-2.6-2.5c-2,0-2.8,1.1-2.8,2.5v7.5
	h-1.9V57.2h1.8v1.5h0c0.4-1,1.4-1.8,3.4-1.8c1.5,0,2.8,0.6,3.4,1.8c0.5-1,1.9-1.8,3.7-1.8c2.6,0,4.3,1.5,4.3,4v7.7L81,68.6
	C81,68.6,81,68.6,81,68.6z"/>
<path d="M93.2,68.6V67h0c-0.4,1-1.5,1.9-3.6,1.9c-2.5,0-4.3-1.6-4.3-4.1v-7.6h1.9v7.4c0,1.4,0.9,2.6,2.9,2.6c1.9,0,3-1.2,3-2.6v-7.4
	H95v11.4C95,68.6,93.2,68.6,93.2,68.6z M88.6,55.2c-0.3,0-1-0.7-1-1c0-0.4,0.7-1,1-1c0.4,0,1,0.7,1,1C89.6,54.5,88.9,55.2,88.6,55.2
	z M91.8,55.2c-0.4,0-1-0.7-1-1c0-0.4,0.7-1,1-1c0.3,0,1,0.7,1,1C92.8,54.5,92.1,55.2,91.8,55.2z"/>
<path d="M105.3,68.6v-7.4c0-1.4-0.9-2.6-2.9-2.6c-1.9,0-3,1.2-3,2.6v7.4h-1.9V57.2h1.8v1.6h0c0.4-1,1.6-1.9,3.6-1.9
	c2.5,0,4.4,1.6,4.4,4.1v7.6H105.3z"/>
<path d="M112.5,68.7c-1.3,0-2.4-0.4-3.2-0.9l-0.2-2c0.8,0.7,2.1,1.3,3.4,1.3c1.2,0,2.1-0.6,2.1-1.6c0-0.9-0.7-1.5-1.9-1.9
	c-2.1-0.8-3.3-1.7-3.3-3.5c0-1.8,1.5-3.1,3.6-3.1c1.2,0,2.4,0.4,2.8,0.7l-0.4,1.6c-0.5-0.4-1.3-0.8-2.5-0.8c-1.1,0-1.8,0.6-1.8,1.5
	c0,0.9,0.6,1.3,1.8,1.7c2.2,0.8,3.5,1.8,3.5,3.7C116.4,67.3,115,68.7,112.5,68.7z"/>
<path d="M125.4,58.7h-3.8v6.7c0,1.3,0.7,1.8,1.8,1.8c0.4,0,0.8-0.1,1.1-0.2l-0.2,1.5c-0.3,0.2-0.8,0.2-1.2,0.2
	c-1.9,0-3.3-1.1-3.3-3.2v-6.8h-2.3v-1.5h2.3v-2.4l1.8-1v3.4h4.1L125.4,58.7z"/>
<path d="M136.8,62.1l-1.1,1.1h-7.4c0,1.9,1.6,4,4.4,4c1.4,0,2.5-0.4,3.3-1l-0.2,1.8c-0.8,0.4-1.8,0.8-3.3,0.8c-3.3,0-6.1-2.4-6.1-6
	c0-3.8,2.9-6,5.6-6c3.1,0,4.9,2.2,4.9,4.4C136.9,61.6,136.9,61.9,136.8,62.1z M132.1,58.5c-1.7,0-3.3,1.4-3.6,3.2h6.5
	c0-0.1,0-0.2,0-0.4C135.1,60,134,58.5,132.1,58.5z"/>
<path d="M144.8,59.1c-0.2,0-0.5-0.1-0.9-0.1c-1.6,0-3.2,1-3.2,3.8v5.8h-1.9V57.2h1.9v2.5h0c0.4-1.6,1.7-2.7,3.4-2.7
	c0.3,0,0.8,0,1.1,0.2L144.8,59.1z"/>
<path d="M149.2,69c-0.8-0.2-2.1-1-2.1-3V50.7h1.9v15.1c0,1.1,0.8,1.8,1.5,1.9L149.2,69z"/>
<path d="M160.6,68.9c-0.8-0.2-1.6-0.8-1.8-1.9c-0.5,1.3-1.8,1.9-3.1,1.9c-2.2,0-3.6-1.6-3.6-3.4c0-2.2,1.8-3.4,3.7-3.6l2.8-0.3v-0.9
	c0-1.2-0.8-2-2.5-2c-1.1,0-2.3,0.4-3.1,0.9l-0.4-1.6c0.9-0.6,2.2-1,3.6-1c2.5,0,4.3,1.4,4.3,4v4.9c0,1.1,0.6,1.7,1.3,1.8L160.6,68.9
	z M158.6,63.2l-2.4,0.2c-1.5,0.2-2.3,1-2.3,2c0,1,0.8,1.8,2,1.8c1.4,0,2.8-1.1,2.8-2.7L158.6,63.2C158.6,63.2,158.6,63.2,158.6,63.2
	z"/>
<path d="M171.6,68.6v-7.4c0-1.4-0.9-2.6-2.9-2.6c-1.9,0-3,1.2-3,2.6v7.4h-1.9V57.2h1.8v1.6h0c0.4-1,1.6-1.9,3.6-1.9
	c2.5,0,4.4,1.6,4.4,4.1v7.6H171.6z"/>
<path d="M184.5,68.6v-1.3h0c-0.5,0.8-1.7,1.6-3.5,1.6c-2.7,0-5.6-2.1-5.6-6c0-3.5,2.5-6,5.8-6c1.4,0,2.7,0.5,3.2,1.1v-7.3h1.9v17.9
	L184.5,68.6L184.5,68.6L184.5,68.6z M184.4,59.9c-0.4-0.5-1.5-1.2-3.1-1.2c-2.2,0-4,1.7-4,4.2c0,2.5,1.8,4.2,4,4.2
	c1.5,0,2.5-0.8,3.1-1.5V59.9z"/>
<path d="M39.4,41.4h-5.7l-5.4-16.3c-0.8-2.4-1.6-5-2.4-8.2h-0.1c-0.8,3.2-1.6,5.8-2.4,8.2l-5.4,16.3h-5.6L0,4.3h8.7l4.8,14.9
	c0.7,2.3,1.4,4.6,2,7.4h0.1c0.5-2.8,1.2-5.1,2-7.4l4.9-14.9h7.7L35,19.2c0.7,2.1,1.4,4.7,2,7.5h0.1c0.5-2.7,1.3-5.3,2-7.4L44,4.3
	h7.8L39.4,41.4z"/>
<path d="M64.1,42c-7.9,0-14.3-5.6-14.3-14s6.4-13.9,14.3-13.9c7.9,0,14.3,5.6,14.3,13.9S72,42,64.1,42z M64.1,21.5
	c-3.2,0-5.9,2.8-5.9,6.6s2.7,6.7,5.9,6.7c3.1,0,5.9-2.8,5.9-6.6S67.2,21.5,64.1,21.5z"/>
<path d="M99.9,41.2V25.1c0-1.9-1.3-3.6-3.9-3.6c-2.5,0-4.1,1.6-4.1,3.7v16h-8.5V0h8.4v17.4h0.1c1.3-2,3.8-3.2,7.4-3.2
	c5.8,0,9.2,3.2,9.2,8.8v18.2L99.9,41.2L99.9,41.2L99.9,41.2z"/>
<path d="M131.9,41.2V25.1c0-1.9-1.3-3.6-3.9-3.6c-2.5,0-4.2,1.6-4.2,3.7v16h-8.5V15h7.8v3.5h0.1c1-2.8,3.8-4.3,8-4.3
	c5.7,0,9.2,3.2,9.2,8.8v18.2L131.9,41.2L131.9,41.2z"/>
<path d="M160.7,41.2h-13.6V4.3h12.1c5.7,0,10.8,3.8,10.8,9.8c0,2.2-1.1,5-3.1,6.1c3.2,1,6.4,4.9,6.4,9.6
	C173.4,36.9,167.7,41.2,160.7,41.2z M157.8,10.9h-2.7v7.6h2.7c2.1,0,4.1-1.1,4.1-3.8C161.9,12,159.9,10.9,157.8,10.9z M159.2,25
	h-4.1v9.7h4.1c2.7,0,5.5-1.4,5.5-4.8C164.7,26.6,162,25,159.2,25z"/>
<path d="M192.6,38.9c0.7,1.9,2.5,3.1,4,3.5l4.7-5.4c-1.3-0.9-2-2.4-2-4.8v-8.6c0-6.3-4.9-9.5-11.9-9.5c-3.5,0-7.1,0.9-9.2,2.3
	l1.5,6.4c1.9-1.2,4.7-2,7.3-2c2.8,0,4.1,1,4.1,2.6v0.9l-5.2,0.5c-5.2,0.5-9,3.8-9,8.6c0,5.4,4.1,8.7,8.7,8.7
	C188.9,42.1,191.4,41,192.6,38.9z M191.2,32.1c0,2.3-1.7,3.8-3.7,3.8c-1.6,0-2.7-1.2-2.7-2.5c0-1.6,1-3.1,3.2-3.3l3.2-0.3
	L191.2,32.1C191.1,32.1,191.2,32.1,191.2,32.1z"/>
<polygon class="st0" points="276.5,4.3 256.1,4.3 256.1,27.8 "/>
<polygon class="st0" points="272.6,41.2 293.1,41.2 293.1,17.6 "/>
<polygon class="st1" points="288.7,0 252.9,41.2 264.2,41.2 300,0 "/>
<path d="M223.3,41.2v-3.6h-0.1c-1,2.8-3.8,4.3-8,4.3c-5.7,0-9.2-3.2-9.2-8.7V15h8.5v16.1c0,1.9,1.3,3.6,3.9,3.6
	c2.5,0,4.1-1.7,4.1-3.8V15h8.5v26.2C231.1,41.2,223.3,41.2,223.3,41.2z"/>
</svg>
