<?xml version="1.0" encoding="utf-8"?>
<!-- Generator: Adobe Illustrator 24.1.0, SVG Export Plug-In . SVG Version: 6.00 Build 0)  -->
<svg version="1.1" id="Ebene_1" xmlns="http://www.w3.org/2000/svg" xmlns:xlink="http://www.w3.org/1999/xlink" x="0px" y="0px"
	 viewBox="0 0 283.5 78" style="enable-background:new 0 0 283.5 78;" xml:space="preserve">
<style type="text/css">
	.st0{fill:#1D1D1B;}
	.st1{clip-path:url(#SVGID_2_);fill:url(#SVGID_3_);}
	.st2{clip-path:url(#SVGID_5_);fill:url(#SVGID_6_);}
	.st3{fill:#0E84B2;}
</style>
<path class="st0" d="M265.9,33.6h2.8V13.9h-2.8V22c0,3.6-1.8,9.3-5.6,9.3c-2.9,0-2.9-3-2.9-6.4v-11h-2.8V28c0,3.3,1.7,6.1,5.1,6.1
	c4.4,0,5.6-3.4,6.1-5h0.1V33.6z M245.4,24.7c0,2.4-0.2,2.8-0.7,4c-0.8,1.9-2.8,3.1-4.6,3.1c-1.5,0-2.8-1-2.8-2.9
	c0-3.4,4.4-4.2,6.5-4.2H245.4z M245.4,33.6h2.7V19.8c0-2.5-0.5-6.3-6.6-6.3c-5.4,0-7.1,3-7.1,5.5h3.2c0.2-1.5,0.8-3.2,4-3.2
	c1.5,0,3.2,0.5,3.6,2.7c0.1,0.7,0.1,2.8,0.1,3.8c-0.7,0.1-1.2,0.1-2,0.1c-3.4,0-9.4,1.5-9.4,6.1c0,3.5,2.1,5.5,5.3,5.5
	c3.6,0,5.6-2.1,6.1-3.1h0.1V33.6z M217.5,24.6c0-3.9,1.4-8.8,4.9-8.8c3.3,0,4.4,4.3,4.4,8.1c0,3.9-1.2,7.8-4.8,7.8
	C217.8,31.7,217.5,26.8,217.5,24.6 M217.5,5h-2.8v20.5c0,2.6,0.3,8.6,7.4,8.6c5.6,0,7.9-4.4,7.9-10.1c0-5.1-1.6-10.5-7.1-10.5
	c-3.4,0-4.9,2.3-5.4,3.7h-0.1V5z M194.4,33.6h2.8v-8.1c0-3.6,1.9-9.3,5.6-9.3c2.9,0,2.9,3,2.9,6.4v11h2.8V19.5
	c0-3.3-1.7-6.1-5.1-6.1c-4.4,0-5.6,3.4-6.2,5h-0.1v-4.6h-2.8V33.6z M173.7,33.6h2.8v-8.1c0-3.6,1.9-9.3,5.6-9.3c2.9,0,2.9,3,2.9,6.4
	v11h2.8V19.5c0-3.3-1.7-6.1-5.1-6.1c-4.4,0-5.6,3.4-6.2,5h-0.1V5h-2.8V33.6z M155.6,23.8c0-4.9,1.6-8,4.8-8c3.2,0,4.9,3,4.9,8
	c0,5-1.7,8-4.9,8C157.2,31.7,155.6,28.7,155.6,23.8 M160.4,34.1c5.9,0,8.1-4.5,8.1-10.3c0-5.8-2.3-10.4-8.1-10.4
	c-5.8,0-8.1,4.6-8.1,10.4C152.3,29.6,154.6,34.1,160.4,34.1 M123.7,33.6h3.9l6.7-24.3h0.1l6.6,24.3h4L150.1,5h-2.9l-4.4,24.6h-0.1
	L136,5h-3.4l-6.7,24.6h-0.1L121.5,5h-2.9L123.7,33.6z M94.5,19.5c0.2-1.3,1.2-3.7,4.2-3.7c2.9,0,3.8,2.4,3.8,3.7H94.5z M105.3,31.2
	c-0.9,0.2-1.7,0.5-3.9,0.5c-5.7,0-7-5.7-7-8.7v-1.2h11.4v-1c0-4.3-2.2-7.5-6.9-7.5c-5.3,0-7.7,3.8-7.7,9.7c0,7.3,3.5,11,9.6,11
	c1.8,0,3.3-0.2,4.5-0.6V31.2z M82.2,8.7H86V5h-3.7V8.7z M82.7,33.6h2.8V13.9h-2.8V33.6z M62.1,7.7h1.8c5.6,0,9.6,1.2,9.6,11.6
	c0,10-3.7,11.7-9.2,11.7h-2.2V7.7z M58.8,33.6h5.4C71,33.6,77,31.9,77,19.2C77,10.2,73.8,5,65.2,5h-6.4V33.6z"/>
<g>
	<defs>
		<polygon id="SVGID_1_" points="14.7,2.9 14.7,18.7 32.2,8.2 46.3,15 46.3,2.9 		"/>
	</defs>
	<clipPath id="SVGID_2_">
		<use xlink:href="#SVGID_1_"  style="overflow:visible;"/>
	</clipPath>
	
		<linearGradient id="SVGID_3_" gradientUnits="userSpaceOnUse" x1="1.0579" y1="56.7515" x2="2.0579" y2="56.7515" gradientTransform="matrix(-9.628580e-02 -55.1685 -55.1685 9.628580e-02 3161.5598 79.561)">
		<stop  offset="0" style="stop-color:#0E84B2"/>
		<stop  offset="0.1074" style="stop-color:#2671B2"/>
		<stop  offset="0.2096" style="stop-color:#5F93BA"/>
		<stop  offset="0.2953" style="stop-color:#92B2C1"/>
		<stop  offset="0.6201" style="stop-color:#5EB0E1"/>
		<stop  offset="0.7098" style="stop-color:#60B1E1"/>
		<stop  offset="0.7422" style="stop-color:#67B4E0"/>
		<stop  offset="0.7653" style="stop-color:#73B8DF"/>
		<stop  offset="0.784" style="stop-color:#83BFDD"/>
		<stop  offset="0.8" style="stop-color:#99C9DA"/>
		<stop  offset="0.8142" style="stop-color:#B5D4D7"/>
		<stop  offset="0.8269" style="stop-color:#D5E1D4"/>
		<stop  offset="0.8384" style="stop-color:#F9F0D0"/>
		<stop  offset="0.8397" style="stop-color:#FEF2CF"/>
		<stop  offset="0.9582" style="stop-color:#0E84B2"/>
		<stop  offset="1" style="stop-color:#0E84B2"/>
	</linearGradient>
	<polygon class="st1" points="14.7,18.7 14.7,2.9 46.3,2.9 46.4,18.7 	"/>
</g>
<g>
	<defs>
		<polygon id="SVGID_4_" points="14.7,22.4 14.7,33.6 46.3,33.6 46.3,16.7 33.4,12.1 		"/>
	</defs>
	<clipPath id="SVGID_5_">
		<use xlink:href="#SVGID_4_"  style="overflow:visible;"/>
	</clipPath>
	
		<linearGradient id="SVGID_6_" gradientUnits="userSpaceOnUse" x1="1.0579" y1="56.7519" x2="2.0579" y2="56.7519" gradientTransform="matrix(-9.628580e-02 -55.1685 -55.1685 9.628580e-02 3161.5598 79.561)">
		<stop  offset="0" style="stop-color:#0E84B2"/>
		<stop  offset="0.1074" style="stop-color:#2671B2"/>
		<stop  offset="0.2096" style="stop-color:#5F93BA"/>
		<stop  offset="0.2953" style="stop-color:#92B2C1"/>
		<stop  offset="0.6201" style="stop-color:#5EB0E1"/>
		<stop  offset="0.7098" style="stop-color:#60B1E1"/>
		<stop  offset="0.7422" style="stop-color:#67B4E0"/>
		<stop  offset="0.7653" style="stop-color:#73B8DF"/>
		<stop  offset="0.784" style="stop-color:#83BFDD"/>
		<stop  offset="0.8" style="stop-color:#99C9DA"/>
		<stop  offset="0.8142" style="stop-color:#B5D4D7"/>
		<stop  offset="0.8269" style="stop-color:#D5E1D4"/>
		<stop  offset="0.8384" style="stop-color:#F9F0D0"/>
		<stop  offset="0.8397" style="stop-color:#FEF2CF"/>
		<stop  offset="0.9582" style="stop-color:#0E84B2"/>
		<stop  offset="1" style="stop-color:#0E84B2"/>
	</linearGradient>
	<polygon class="st2" points="14.7,33.7 14.7,12.1 46.3,12 46.4,33.6 	"/>
</g>
<path class="st3" d="M262.7,49.6c0.1,0,0.1,0,0.1,0c0,0.1,0,0.1,0,0.2c0,0.1-0.1,0.2-0.1,0.2c-0.1,0.2-0.3,0.4-0.5,0.6
	c-0.2,0.2-0.4,0.4-0.5,0.5c-0.1,0.1-0.2,0.2-0.3,0.3c-0.1,0.1-0.2,0.2-0.3,0.3c-0.3,0.3-0.7,0.5-1,0.8c-0.3,0.2-0.6,0.4-1,0.5
	c0.1-0.2,0.2-0.4,0.4-0.6s0.3-0.4,0.5-0.6c0.1-0.2,0.3-0.3,0.5-0.5c0.1-0.1,0.2-0.3,0.3-0.3c0.1-0.1,0.2-0.2,0.3-0.3
	c0.1-0.1,0.2-0.1,0.3-0.2c0.1,0,0.2-0.1,0.3-0.2l0.2-0.2c0,0,0.1,0,0.1-0.1c0,0,0.1,0,0.1-0.1c0,0,0.1-0.1,0.1-0.1
	c0.1,0,0.1-0.1,0.2-0.1c0.1-0.1,0.1-0.1,0.2-0.1C262.5,49.6,262.6,49.6,262.7,49.6 M268.6,52.4c0,0,0.1-0.1,0.1-0.1
	c0,0,0.1-0.1,0.1-0.2c0-0.1,0.1-0.2,0.2-0.4c-0.1,0-0.1,0-0.1-0.1c0-0.1-0.1-0.2-0.1-0.2c-0.1,0-0.2,0.1-0.3,0.2
	c-0.2,0.1-0.3,0.2-0.5,0.4l-0.3,0.3c0,0-0.1,0.1-0.2,0.1c-0.1,0.1-0.2,0.1-0.3,0.2c-0.1,0.1-0.2,0.1-0.3,0.2
	c-0.1,0.1-0.1,0.1-0.2,0.1c-0.2,0.2-0.4,0.4-0.6,0.4c-0.1,0.1-0.3,0.2-0.5,0.4l-0.7,0.3c-0.1,0-0.1,0.1-0.1,0c0,0,0,0,0,0
	c0,0,0,0,0,0c0,0,0,0-0.1,0l-0.4,0.2c-0.2,0.1-0.5,0.3-0.8,0.4c-0.2,0.1-0.4,0.2-0.6,0.2c-0.2,0-0.4,0.1-0.6,0.1
	c-0.6,0.2-1.2,0.2-1.9,0c-0.2,0-0.5-0.1-0.7-0.2c-0.2-0.1-0.4-0.3-0.5-0.4c0-0.1-0.1-0.1-0.1-0.1c0,0,0-0.1,0-0.2
	c-0.1,0-0.1,0-0.1,0c0,0,0,0,0-0.1c0.3,0.1,0.6,0,0.9-0.2c0.2-0.2,0.5-0.3,0.8-0.3c0.1-0.1,0.3-0.3,0.5-0.4c0.2-0.1,0.4-0.3,0.5-0.4
	c0-0.1,0-0.1,0.1-0.2c0.1-0.1,0.2-0.2,0.3-0.3c0.1-0.1,0.2-0.2,0.3-0.3c0.1-0.1,0.2-0.2,0.3-0.3c0.1-0.1,0.2-0.2,0.3-0.3
	c0-0.1,0.1-0.1,0.1-0.2c0-0.1,0.1-0.1,0.1-0.2c0.1-0.1,0.1-0.2,0.2-0.2c0.1-0.1,0.1-0.1,0.2-0.2c0,0,0-0.1,0-0.1c0,0,0-0.1,0.1-0.1
	c0.1-0.1,0.1-0.2,0.1-0.4c0-0.1,0-0.2,0-0.4c-0.1-0.1-0.1-0.2-0.2-0.2c0-0.1-0.1-0.2-0.2-0.2c-0.1-0.1-0.2-0.3-0.4-0.4
	c-0.2-0.1-0.3-0.2-0.4-0.4c-0.1,0-0.1,0-0.1,0c0,0-0.1,0-0.1,0.1c-0.1,0-0.1,0.1-0.2,0.1c-0.1,0-0.2,0-0.2,0.1
	c-0.1,0-0.3,0.1-0.4,0.2c-0.1,0.1-0.3,0.2-0.4,0.3c-0.1,0.1-0.2,0.2-0.4,0.3c-0.1,0.1-0.2,0.2-0.3,0.2c-0.1,0.1-0.2,0.1-0.3,0.2
	c-0.1,0.1-0.2,0.3-0.3,0.3c-0.1,0.1-0.2,0.2-0.3,0.3l-0.4,0.6l-0.6,0.7c-0.2,0.3-0.3,0.6-0.4,0.9c-0.1,0.3-0.1,0.6-0.2,0.8
	c0,0.1,0,0.3,0,0.4c0,0.1,0,0.2,0.1,0.4c0,0.1,0.1,0.2,0.1,0.4c0,0.1,0.1,0.3,0.2,0.4c0.1,0.2,0.3,0.4,0.5,0.5
	c0.2,0.2,0.4,0.3,0.6,0.4c0.2,0.1,0.4,0.1,0.6,0.2c0.2,0,0.4,0.1,0.6,0.1c0,0,0.1,0,0.1,0c0,0,0.1,0,0.2,0c0.1,0,0.3,0,0.6,0l0-0.1
	c0.1,0,0.2,0,0.2,0c0,0,0.1,0,0.1,0c0.1-0.1,0.2-0.1,0.3-0.1s0.1,0,0.2,0c0,0,0,0,0,0c0,0,0,0,0,0c0.1-0.1,0.1-0.1,0.2-0.1
	c0.1,0,0.1,0,0.2-0.1c0.1,0,0.1,0,0.2,0c0,0,0.1-0.1,0.1,0c0.1-0.1,0.1-0.1,0.2-0.1c0.1,0,0.1,0,0.2,0c0,0,0,0.1,0,0.1
	c0.1,0,0.2,0,0.2,0c0.1,0,0.1,0,0.2,0c0.1,0,0.1,0,0.2-0.1c0.1,0,0.1,0,0.1-0.1c0,0,0.1,0,0.1,0c0.4-0.2,0.7-0.3,1-0.5
	c0.3-0.2,0.6-0.4,0.9-0.6l0.4-0.3l0.2-0.1l0.5-0.4l0.2-0.1c0,0,0.1-0.1,0.2-0.2c0.1-0.1,0.2-0.2,0.2-0.2c0.2-0.2,0.3-0.3,0.5-0.4
	c0.2-0.1,0.2-0.2,0.2-0.3C268.5,52.5,268.5,52.4,268.6,52.4 M249.8,55.3c0,0,0,0,0,0.1C249.7,55.5,249.8,55.4,249.8,55.3 M251.4,58
	c0,0,0.1,0,0.1-0.1c-0.1,0.1-0.1,0.2-0.2,0.2C251.4,58.1,251.4,58,251.4,58 M252.4,54.5c0.2-0.2,0.4-0.3,0.6-0.5l0,0
	c-0.2,0.5-0.4,1-0.7,1.4s-0.6,0.8-1,1.1c0,0,0,0.1,0,0.1c0,0,0,0.1,0,0.1c-0.2,0.1-0.4,0.2-0.6,0.3c-0.2,0.1-0.4,0.2-0.6,0.2
	c0,0,0,0,0-0.1c0,0,0,0-0.1-0.1c0-0.2,0.1-0.3,0.2-0.4c0.1-0.1,0.2-0.2,0.3-0.3c0,0,0-0.1,0.1-0.1c0-0.1,0.1-0.2,0.2-0.2
	c0,0,0,0,0,0c0,0,0,0,0-0.1c0,0,0.1,0,0.1-0.1c0.2-0.1,0.3-0.3,0.5-0.5c0.1-0.2,0.3-0.3,0.5-0.4c0,0,0,0,0,0c0,0,0,0,0,0
	C252,54.8,252.2,54.6,252.4,54.5 M249.4,55.8c0,0.1-0.1,0.1-0.2,0c0,0.2-0.1,0.3-0.1,0.5c-0.1,0.1-0.1,0.2-0.2,0.3c0,0,0-0.1,0-0.1
	c0,0,0,0,0-0.1c-0.1,0.1-0.2,0.3-0.1,0.5c-0.1,0-0.1,0-0.2,0.1c0,0,0,0.1-0.1,0.2c0,0.1,0,0.1,0,0.1c0,0,0,0,0,0
	c0.1,0.1,0.1,0.1,0,0.1c-0.1,0-0.1,0.1,0,0.1c0-0.1,0.1-0.1,0.1-0.1c0,0,0.1,0,0.1-0.1c0,0.1,0,0.1,0,0.1c0,0,0,0,0,0.1
	c0,0,0.1,0,0.1,0c0,0,0,0,0.1,0c0.2,0.2,0.4,0.4,0.6,0.5c0.2,0.1,0.6,0.2,0.9,0.2c0,0,0.1,0,0.1,0c0,0,0,0,0,0c0.1,0,0.2,0,0.3,0
	c0.1,0,0.1,0,0.2,0l0,0.1c0,0,0,0,0-0.1c0.1,0,0.1,0,0.2-0.1c0.1,0,0.1,0,0.2,0.1c0,0-0.1,0-0.1,0c0,0-0.1,0-0.1,0c0,0,0,0,0.1,0
	c0.1,0,0.1,0,0.1,0c0.4-0.1,0.7-0.3,1-0.6c0.3-0.2,0.5-0.5,0.8-0.8c0,0,0-0.1,0,0c0,0,0,0,0,0c0.1-0.1,0.2-0.2,0.2-0.3
	c0.1-0.1,0.2-0.2,0.3-0.3c0,0,0-0.1,0-0.1c0,0,0-0.1,0-0.1c0.1,0,0.1,0,0.1,0c0,0,0-0.1,0.1-0.1c0,0,0-0.1,0-0.1
	c0.1,0,0.1-0.1,0.1-0.1c-0.1-0.1,0-0.1,0-0.2c0.1,0,0.1-0.1,0-0.1c0.1-0.1,0.2-0.2,0.2-0.3c0.1-0.1,0.1-0.2,0.1-0.3c0,0-0.1,0,0,0
	c0,0,0,0.1,0,0.1c0-0.1,0.1-0.1,0.1-0.2c0-0.1,0.1-0.1,0.2-0.1c0-0.2,0.1-0.4,0.2-0.5c0.1-0.1,0.1-0.3,0.2-0.6
	c0.1-0.1,0.2-0.2,0.4-0.3c0.2-0.1,0.3-0.2,0.5-0.2l2.1-0.9c0.2,0,0.3-0.1,0.4-0.2c0.1-0.1,0.3-0.1,0.4-0.1c0.1,0,0.1,0,0.2-0.1
	c0.1,0,0.2,0,0.3,0c0,0,0-0.1,0.1-0.1c0.2,0,0.4-0.1,0.5-0.1c0.1,0,0.3-0.1,0.4-0.1c0-0.1,0.1-0.2,0.2-0.2c0.1,0,0.2,0,0.3-0.1
	c0,0,0,0-0.1,0c0,0,0,0,0-0.1c0.1,0,0.1,0,0.2,0c0.1,0,0.2,0,0.2,0c0-0.1,0-0.1,0-0.1c0,0-0.1-0.1-0.1-0.1c0,0,0,0,0,0
	c0,0-0.1,0-0.1,0c0,0,0,0,0,0c0,0,0,0,0,0c0,0,0,0,0-0.1c-0.1,0.1-0.1,0-0.1-0.1l-0.4-0.1c0,0-0.1,0-0.2,0c-0.1,0-0.2,0-0.2,0
	c-0.1,0-0.3,0-0.4,0.1c-0.1,0-0.3,0-0.5,0c0,0.1,0,0.1-0.1,0.1l0,0l0-0.1c-0.1,0-0.1,0.1-0.1,0.1c0,0-0.1,0-0.1,0
	c-0.1,0.1-0.2,0.2-0.4,0.2c-0.1,0-0.3,0.1-0.4,0.1c0,0-0.1,0-0.1,0c0,0,0,0-0.1,0c0,0,0,0.1-0.1,0.1c-0.1,0-0.3,0-0.6,0.1
	c-0.3,0.1-0.5,0.2-0.8,0.3c-0.3,0.1-0.6,0.2-0.9,0.3c-0.3,0.1-0.5,0.1-0.6,0.2c0-0.1,0-0.2-0.1-0.4c0-0.2-0.1-0.3-0.1-0.5
	c0-0.2-0.1-0.3-0.1-0.5c0-0.1-0.1-0.3-0.1-0.3c-0.1-0.2-0.2-0.3-0.3-0.4c-0.1-0.1-0.3-0.1-0.6-0.1c-0.1-0.1-0.4-0.2-0.7-0.1
	c-0.3,0.1-0.5,0.3-0.7,0.6c-0.1,0.1-0.2,0.3-0.4,0.4c-0.2,0.2-0.3,0.3-0.4,0.5c0,0-0.1,0.1-0.2,0.1c-0.1,0-0.1,0.1-0.2,0.2
	c0,0-0.1,0.1-0.1,0.1c0,0.1,0,0.1-0.1,0.1c-0.1,0.1-0.2,0.2-0.2,0.2c-0.1,0-0.2,0.1-0.2,0.1c-0.1,0.1-0.1,0.1-0.1,0.2
	s-0.1,0.2-0.1,0.2c-0.1,0.1-0.2,0.2-0.3,0.3c0,0-0.1,0-0.1,0c0,0,0,0.1,0,0.1c0,0.1,0,0.1,0,0c0,0,0-0.1,0.1-0.1
	c0.1,0.1,0.1,0.1,0.1,0.1c0,0,0,0,0,0c0,0,0,0,0.1,0c0,0,0.1,0,0.1,0.1c0.1,0.1,0.2,0.1,0.3,0.1c0.1-0.1,0.2-0.2,0.3-0.4
	c0.1,0,0.2-0.1,0.3-0.2c0.1-0.1,0.2-0.2,0.4-0.4l0.5-0.4l0.4-0.4l0.3-0.3c0.1-0.1,0.2-0.2,0.3-0.3c0.1-0.1,0.2-0.2,0.3-0.3
	c0.2,0.3,0.2,0.6,0.3,1c0,0.4,0,0.8-0.1,1.1c-0.3,0.1-0.5,0.2-0.7,0.4c-0.2,0.2-0.4,0.3-0.6,0.4c-0.1,0.1-0.2,0.3-0.4,0.3
	c-0.2,0.1-0.3,0.2-0.4,0.3c-0.1,0.1-0.1,0.1-0.1,0.1c0,0.1-0.1,0.1-0.2,0.1c-0.1,0-0.1,0.1-0.2,0.2c0,0-0.1,0-0.1,0c0,0,0,0,0,0
	c0,0.1-0.1,0.1-0.1,0.2c0,0,0,0.1-0.1,0.1l0,0c-0.1,0-0.2,0.1-0.2,0.2c-0.1,0.1-0.1,0.1-0.2,0.1c0,0.2-0.2,0.4-0.4,0.5
	c0-0.1,0-0.1,0.1-0.2c0,0,0.1-0.1,0.1-0.1c-0.1,0.1-0.2,0.2-0.3,0.3c-0.1,0.1-0.2,0.2-0.2,0.3C249.4,55.7,249.4,55.7,249.4,55.8
	 M250.4,52C250.5,52,250.5,52,250.4,52L250.4,52C250.4,52,250.4,51.9,250.4,52 M250.3,51.9c-0.1,0.2-0.3,0.3-0.4,0.4
	c-0.1,0.1-0.2,0.2-0.3,0.3c-0.1,0.1-0.2,0.2-0.3,0.2c-0.1,0.1-0.2,0.2-0.3,0.3c-0.1,0-0.2,0-0.1,0c0,0,0,0-0.1,0.1
	c-0.4,0.4-0.9,0.8-1.4,1c-0.1,0.1-0.1,0.1-0.1,0.1c0,0,0,0,0,0c0,0,0,0-0.1,0c0,0-0.1,0-0.1,0.1l0,0.1c-0.3,0.2-0.6,0.4-1,0.7
	c-0.4,0.3-0.7,0.5-1.1,0.5c-0.1-0.2-0.1-0.4-0.1-0.7c0-0.3,0-0.6,0.1-0.9c0.1-0.3,0.1-0.6,0.2-0.9c0.1-0.3,0.1-0.5,0.2-0.7
	c0.1-0.1,0.1-0.2,0.2-0.4c0.1-0.2,0.1-0.4,0.1-0.6c0-0.2,0-0.5,0-0.7c0-0.2,0-0.4,0-0.6c-0.2-0.1-0.3-0.2-0.4-0.2
	c-0.1,0-0.3,0-0.5,0c0,0-0.1,0.1-0.2,0.1c0,0.1,0,0.2-0.1,0.2c0,0-0.1,0.1-0.1,0.2c-0.8,1.2-1.6,2.2-2.4,3.1
	c-0.8,0.9-1.7,1.6-2.5,2.2c0-0.3,0.1-0.6,0.1-0.9c0-0.3,0.1-0.6,0.2-0.9c0.1-0.1,0.2-0.3,0.2-0.6c0.1-0.2,0.2-0.5,0.3-0.7
	c0-0.1,0.1-0.2,0.1-0.3c0-0.1,0.1-0.3,0.1-0.4c0.1-0.2,0.1-0.3,0.1-0.5c0-0.1,0.1-0.2,0.1-0.3c0.1-0.1,0.1-0.1,0.1-0.1l0.2-0.3
	c0-0.1,0-0.2,0-0.3c0-0.1,0-0.2,0.1-0.3c0,0-0.1-0.1-0.1-0.2c0-0.1-0.1-0.1-0.2-0.2c-0.1-0.1-0.2-0.1-0.3-0.1
	c-0.1-0.1-0.3-0.1-0.5-0.1c-0.2,0-0.3,0-0.5,0.1c0,0,0,0,0,0.1c0,0,0,0.1,0,0.2l-0.3,0.8c-0.1,0.3-0.2,0.7-0.4,1.2
	c-0.2,0.5-0.3,0.9-0.5,1.4c-0.2,0.5-0.3,1-0.4,1.4c-0.1,0.5-0.1,0.9-0.1,1.3c0,0.1,0.1,0.2,0.1,0.3c0,0.1,0.1,0.2,0.2,0.3
	c0.1,0,0.2,0.1,0.3,0.1c0.1,0,0.2,0,0.3,0.1c0.2,0.1,0.5,0.1,0.7,0.1c0.2,0,0.4,0,0.6-0.2c0.3-0.2,0.6-0.4,0.9-0.7
	c0.3-0.2,0.6-0.5,0.8-0.8c0.2-0.1,0.4-0.3,0.4-0.5c0.1,0,0.1-0.1,0.2-0.1c0.1-0.1,0.1-0.1,0.1-0.2c0.1-0.1,0.2-0.2,0.3-0.3
	c0-0.1,0.1-0.2,0.2-0.2c0.1-0.1,0.1-0.2,0.2-0.3c0.1-0.1,0.1-0.2,0.2-0.3c0,0,0-0.1,0-0.1c0,0,0-0.1,0.1-0.1c0,0.1,0,0.3,0,0.5
	c0,0.2,0,0.4-0.1,0.6c0,0.2,0,0.4,0,0.7c0,0.2,0,0.4,0,0.4c0,0,0,0.1,0,0.2c0,0,0,0,0.1,0.1c0,0.1,0.1,0.3,0.2,0.4
	c0.1,0.1,0.2,0.3,0.3,0.3l0.1,0l0.1,0.1c0,0,0,0.1,0.1,0.1c0,0,0.1,0,0.1,0c0.2,0.1,0.5,0.2,0.6,0.2c0.2,0,0.4,0,0.6-0.1
	c0.1,0,0.3-0.1,0.4-0.1c0.2-0.1,0.3-0.2,0.5-0.3c0.2-0.1,0.3-0.2,0.4-0.3c0.1-0.1,0.2-0.2,0.3-0.2c0,0,0.1,0,0.1,0
	c0.1-0.1,0.1-0.2,0.1-0.2c0,0,0.1-0.1,0.1-0.2c0,0,0.1-0.1,0.1-0.1c0,0,0,0,0.1,0c0.1-0.1,0.1-0.1,0.1-0.1c0,0,0.1,0,0.1,0
	c0,0,0,0,0.1,0c0,0,0.1-0.1,0.1-0.2c0,0,0,0,0,0c0,0,0,0,0,0c0,0,0-0.1,0.1-0.1c0,0,0,0,0-0.1c0,0,0.1-0.1,0.2-0.1
	c0.1-0.1,0.2-0.1,0.2-0.2c0-0.1,0-0.1,0-0.1c0,0,0.1,0,0.1-0.1c0-0.1,0-0.1,0.1-0.2l0,0.1c0-0.1,0.1-0.1,0.1-0.2c0,0,0,0,0,0
	c0,0,0,0,0,0s0.1-0.1,0.1-0.1l0,0c0.1-0.1,0.2-0.2,0.3-0.5c0,0,0.1,0,0.1-0.1c0,0,0.1,0,0.1,0c0-0.1,0.1-0.2,0.2-0.2
	c0.1,0,0.2,0,0.2-0.1l0,0l0,0c0,0,0,0,0-0.1c0.1-0.1,0.2-0.2,0.2-0.2c0-0.1,0-0.1,0.2-0.2c0,0,0,0-0.1,0s-0.1,0,0,0
	c0-0.1,0.1-0.2,0.1-0.2c0,0,0.1-0.1,0.1-0.1c0-0.1,0-0.2,0.1-0.3c0.1-0.1,0.1-0.2,0.1-0.3c0,0-0.1,0-0.1,0c0,0,0,0-0.1,0.1
	c0,0.1,0,0.1-0.1,0.1c0,0,0,0-0.1,0c0-0.1,0-0.1,0.1-0.2L250.3,51.9z M231.4,51.8L231.4,51.8c-0.1,0.1-0.1,0.1-0.1,0.2
	c0,0.1-0.1,0.1-0.1,0.2c-0.5,0.6-0.9,1.2-1.4,1.7c-0.5,0.6-1,1.1-1.5,1.6c-0.1,0.1-0.2,0.2-0.4,0.3c-0.2,0.1-0.3,0.2-0.5,0.3
	c0-0.2,0-0.4,0.1-0.5c0.1-0.1,0.1-0.3,0.2-0.5c0,0,0,0,0,0c0,0,0,0,0.1,0c0-0.1,0.1-0.3,0.1-0.3c0.1-0.1,0.1-0.2,0.1-0.2
	c0.1-0.3,0.3-0.6,0.5-0.9c0.2-0.3,0.4-0.6,0.6-0.9l0.4-0.4c0.1-0.1,0.1-0.1,0.1-0.2c0-0.1,0.1-0.1,0.1-0.2c0,0,0.1-0.1,0.1-0.1
	c0.1,0,0.1-0.1,0.1-0.1l0.4-0.5c0.3-0.1,0.4-0.1,0.5,0c0.1,0.2,0.2,0.4,0.2,0.6C231.2,51.7,231.3,51.8,231.4,51.8 M239,53.5
	c0-0.1,0.1-0.1,0.1-0.1c0-0.1,0.1-0.2,0.1-0.2c0.1,0,0.1-0.1,0.1-0.2c0,0,0.1,0,0.1,0c0-0.1,0.1-0.2,0.1-0.2c0,0,0-0.1,0.1-0.2
	c0,0,0.1-0.1,0.1-0.1c0,0,0.1-0.1,0.1-0.1c0,0.1,0,0.1,0,0.1c0,0,0-0.1,0.1-0.1c0,0,0-0.1,0.1-0.1c0,0,0-0.1,0-0.1l0,0.1
	c0,0,0,0,0-0.1c0,0,0,0,0-0.1c0,0-0.1,0-0.1,0c-0.1,0-0.1,0-0.1,0c0-0.1-0.2,0-0.4,0.2c-0.2,0.2-0.5,0.4-0.8,0.7
	c-0.3,0.3-0.5,0.5-0.8,0.7c-0.3,0.2-0.4,0.4-0.5,0.4l0,0c0,0,0,0-0.1,0c-0.1,0.1-0.3,0.3-0.4,0.4c-0.1,0.1-0.3,0.2-0.4,0.3
	c-0.4,0.2-0.9,0.5-1.3,0.8s-0.9,0.4-1.6,0.5c-0.1-0.4-0.1-0.8,0-1.3c0.1-0.5,0.2-1,0.3-1.4c0.1-0.3,0.3-0.6,0.4-1
	c0.1-0.4,0.1-0.7,0.1-1.1c0-0.1,0-0.1-0.1-0.1c0,0,0-0.1-0.1-0.1c-0.1,0-0.1,0-0.1,0s-0.1,0-0.1,0c-0.1-0.1-0.3-0.2-0.5-0.3
	c-0.2-0.1-0.3-0.1-0.5-0.1c0,0-0.1,0-0.1,0.1s-0.1,0.1-0.1,0.1c-0.1,0-0.2,0.1-0.4,0.2c-0.1,0.1-0.2,0.2-0.3,0.3
	c-0.1-0.3-0.3-0.6-0.6-0.7c-0.3-0.1-0.6-0.2-1-0.2c-0.1-0.1-0.2-0.1-0.3-0.1s-0.2,0.1-0.3,0.1c-0.1,0.1-0.3,0.1-0.4,0.2
	c-0.1,0.1-0.2,0.2-0.3,0.2c-0.3,0.4-0.7,0.7-1,1.1c-0.3,0.4-0.6,0.8-0.9,1.2c-0.2,0.3-0.3,0.5-0.5,0.8c-0.2,0.3-0.3,0.6-0.4,1
	c-0.1,0.1-0.1,0.3-0.2,0.5c0,0.2,0,0.4,0,0.5c0,0.3,0.1,0.4,0.1,0.6c0,0.1,0.2,0.2,0.4,0.3c0.1,0.1,0.2,0.1,0.2,0.2
	c0,0.1,0.1,0.1,0.3,0.1c0.2,0.2,0.4,0.2,0.6,0.2c0.2,0,0.4-0.1,0.6-0.2c0.2-0.1,0.4-0.2,0.5-0.4c0.2-0.1,0.3-0.3,0.5-0.4
	c0,0,0-0.1,0-0.1c0,0,0,0,0,0c0.3-0.3,0.5-0.6,0.8-1c0.1-0.1,0.2-0.2,0.3-0.3c0.1-0.1,0.2-0.3,0.3-0.4c0.2-0.3,0.5-0.5,0.7-0.8
	c0.2-0.3,0.5-0.5,0.7-0.7c-0.1,0.3-0.1,0.7-0.2,1c0,0.3-0.1,0.7,0,1c0,0.3,0.1,0.6,0.2,0.8c0.1,0.2,0.2,0.4,0.5,0.5
	c0,0.1,0.1,0.2,0.2,0.2c0.1,0,0.2,0.1,0.3,0.1c0.1,0,0.2,0.1,0.2,0.2c0.1,0.1,0.3,0,0.5-0.1c0.2-0.1,0.4-0.1,0.5-0.1
	c0.1,0,0.2,0,0.2,0c0.1,0,0.2,0,0.4-0.1c0.2,0,0.3-0.1,0.5-0.2c0.2-0.1,0.3-0.2,0.5-0.4c0.2,0,0.3-0.1,0.3-0.2c0,0,0.1,0,0.1,0
	c0.1-0.1,0.2-0.2,0.2-0.2c0.1,0,0.1-0.1,0.2-0.2c0.1,0,0.1-0.1,0.2-0.1c0-0.1,0.1-0.1,0.2-0.2c0.1,0,0.1,0,0.1,0
	c0-0.1,0.1-0.1,0.1-0.1l0,0l0.1,0c0.1-0.1,0.3-0.3,0.4-0.4c0.1-0.1,0.3-0.2,0.4-0.4c0,0,0,0.1,0,0.1c0.1-0.1,0.1-0.2,0.2-0.3
	c0.1-0.1,0.2-0.1,0.2-0.1L239,53.5z M226.1,53.8C226.1,53.8,226.1,53.8,226.1,53.8C226.1,53.8,226.1,53.8,226.1,53.8
	C226.1,53.8,226.1,53.8,226.1,53.8 M224.4,56.4C224.4,56.3,224.4,56.3,224.4,56.4C224.4,56.3,224.4,56.3,224.4,56.4
	C224.4,56.4,224.4,56.4,224.4,56.4C224.4,56.4,224.4,56.4,224.4,56.4 M220.8,56.8C220.8,56.8,220.8,56.9,220.8,56.8
	C220.8,56.9,220.8,56.9,220.8,56.8c-0.1,0-0.1,0-0.1,0C220.7,56.8,220.7,56.8,220.8,56.8 M226.5,54.2
	C226.5,54.2,226.5,54.2,226.5,54.2c0.1,0,0.1,0,0.1-0.1l0.1,0.1C226.6,54.3,226.5,54.3,226.5,54.2L226.5,54.2z M225.9,54.6
	c0-0.1,0.1-0.1,0.1-0.2C226,54.5,226,54.5,225.9,54.6c0,0.2,0,0.2-0.1,0.2C225.8,54.8,225.9,54.7,225.9,54.6 M219.1,42.9
	c-0.1,0.2-0.2,0.4-0.3,0.6c-0.2,0.5-0.5,1-0.6,1.5c-0.2,0.5-0.4,1-0.6,1.5l-0.2,0.6c0,0.1-0.1,0.1-0.1,0.1c-0.3,0.8-0.6,1.5-0.9,2.3
	c-0.3,0.8-0.7,1.5-1,2.3c-0.2,0.6-0.5,1.1-0.7,1.7c-0.2,0.6-0.5,1.1-0.7,1.7c-0.2,0.4-0.3,0.8-0.4,1.2l-0.1,0.1c0,0,0,0.1,0,0.1
	c0,0,0,0,0,0l0,0.2l-0.1,0.2l0,0.1c0,0.2,0,0.3,0.1,0.4c0.1,0,0.1,0.1,0.2,0.1c0.1,0,0.2,0,0.3,0.1l0,0.1c0.1,0,0.1,0,0.1,0
	c0,0,0,0,0.1,0l0.1,0c0.1,0,0.2,0,0.2,0c0.1,0,0.1,0,0.2,0c0,0,0.1,0,0.1-0.1c0,0,0-0.1,0.1-0.1l0.3-0.2c0.5-0.8,1.1-1.5,1.7-2.1
	c0.7-0.6,1.3-1.3,1.9-1.9c0-0.1,0.1-0.1,0.1-0.2c0.1,0,0.1-0.1,0.1-0.1c0.1,0,0.1-0.1,0.2-0.1c0.1-0.1,0.2-0.2,0.2-0.3
	s0.2-0.1,0.3-0.2c-0.1,0.5-0.2,1.1-0.2,1.7c0,0.6,0,1.1,0.1,1.5c0.1,0,0.1,0.1,0.1,0.2c0.1,0.1,0.2,0.2,0.2,0.3
	c0.1,0.1,0.1,0.2,0.2,0.3c0-0.1,0-0.1,0.1,0c0,0,0,0.1,0,0.1c0,0-0.1,0-0.1,0c0.2,0.1,0.3,0.2,0.5,0.3c0.2,0.1,0.4,0.1,0.6,0.2
	c0.1,0,0.2,0,0.2,0c0,0,0.1,0,0.1,0c0,0,0,0,0,0c0.1,0,0.2,0,0.4,0s0.4-0.1,0.5-0.1c0.2-0.1,0.4-0.1,0.5-0.2
	c0.2-0.1,0.3-0.1,0.3-0.2c0,0,0,0,0,0c0,0,0,0-0.1,0c0,0,0.1-0.1,0.1-0.1s0.1,0,0.1,0c0,0,0,0.1,0,0.1c0,0,0,0,0,0
	c0.1,0,0.2-0.1,0.2-0.1c0-0.1,0.1-0.1,0.2-0.1l0,0.1c0.1,0,0.1,0,0.1-0.1c0,0,0,0,0.1-0.1c0-0.1,0.1-0.1,0.1-0.1c0,0,0,0,0,0
	c0,0-0.1,0-0.1,0c0.1,0,0.1-0.1,0.1-0.1c0,0,0.1-0.1,0.2-0.1c0,0,0,0,0,0.1c0,0,0,0,0,0.1l0.1,0c0-0.1,0-0.1,0-0.1c0,0,0,0,0-0.1
	c0,0,0,0,0,0c0,0,0,0,0.1,0l0,0.1l0.1,0c0,0,0.1-0.1,0.1-0.1c0-0.1,0.1-0.1,0.1-0.1c0.1-0.1,0.2-0.1,0.3-0.2
	c0.1-0.1,0.2-0.1,0.3-0.2c0.1-0.1,0.2-0.1,0.3-0.2c0.1-0.1,0.2-0.2,0.3-0.3c0,0,0.1-0.1,0.1-0.2c0-0.1,0.1-0.1,0.1-0.1
	c0.1-0.1,0.2-0.2,0.3-0.3c0.1,0,0.1-0.1,0.1-0.1s0.1-0.1,0.1-0.1c0,0,0.1-0.1,0.3-0.3c0.1,0,0.1-0.1,0.2-0.1s0.1-0.1,0.1-0.1
	c0,0,0.1-0.1,0.1-0.1c0,0,0.1-0.1,0.1-0.2c0,0,0.1-0.1,0.1-0.2c0.1-0.1,0.1-0.1,0.1-0.2l0-0.1c0-0.1,0.1-0.1,0.1-0.2
	c0-0.1,0.1-0.1,0.1-0.2l0,0c0-0.1-0.2-0.2-0.4-0.1c0-0.1-0.1-0.2,0-0.1c0,0,0,0.1,0,0.1l-0.1,0c0,0,0,0.1,0,0.1c0,0,0,0,0,0.1
	c0,0,0,0-0.1,0c0,0,0,0-0.1,0l0,0l0,0c0,0,0,0,0,0c0,0,0,0,0,0c-0.1,0.1-0.1,0.2-0.2,0.2c-0.1,0-0.2,0-0.3,0.1c0,0.1,0,0.1-0.1,0.2
	c-0.1,0-0.2,0.1-0.2,0.1c-0.1,0-0.2,0-0.2,0.1c0,0-0.1,0.1-0.1,0.1l0,0.1l0,0c-0.1,0.1-0.1,0.1-0.1,0.2s0,0.1,0,0.1c0,0,0,0,0.1-0.1
	c0,0.1-0.1,0.1-0.1,0.1c0,0,0,0,0,0c-0.2,0.2-0.4,0.3-0.5,0.4c-0.1,0.1-0.2,0.2-0.3,0.2c-0.1,0.1-0.1,0.1-0.2,0.1
	c0,0-0.1,0.1-0.1,0.1c-0.1,0-0.1,0.1-0.2,0.1c-0.1,0.1-0.1,0.1-0.2,0.1c0,0-0.1,0-0.1,0c0,0-0.1,0-0.1,0c0,0-0.1,0-0.1,0
	c0,0,0,0-0.1,0.1l-0.2,0.2c-0.2,0.2-0.5,0.3-0.9,0.6c-0.4,0.2-0.7,0.4-1,0.4c-0.1,0-0.1,0-0.2,0c-0.1,0-0.1,0-0.2,0
	c-0.1,0-0.1,0-0.2,0c-0.1,0-0.1,0-0.1,0c-0.1,0-0.1-0.1-0.2-0.3c-0.1-0.2-0.1-0.3-0.1-0.4c-0.1-0.3-0.1-0.5-0.1-0.7
	c0-0.2,0-0.5,0-0.9l0-0.4c0-0.1,0-0.1,0-0.1c0,0,0-0.1,0.1-0.1c0,0,0-0.1,0.1-0.1c0,0,0-0.1,0,0c0.1-0.1,0.1-0.2,0.1-0.4
	c0-0.2,0-0.4,0.1-0.5c0-0.2,0-0.3,0-0.4c0-0.1,0-0.1,0-0.2c0-0.1-0.1-0.1-0.1-0.1c0,0-0.1,0-0.2,0c0,0,0-0.1,0-0.1
	c-0.1,0-0.2,0-0.2,0c-0.1,0-0.1,0-0.2-0.1c-0.1,0-0.1-0.1-0.2-0.1c-0.1,0-0.1,0-0.2,0c-0.1,0-0.2,0.1-0.3,0.1
	c-0.1,0.1-0.2,0.1-0.3,0.2l-0.1,0c0,0,0,0-0.1,0.1c0,0-0.1,0.1-0.1,0.1c-0.2,0.2-0.5,0.4-0.7,0.5c-0.2,0.2-0.5,0.3-0.7,0.5
	c-0.2,0.2-0.4,0.4-0.6,0.6c-0.2,0.2-0.4,0.4-0.7,0.6l-0.2,0.2l-0.1,0.2c-0.2,0.2-0.5,0.4-0.7,0.7c-0.2,0.2-0.4,0.4-0.6,0.7l0.1-0.2
	l0-0.1c0-0.1,0-0.2,0.1-0.2c0-0.1,0.1-0.1,0.1-0.2l0.5-1.2c0.1-0.3,0.3-0.6,0.4-0.8c0.1-0.3,0.2-0.6,0.3-0.9c0,0,0,0,0,0
	c0,0,0,0,0,0l0.1-0.2l0.1-0.2l0.2-0.4l1-2.5c0,0,0-0.1,0-0.1c0,0,0,0,0-0.1l0.1-0.2c0-0.1,0.1-0.2,0.1-0.3c0-0.1,0.1-0.2,0.1-0.3
	c0-0.1,0-0.2,0.1-0.2c0-0.1,0.1-0.1,0.1-0.2c0-0.1,0-0.1,0-0.2c0-0.1,0.1-0.2,0.2-0.2c0-0.2,0.1-0.4,0.2-0.7
	c0.1-0.2,0.2-0.4,0.3-0.6c0,0,0-0.1,0-0.1c0,0,0-0.1,0.1-0.1c0,0,0.1,0,0.1,0c0,0,0,0,0.1,0l0-0.2l0.2-0.3c0.1-0.1,0.1-0.3,0.2-0.4
	c0.1-0.1,0.1-0.2,0.2-0.4c0,0,0-0.1,0.1-0.1c0,0,0,0,0.1-0.1c0,0,0-0.1,0-0.1c0,0,0-0.1,0.1-0.1c0-0.2,0-0.3,0-0.4
	c0-0.1-0.1-0.2-0.2-0.3c0,0-0.1-0.1-0.1-0.1c-0.1,0-0.1,0-0.1-0.1l-0.1-0.1l-0.1,0c-0.1,0-0.1,0-0.1-0.1c0,0-0.1-0.1-0.1-0.1
	c0,0-0.1,0-0.1,0c0,0-0.1,0-0.1,0c0,0-0.1,0-0.1,0c0,0,0,0-0.1,0c-0.1,0-0.1,0-0.1,0c0,0,0,0,0,0C219.3,42.5,219.2,42.7,219.1,42.9
	 M215.2,52.9C215.2,52.9,215.2,52.9,215.2,52.9L215.2,52.9C215.2,52.9,215.1,52.9,215.2,52.9 M215,52.8c-0.1,0.2-0.3,0.3-0.4,0.4
	c-0.1,0.1-0.2,0.2-0.3,0.3c-0.1,0.1-0.2,0.2-0.3,0.2c-0.1,0.1-0.2,0.2-0.3,0.3c-0.1,0-0.2,0-0.1,0c0,0,0,0-0.1,0.1
	c-0.4,0.4-0.9,0.8-1.4,1c-0.1,0.1-0.1,0.1-0.1,0.1c0,0,0,0,0,0c0,0,0,0-0.1,0c0,0-0.1,0-0.1,0.1l0,0.1c-0.3,0.2-0.6,0.4-1,0.7
	c-0.4,0.3-0.7,0.5-1.1,0.5c-0.1-0.2-0.1-0.4-0.1-0.7c0-0.3,0-0.6,0.1-0.9c0.1-0.3,0.1-0.6,0.2-0.9c0.1-0.3,0.1-0.5,0.2-0.7
	c0.1-0.1,0.1-0.2,0.2-0.4c0.1-0.2,0.1-0.4,0.1-0.6s0-0.5,0-0.7c0-0.2,0-0.4,0-0.6c-0.2-0.1-0.3-0.2-0.4-0.2c-0.1,0-0.3,0-0.5,0
	c0,0-0.1,0.1-0.2,0.1c0,0.1,0,0.2-0.1,0.2c0,0-0.1,0.1-0.1,0.2c-0.8,1.2-1.6,2.2-2.4,3.1c-0.8,0.9-1.7,1.6-2.5,2.2
	c0-0.3,0.1-0.6,0.1-0.9c0-0.3,0.1-0.6,0.2-0.9c0.1-0.1,0.1-0.3,0.2-0.6c0.1-0.2,0.2-0.5,0.3-0.7c0-0.1,0.1-0.2,0.1-0.3
	c0-0.1,0.1-0.3,0.1-0.4c0.1-0.2,0.1-0.3,0.1-0.5c0-0.1,0.1-0.2,0.1-0.3c0.1-0.1,0.1-0.1,0.1-0.1l0.2-0.3c0-0.1,0-0.2,0-0.3
	c0-0.1,0-0.2,0.1-0.3c0,0-0.1-0.1-0.1-0.2c0-0.1-0.1-0.1-0.2-0.2c-0.1-0.1-0.2-0.1-0.3-0.1c-0.1-0.1-0.3-0.1-0.5-0.1
	c-0.2,0-0.3,0-0.5,0.1c0,0,0,0,0,0.1s0,0.1,0,0.2l-0.3,0.8c-0.1,0.3-0.2,0.7-0.4,1.2c-0.2,0.5-0.3,0.9-0.5,1.4s-0.3,1-0.4,1.4
	c-0.1,0.5-0.1,0.9-0.1,1.3c0,0.1,0.1,0.2,0.1,0.3s0.1,0.2,0.2,0.3c0.1,0,0.2,0.1,0.3,0.1c0.1,0,0.2,0,0.3,0.1
	c0.2,0.1,0.5,0.1,0.7,0.1c0.2,0,0.4,0,0.6-0.2c0.3-0.2,0.6-0.4,0.9-0.7c0.3-0.2,0.6-0.5,0.8-0.8c0.2-0.1,0.4-0.3,0.5-0.5
	c0.1,0,0.1-0.1,0.2-0.1c0.1-0.1,0.1-0.1,0.1-0.2c0.1-0.1,0.2-0.2,0.3-0.3c0-0.1,0.1-0.2,0.2-0.2c0.1-0.1,0.1-0.2,0.2-0.3
	c0.1-0.1,0.1-0.2,0.2-0.3c0,0,0-0.1,0-0.1c0,0,0-0.1,0.1-0.1c0,0.1,0,0.3,0,0.5c0,0.2,0,0.4-0.1,0.6c0,0.2,0,0.4,0,0.7
	c0,0.2,0,0.4,0,0.4c0,0,0,0.1,0,0.2c0,0,0,0,0.1,0.1c0,0.1,0.1,0.3,0.2,0.4c0.1,0.1,0.2,0.3,0.3,0.3l0.1,0l0.1,0.1
	c0,0,0,0.1,0.1,0.1c0,0,0.1,0,0.1,0c0.2,0.1,0.5,0.2,0.6,0.2c0.2,0,0.4,0,0.6-0.1c0.1,0,0.3-0.1,0.4-0.1c0.2-0.1,0.3-0.2,0.5-0.3
	c0.2-0.1,0.3-0.2,0.4-0.3c0.1-0.1,0.2-0.2,0.3-0.2c0,0,0.1,0,0.1,0c0.1-0.1,0.1-0.2,0.1-0.2c0,0,0.1-0.1,0.1-0.2
	c0,0,0.1-0.1,0.1-0.1c0,0,0,0,0.1,0c0.1-0.1,0.1-0.1,0.1-0.1c0,0,0.1,0,0.1,0c0,0,0,0,0.1,0c0,0,0.1-0.1,0.1-0.2c0,0,0.1,0,0,0
	c0,0,0,0,0,0c0,0,0-0.1,0.1-0.1c0,0,0,0,0-0.1c0,0,0.1-0.1,0.2-0.1c0.1-0.1,0.2-0.1,0.2-0.2c0-0.1,0-0.1,0-0.1c0,0,0.1,0,0.1-0.1
	c0-0.1,0-0.1,0.1-0.2l0,0.1c0-0.1,0.1-0.1,0.1-0.2c0,0,0,0,0,0c0,0,0,0,0,0c0,0,0.1-0.1,0.1-0.1l0,0c0.1-0.1,0.2-0.2,0.3-0.5
	c0,0,0.1,0,0.1-0.1c0,0,0.1,0,0.1,0c0-0.1,0.1-0.2,0.2-0.2c0.1,0,0.2,0,0.2-0.1l0,0l0,0c0,0,0,0,0-0.1c0.1-0.1,0.2-0.2,0.2-0.2
	c0-0.1,0-0.1,0.2-0.2c0,0,0,0-0.1,0s-0.1,0,0,0c0-0.1,0.1-0.2,0.1-0.2c0,0,0.1-0.1,0.1-0.1c0-0.1,0-0.2,0.1-0.3
	c0.1-0.1,0.1-0.2,0.1-0.3c0,0-0.1,0-0.1,0c0,0,0,0-0.1,0.1c0,0.1,0,0.1-0.1,0.1c0,0,0,0-0.1,0c0-0.1,0-0.1,0.1-0.2L215,52.8z
	 M202.7,41.8c-0.1,0.2-0.2,0.4-0.4,0.6l-0.7,1.1c-0.5,0.7-1.1,1.4-1.6,2.1c-0.5,0.7-1,1.4-1.5,2.1l-1.6,2.1c-0.5,0.7-1,1.4-1.5,2.2
	c-0.5,0.8-1,1.5-1.5,2.2c-0.2,0.3-0.4,0.6-0.6,1c-0.2,0.4-0.4,0.7-0.6,1.1c-0.1,0.2-0.2,0.3-0.4,0.5c-0.1,0.2-0.2,0.4-0.3,0.6
	c-0.2,0.3-0.3,0.6-0.5,0.8c-0.1,0.3-0.3,0.6-0.4,0.9c-0.1,0.1-0.1,0.3-0.2,0.4c-0.1,0.1-0.2,0.3-0.3,0.4c-0.1,0.1-0.2,0.3-0.3,0.4
	c-0.1,0.2-0.1,0.3-0.1,0.5c0,0.5,0.1,0.9,0.4,1.2c0.1,0.1,0.3,0.3,0.5,0.5c0.3,0.2,0.5,0.3,0.7,0.3c0.2,0,0.4,0,0.6,0
	c0.2,0,0.4,0,0.6-0.1c0.3,0,0.6-0.1,0.9-0.1c0.3-0.1,0.6-0.1,0.9-0.2c0.1,0,0.3-0.1,0.4-0.1c0.1,0,0.3-0.1,0.4-0.1
	c0.9-0.3,1.9-0.5,3-0.8c0.1,0.1,0.1,0.1,0.2,0c0.1,0,0.2-0.1,0.3-0.1c0.5-0.1,1-0.2,1.5-0.2c0.5,0,1-0.1,1.5-0.1c0,0,0.1-0.1,0.1,0
	c0.1,0,0.1,0,0.1,0c0,0,0,0,0-0.1c0-0.1,0-0.1,0.1-0.1c0.1,0,0.2,0,0.2,0c0-0.1,0-0.1,0-0.1c0,0-0.1-0.1-0.1-0.1c0,0,0-0.1,0-0.1
	c0,0,0,0,0-0.1c-0.1-0.1-0.2-0.2-0.2-0.2c-0.1,0-0.2-0.1-0.3-0.1c0,0-0.1-0.1-0.1-0.1c0,0-0.1-0.1-0.1-0.1c-0.1,0-0.2,0-0.3,0
	c-0.1,0-0.2,0-0.3,0c-0.2,0-0.3,0-0.5,0c-0.2,0-0.4,0-0.6,0.1c-1.1,0.1-2.1,0.3-3,0.5c-0.9,0.2-1.8,0.4-2.7,0.6
	c-0.4,0.1-0.8,0.2-1.2,0.3c-0.4,0.1-0.8,0.1-1.2,0.1c0.1-0.3,0.3-0.7,0.5-1c0.2-0.3,0.3-0.7,0.5-1c0.1-0.1,0.3-0.3,0.4-0.5
	c0.2-0.2,0.3-0.4,0.4-0.5c0.1-0.1,0.1-0.1,0.1-0.2c0-0.1,0.1-0.2,0.2-0.4c0.1-0.1,0.1-0.2,0.2-0.3c0.1-0.1,0.1-0.2,0.1-0.3l0.1-0.3
	c0,0,0-0.1,0.1-0.1c0,0,0,0,0-0.1c0,0,0-0.1,0-0.1c0,0,0-0.1,0-0.1c0.1-0.2,0.2-0.4,0.3-0.6c0.1-0.1,0.2-0.3,0.3-0.4
	c0.1-0.1,0.2-0.3,0.3-0.4c0.1-0.1,0.2-0.3,0.4-0.4c0.1-0.1,0.2-0.2,0.2-0.2c0,0,0.1-0.1,0.1-0.1c0,0,0.1-0.1,0.1-0.1
	c0.1-0.2,0.3-0.5,0.4-0.8c0.2-0.3,0.3-0.6,0.4-0.9c0.1-0.3,0.3-0.5,0.5-0.8c0.2-0.3,0.4-0.5,0.4-0.8c0.2-0.6,0.5-1.1,0.9-1.5
	c0.4-0.4,0.8-0.9,1.1-1.4c0.1-0.1,0.3-0.2,0.3-0.3c0.1-0.1,0.2-0.2,0.2-0.4c0.3-0.4,0.5-0.7,0.8-1c0.3-0.3,0.6-0.6,0.9-0.9
	c0.2-0.2,0.3-0.5,0.5-0.7c0.2-0.2,0.3-0.4,0.5-0.6c0.1-0.2,0.3-0.4,0.4-0.7c0.1-0.3,0.3-0.5,0.4-0.7c0.1-0.1,0.2-0.1,0.2-0.2
	c0.1-0.1,0.1-0.1,0.2-0.2c0,0,0-0.1,0-0.1c0,0,0-0.1,0.1-0.1c0,0,0.1-0.1,0.1-0.1c0.1-0.1,0.1-0.3,0.1-0.5c0-0.2-0.1-0.3-0.1-0.5
	c-0.1-0.2-0.2-0.3-0.4-0.4c-0.2-0.1-0.4-0.2-0.6-0.2c-0.1,0-0.1-0.1-0.2-0.1c-0.1-0.1-0.1-0.1-0.3-0.1c0,0,0-0.1-0.1-0.2
	c-0.1,0-0.2,0-0.3-0.1c-0.1-0.1-0.1-0.2-0.2-0.2c-0.1-0.1-0.3-0.1-0.5-0.1c-0.2,0-0.4,0-0.5,0c-0.8,0-1.5,0.1-2.3,0.3
	c-0.8,0.1-1.5,0.3-2.3,0.5c-0.7,0.2-1.5,0.3-2.2,0.5c-0.7,0.2-1.4,0.4-2,0.7c-0.1-0.1-0.3,0-0.4,0.1c0,0.1,0.1,0.2,0.1,0.2
	c0.1,0,0.2,0.1,0.2,0.1c0.1,0.1,0.1,0.3,0.2,0.4c0.1,0.2,0.2,0.3,0.3,0.4c0.1,0.1,0.2,0.2,0.4,0.3c0.1,0.1,0.3,0,0.5,0
	c0.2-0.1,0.4-0.2,0.5-0.3c0.2-0.1,0.3-0.2,0.5-0.2c0.1,0,0.2,0,0.3-0.1c0.1,0,0.2-0.1,0.3-0.1c0.2-0.1,0.4-0.1,0.7-0.2
	c0.2,0,0.5-0.1,0.7-0.1c0,0,0,0,0.1,0c0,0,0.1,0,0.1,0l1.1-0.2c0.3,0,0.5-0.1,0.8-0.1c0.3,0,0.6-0.1,0.8-0.1
	c0.3-0.1,0.6-0.1,0.9-0.2c0.3,0,0.6-0.1,0.9-0.1c0.1,0,0.3,0,0.5-0.1c0.2,0,0.3,0,0.5,0.1C202.9,41.4,202.9,41.7,202.7,41.8
	 M176.4,51.9c0.1,0,0.1,0,0.1,0c0,0.1,0,0.1,0,0.2c0,0.1-0.1,0.2-0.1,0.2c-0.1,0.2-0.3,0.4-0.5,0.6c-0.2,0.2-0.4,0.4-0.5,0.5
	c-0.1,0.1-0.2,0.2-0.3,0.3c-0.1,0.1-0.2,0.2-0.3,0.3c-0.3,0.3-0.7,0.5-1,0.8c-0.3,0.2-0.6,0.4-1,0.5c0.1-0.2,0.2-0.4,0.4-0.6
	c0.2-0.2,0.3-0.4,0.5-0.6c0.1-0.2,0.3-0.3,0.5-0.5c0.1-0.1,0.2-0.3,0.3-0.3c0.1-0.1,0.2-0.2,0.3-0.3c0.1-0.1,0.2-0.1,0.3-0.2
	c0.1,0,0.2-0.1,0.3-0.2l0.2-0.2c0,0,0.1,0,0.1-0.1c0,0,0.1,0,0.1-0.1c0,0,0.1-0.1,0.1-0.1c0.1,0,0.1-0.1,0.2-0.1
	c0.1-0.1,0.1-0.1,0.2-0.1C176.3,51.9,176.4,51.9,176.4,51.9 M182.4,54.7c0,0,0.1-0.1,0.1-0.1c0,0,0.1-0.1,0.1-0.2s0.1-0.2,0.2-0.4
	c-0.1,0-0.1,0-0.1-0.1c0-0.1-0.1-0.2-0.1-0.2c-0.1,0-0.2,0.1-0.3,0.2c-0.2,0.1-0.3,0.2-0.5,0.4l-0.3,0.3c0,0-0.1,0.1-0.2,0.1
	c-0.1,0.1-0.2,0.1-0.3,0.2c-0.1,0.1-0.2,0.1-0.3,0.2c-0.1,0.1-0.1,0.1-0.2,0.1c-0.2,0.2-0.4,0.4-0.6,0.4c-0.1,0.1-0.3,0.2-0.5,0.4
	l-0.7,0.3c-0.1,0-0.1,0.1-0.1,0c0,0,0,0,0,0c0,0,0,0,0,0c0,0,0,0-0.1,0l-0.4,0.2c-0.2,0.1-0.5,0.3-0.8,0.4c-0.2,0.1-0.4,0.2-0.6,0.2
	c-0.2,0-0.4,0.1-0.6,0.1c-0.6,0.2-1.2,0.2-1.9,0c-0.2,0-0.5-0.1-0.7-0.2c-0.2-0.1-0.4-0.3-0.5-0.4c0-0.1-0.1-0.1-0.1-0.1
	c0,0,0-0.1,0-0.2c-0.1,0-0.1,0-0.1,0c0,0,0,0,0-0.1c0.3,0.1,0.6,0,0.9-0.2c0.2-0.2,0.5-0.3,0.8-0.3c0.1-0.1,0.3-0.3,0.5-0.4
	c0.2-0.1,0.4-0.3,0.5-0.4c0-0.1,0-0.1,0.1-0.2c0.1-0.1,0.2-0.2,0.3-0.3c0.1-0.1,0.2-0.2,0.3-0.3c0.1-0.1,0.2-0.2,0.3-0.3
	c0.1-0.1,0.2-0.2,0.3-0.3c0-0.1,0.1-0.1,0.1-0.2c0-0.1,0.1-0.1,0.1-0.2c0.1-0.1,0.1-0.2,0.2-0.2c0.1-0.1,0.1-0.1,0.2-0.2
	c0,0,0-0.1,0-0.1c0,0,0-0.1,0.1-0.1c0.1-0.1,0.1-0.2,0.1-0.4c0-0.1,0-0.2,0-0.4c-0.1-0.1-0.1-0.2-0.2-0.2c0-0.1-0.1-0.2-0.2-0.2
	c-0.1-0.1-0.2-0.3-0.4-0.4s-0.3-0.2-0.4-0.4c-0.1,0-0.1,0-0.1,0c0,0-0.1,0-0.1,0.1c-0.1,0-0.1,0.1-0.2,0.1c-0.1,0-0.2,0-0.2,0.1
	c-0.1,0-0.3,0.1-0.4,0.2c-0.1,0.1-0.3,0.2-0.4,0.3c-0.1,0.1-0.2,0.2-0.4,0.3c-0.1,0.1-0.2,0.2-0.3,0.2c-0.1,0.1-0.2,0.1-0.3,0.2
	c-0.1,0.1-0.2,0.3-0.3,0.3c-0.1,0.1-0.2,0.2-0.3,0.3l-0.4,0.6l-0.6,0.7c-0.2,0.3-0.3,0.6-0.4,0.9c-0.1,0.3-0.1,0.6-0.2,0.8
	c0,0.1,0,0.3,0,0.4c0,0.1,0,0.2,0.1,0.4c0,0.1,0.1,0.2,0.1,0.4c0,0.1,0.1,0.3,0.2,0.4c0.2,0.2,0.3,0.4,0.5,0.5
	c0.2,0.2,0.4,0.3,0.6,0.4c0.2,0.1,0.4,0.1,0.6,0.2c0.2,0,0.4,0.1,0.6,0.1c0,0,0.1,0,0.1,0c0,0,0.1,0,0.2,0c0.1,0,0.3,0,0.6,0l0-0.1
	c0.1,0,0.2,0,0.2,0c0,0,0.1,0,0.1,0c0.1-0.1,0.2-0.1,0.3-0.1c0.1,0,0.1,0,0.2,0c0,0,0,0,0,0c0,0,0,0,0,0c0.1-0.1,0.1-0.1,0.2-0.1
	c0.1,0,0.1,0,0.2-0.1c0.1,0,0.1,0,0.2,0c0,0,0.1-0.1,0.1,0c0.1-0.1,0.1-0.1,0.2-0.1c0.1,0,0.1,0,0.2,0c0,0,0,0.1,0,0.1
	c0.1,0,0.2,0,0.2,0c0.1,0,0.1,0,0.2,0c0.1,0,0.1,0,0.2-0.1c0.1,0,0.1,0,0.1-0.1c0,0,0.1,0,0.1,0c0.4-0.2,0.7-0.3,1-0.5
	c0.3-0.2,0.6-0.4,0.9-0.6l0.4-0.3l0.2-0.1l0.5-0.4L181,56c0,0,0.1-0.1,0.2-0.2c0.1-0.1,0.2-0.2,0.2-0.2c0.2-0.2,0.3-0.3,0.5-0.4
	s0.2-0.2,0.2-0.3C182.3,54.8,182.3,54.7,182.4,54.7 M164.7,52c-0.1,0.1-0.2,0.1-0.3,0.2C164.5,52.1,164.6,52.1,164.7,52
	c0.1-0.1,0.1-0.1,0.2-0.2C164.9,51.9,164.8,52,164.7,52 M168.9,59.1C168.9,59.1,168.9,59,168.9,59.1c0.1-0.1,0.2-0.1,0.4-0.3
	c0.2-0.1,0.5-0.3,0.8-0.6c0,0,0.1-0.1,0.2-0.1c0.1-0.1,0.2-0.2,0.3-0.3c0.1-0.1,0.2-0.2,0.3-0.3c0.1-0.1,0.2-0.1,0.2-0.2
	c0.1-0.1,0.2-0.2,0.3-0.2c0.1-0.1,0.2-0.2,0.3-0.2c0.1-0.1,0.2-0.2,0.3-0.3c0.1-0.1,0.2-0.2,0.3-0.4c0.1-0.1,0.2-0.1,0.3-0.2
	c0-0.1,0.1-0.2,0.3-0.3c0.1-0.1,0.2-0.2,0.2-0.2c0.1-0.1,0.1-0.1,0.1-0.2c0.1,0,0.1-0.1,0.1-0.1c0,0,0-0.1,0.1-0.1
	c0.1-0.1,0.2-0.3,0.4-0.5c0.2-0.2,0.2-0.4,0.2-0.6c0,0,0.1,0,0.1-0.1c0-0.1-0.1-0.1-0.3-0.1c-0.2,0.1-0.3,0.1-0.4,0.1
	c-0.1,0.1-0.2,0.2-0.2,0.3c0,0.1-0.1,0.2-0.1,0.3c-0.1,0.1-0.2,0.1-0.2,0.1c0,0-0.1,0.1-0.1,0.1c0,0-0.1,0-0.1,0.1
	c0,0-0.1,0.1-0.2,0.2c-0.2,0.3-0.5,0.6-0.8,0.8c-0.3,0.3-0.5,0.4-0.6,0.5c-0.1,0.1-0.3,0.2-0.5,0.4c-0.2,0.2-0.3,0.3-0.4,0.4
	c0,0-0.1,0.1-0.2,0.2c-0.1,0.1-0.1,0.1-0.2,0.1c0,0,0,0.1-0.1,0.1c0,0-0.1,0-0.1,0.1c-0.1,0-0.1,0-0.1,0.1s-0.1,0.1-0.1,0.1
	c-0.1,0-0.1,0-0.2,0.1c-0.1,0-0.1,0.1-0.2,0.1c-0.2,0.1-0.4,0.2-0.6,0.3c-0.2,0.2-0.4,0.2-0.6,0.2c0,0-0.1,0-0.1,0c0,0,0,0,0,0
	c0,0-0.1,0-0.2,0.1c-0.1,0-0.1,0.1-0.2,0.1c-0.2,0-0.4,0-0.5,0c-0.2,0-0.3-0.1-0.5-0.1c-0.2-0.3-0.2-0.6-0.2-0.9
	c0-0.4,0.1-0.7,0.2-1.1c0.1-0.1,0.1-0.3,0.2-0.4c0.1-0.1,0.1-0.3,0.2-0.4c0.1-0.1,0.2-0.2,0.2-0.3c0.1-0.1,0.1-0.2,0.2-0.4
	c0.1-0.1,0.1-0.2,0.2-0.3c0.1-0.1,0.1-0.1,0.2-0.2c0-0.1,0.1-0.2,0.1-0.3c0-0.1,0-0.2,0-0.4c-0.1-0.1-0.3-0.2-0.4-0.3
	c-0.1-0.1-0.3-0.2-0.4-0.3c-0.2,0.1-0.3,0.1-0.5,0c-0.2,0-0.4,0.1-0.5,0.1c-0.1,0-0.2,0.1-0.2,0.1c-0.1,0-0.2,0.1-0.3,0.1
	c-0.1,0-0.3,0-0.6,0c0.1-0.1,0.1-0.2,0.2-0.3c0-0.1,0.1-0.2,0.2-0.3c0.1-0.1,0.1-0.1,0.1-0.2c0-0.1,0.1-0.1,0.2-0.2
	c0.1-0.1,0.2-0.2,0.3-0.3c0.1-0.1,0.2-0.2,0.2-0.3c0.1,0,0.1,0,0.1-0.1c0,0,0-0.1,0.1-0.1l0.1-0.4c0-0.1-0.1-0.2-0.1-0.2
	c-0.1,0-0.1-0.1-0.2-0.1c-0.2-0.1-0.4-0.2-0.6-0.2c-0.2-0.1-0.3-0.1-0.5-0.1c-0.2,0.2-0.3,0.3-0.5,0.5c-0.2,0.2-0.4,0.4-0.5,0.6
	c-0.1,0.2-0.3,0.5-0.3,0.7c-0.1,0.3-0.1,0.6,0,0.9c-0.1,0-0.1,0.1-0.1,0.2c0,0.2,0.1,0.3,0.2,0.3c0.1,0.1,0.1,0.2,0,0.2
	c0,0.1,0,0.1,0.1,0c0,0,0.1,0,0.1,0c0,0,0.1,0.1,0.1,0c0.1,0,0.2,0,0.2,0c0,0,0,0,0,0c0,0,0,0,0-0.1c0,0,0.1-0.1,0.2-0.1
	c0.3,0,0.6-0.1,0.9-0.2c0.3-0.1,0.5-0.2,0.7-0.2c-0.2,0.4-0.5,0.9-0.8,1.3c-0.3,0.5-0.5,1-0.6,1.7c-0.1,0.7,0.1,1.3,0.4,1.8
	c0.3,0.5,0.8,0.8,1.4,0.8l0,0c0,0,0,0,0,0c0,0,0,0,0,0c0.1,0,0.3,0.1,0.4,0.1c0.1,0,0.2,0,0.3,0c0-0.1,0-0.1-0.1-0.1s-0.1,0-0.1,0
	c0,0,0,0,0-0.1c0.1,0,0.2,0,0.3,0c0.1,0,0.2,0,0.3,0c0,0,0.1,0,0.2-0.1c0.1,0.1,0.2,0.1,0.3,0c0.1,0,0.2-0.1,0.2-0.2
	c0,0.1,0,0.1,0.1,0.1c0,0,0.1-0.1,0.2-0.2c0.1-0.1,0.2-0.1,0.2-0.1C168.8,59.1,168.8,59.1,168.9,59.1c-0.1,0-0.1,0-0.1,0
	C168.8,59.1,168.9,59.1,168.9,59.1 M162.2,55.5C162.2,55.5,162.2,55.5,162.2,55.5C162.2,55.5,162.2,55.5,162.2,55.5
	C162.2,55.5,162.2,55.5,162.2,55.5 M160.5,58.1C160.5,58,160.5,58,160.5,58.1C160.6,58,160.6,58,160.5,58.1
	C160.6,58.1,160.6,58.1,160.5,58.1C160.5,58.1,160.5,58.1,160.5,58.1 M156.9,58.5C156.9,58.5,157,58.5,156.9,58.5
	C156.9,58.6,156.9,58.6,156.9,58.5c-0.1,0-0.1,0-0.1,0C156.8,58.5,156.8,58.5,156.9,58.5 M162.6,55.9
	C162.6,55.9,162.7,55.9,162.6,55.9c0.1,0,0.1,0,0.1-0.1l0.1,0.1C162.7,55.9,162.7,56,162.6,55.9L162.6,55.9z M162,56.3
	c0-0.1,0.1-0.1,0.1-0.2C162.2,56.1,162.1,56.2,162,56.3c0,0.2,0,0.2-0.1,0.2C162,56.4,162,56.4,162,56.3 M155.3,44.6
	c-0.1,0.2-0.2,0.4-0.3,0.6c-0.2,0.5-0.5,1-0.6,1.5c-0.2,0.5-0.4,1-0.6,1.5l-0.2,0.6c0,0.1-0.1,0.1-0.1,0.1c-0.3,0.8-0.6,1.5-0.9,2.3
	c-0.3,0.8-0.7,1.5-1,2.3c-0.2,0.6-0.5,1.1-0.7,1.7c-0.2,0.6-0.5,1.1-0.7,1.7c-0.2,0.4-0.3,0.8-0.4,1.2l-0.1,0.1c0,0,0,0.1,0,0.1
	c0,0,0,0,0,0l0,0.2l-0.1,0.2l0,0.1c0,0.2,0,0.3,0.1,0.4c0.1,0,0.1,0.1,0.2,0.1c0.1,0,0.2,0,0.3,0.1l0,0.1c0.1,0,0.1,0,0.1,0
	c0,0,0,0,0.1,0l0.1,0c0.1,0,0.2,0,0.2,0c0.1,0,0.1,0,0.2,0c0,0,0.1,0,0.1-0.1c0,0,0-0.1,0.1-0.1l0.3-0.2c0.5-0.8,1.1-1.5,1.7-2.1
	c0.7-0.6,1.3-1.3,1.9-1.9c0-0.1,0.1-0.1,0.1-0.2c0.1,0,0.1-0.1,0.1-0.1c0.1,0,0.1-0.1,0.2-0.1c0.1-0.1,0.2-0.2,0.2-0.3
	c0.1-0.1,0.2-0.1,0.3-0.2c-0.1,0.5-0.2,1.1-0.2,1.7c0,0.6,0,1.1,0.1,1.5c0.1,0,0.1,0.1,0.1,0.2c0.1,0.1,0.2,0.2,0.2,0.3
	c0.1,0.1,0.1,0.2,0.2,0.3c0-0.1,0-0.1,0.1,0c0,0,0,0.1,0,0.1c0,0-0.1,0-0.1,0c0.2,0.1,0.3,0.2,0.5,0.3c0.2,0.1,0.4,0.1,0.6,0.2
	c0.1,0,0.2,0,0.2,0c0,0,0.1,0,0.1,0c0,0,0,0,0,0c0.1,0,0.2,0,0.4,0s0.4-0.1,0.5-0.1c0.2-0.1,0.4-0.1,0.5-0.2
	c0.2-0.1,0.3-0.1,0.3-0.2c0,0,0,0,0,0c0,0,0,0-0.1,0c0,0,0.1-0.1,0.1-0.1s0.1,0,0.1,0c0,0,0,0.1,0,0.1c0,0,0,0,0,0
	c0.1,0,0.2,0,0.2-0.1c0-0.1,0.1-0.1,0.2-0.1l0,0.1c0.1,0,0.1,0,0.1-0.1c0,0,0,0,0.1-0.1c0-0.1,0.1-0.1,0.1-0.1c0,0,0,0,0,0
	c0,0-0.1,0-0.1,0c0.1,0,0.1-0.1,0.1-0.1c0,0,0.1-0.1,0.2-0.1c0,0,0,0,0,0.1c0,0,0,0,0,0.1l0.1,0c0-0.1,0-0.1,0-0.1c0,0,0,0,0-0.1
	c0,0,0,0,0,0c0,0,0,0,0.1,0l0,0.1l0.1,0c0,0,0.1-0.1,0.1-0.1c0-0.1,0.1-0.1,0.1-0.1c0.1-0.1,0.2-0.1,0.3-0.2
	c0.1-0.1,0.2-0.1,0.3-0.2c0.1-0.1,0.2-0.1,0.3-0.2c0.1-0.1,0.2-0.2,0.3-0.3c0,0,0.1-0.1,0.1-0.2c0-0.1,0.1-0.1,0.1-0.1
	c0.1-0.1,0.2-0.2,0.3-0.3c0.1,0,0.1-0.1,0.1-0.1s0.1-0.1,0.1-0.1c0,0,0.1-0.1,0.3-0.3c0.1,0,0.1-0.1,0.2-0.1c0,0,0.1-0.1,0.1-0.1
	c0,0,0.1-0.1,0.1-0.1c0,0,0.1-0.1,0.1-0.2c0,0,0.1-0.1,0.1-0.2c0.1-0.1,0.1-0.1,0.1-0.2l0-0.1c0-0.1,0.1-0.1,0.1-0.2
	c0-0.1,0.1-0.1,0.1-0.2l0,0c0-0.1-0.2-0.2-0.4-0.1c0-0.1-0.1-0.2,0-0.1c0,0,0,0.1,0,0.1l-0.1,0c0,0,0,0.1,0,0.1c0,0,0,0,0,0.1
	c0,0,0,0-0.1,0c0,0,0,0-0.1,0l0,0l0,0c0,0,0,0,0,0c0,0,0,0,0,0c-0.1,0.1-0.1,0.2-0.2,0.2c-0.1,0-0.2,0-0.3,0.1c0,0.1,0,0.1-0.1,0.2
	c-0.1,0-0.2,0.1-0.2,0.1c-0.1,0-0.2,0-0.2,0.1c0,0-0.1,0.1-0.1,0.1l0,0.1l0,0c-0.1,0.1-0.1,0.1-0.1,0.2c0,0,0,0.1,0,0.1
	c0,0,0,0,0.1-0.1c0,0.1-0.1,0.1-0.1,0.1c0,0,0,0,0,0c-0.2,0.2-0.4,0.3-0.5,0.4c-0.1,0.1-0.2,0.2-0.3,0.2c-0.1,0.1-0.1,0.1-0.2,0.1
	c0,0-0.1,0.1-0.1,0.1c-0.1,0-0.1,0.1-0.2,0.1c-0.1,0.1-0.1,0.1-0.2,0.1c0,0-0.1,0-0.1,0c0,0-0.1,0-0.1,0c0,0-0.1,0-0.1,0
	c0,0,0,0-0.1,0.1l-0.2,0.2c-0.2,0.2-0.5,0.3-0.9,0.6c-0.4,0.2-0.7,0.4-1,0.4c-0.1,0-0.1,0-0.2,0c-0.1,0-0.1,0-0.2,0
	c-0.1,0-0.1,0-0.2,0c-0.1,0-0.1,0-0.1,0c-0.1,0-0.1-0.1-0.2-0.3c-0.1-0.2-0.1-0.3-0.1-0.4c-0.1-0.3-0.1-0.5-0.1-0.7
	c0-0.2,0-0.5,0-0.9l0-0.4c0-0.1,0-0.1,0-0.1c0,0,0-0.1,0.1-0.1c0,0,0-0.1,0.1-0.1c0,0,0-0.1,0,0c0.1-0.1,0.1-0.2,0.1-0.4
	c0-0.2,0-0.4,0.1-0.5c0-0.2,0-0.3,0-0.4c0-0.1,0-0.1,0-0.2c0-0.1-0.1-0.1-0.1-0.1c0,0-0.1,0-0.2,0c0,0,0-0.1,0-0.1
	c-0.1,0-0.2,0-0.2,0c-0.1,0-0.1,0-0.2-0.1c-0.1,0-0.1-0.1-0.2-0.1c-0.1,0-0.1,0-0.2,0c-0.1,0-0.2,0.1-0.3,0.1
	c-0.1,0.1-0.2,0.1-0.3,0.2l-0.1,0c0,0,0,0-0.1,0.1c0,0-0.1,0.1-0.1,0.1c-0.2,0.2-0.5,0.4-0.7,0.5c-0.2,0.2-0.5,0.3-0.7,0.5
	c-0.2,0.2-0.4,0.4-0.6,0.6c-0.2,0.2-0.4,0.4-0.7,0.6l-0.2,0.2l-0.1,0.2c-0.2,0.2-0.5,0.4-0.7,0.7c-0.2,0.2-0.4,0.4-0.6,0.7l0.1-0.2
	l0-0.1c0-0.1,0-0.2,0.1-0.2c0-0.1,0.1-0.1,0.1-0.2l0.5-1.2c0.1-0.3,0.3-0.6,0.4-0.8c0.1-0.3,0.2-0.6,0.3-0.9c0,0,0,0,0,0
	c0,0,0,0,0,0l0.1-0.2l0.1-0.2l0.2-0.4l1-2.5c0,0,0-0.1,0-0.1c0,0,0,0,0-0.1l0.1-0.2c0-0.1,0.1-0.2,0.1-0.3c0-0.1,0.1-0.2,0.1-0.3
	c0-0.1,0-0.2,0.1-0.2c0-0.1,0.1-0.1,0.1-0.2c0-0.1,0-0.1,0-0.2c0-0.1,0.1-0.2,0.2-0.2c0-0.2,0.1-0.4,0.2-0.7
	c0.1-0.2,0.2-0.4,0.3-0.6c0,0,0-0.1,0-0.1c0,0,0-0.1,0.1-0.1c0,0,0.1,0,0.1,0c0,0,0,0,0.1,0l0-0.2l0.2-0.3c0.1-0.1,0.1-0.3,0.2-0.4
	c0.1-0.1,0.1-0.2,0.2-0.4c0,0,0-0.1,0.1-0.1c0,0,0,0,0.1-0.1c0,0,0-0.1,0-0.1c0,0,0-0.1,0.1-0.1c0-0.2,0-0.3,0-0.4
	c0-0.1-0.1-0.2-0.2-0.3c0,0-0.1-0.1-0.1-0.1c-0.1,0-0.1,0-0.1-0.1l-0.1-0.1l-0.1,0c-0.1,0-0.1,0-0.1-0.1c0,0-0.1-0.1-0.1-0.1
	c0,0-0.1,0-0.1,0c0,0-0.1,0-0.1,0c0,0-0.1,0-0.1,0c0,0,0,0-0.1,0c-0.1,0-0.1,0-0.1,0c0,0,0,0,0,0C155.4,44.2,155.3,44.4,155.3,44.6
	 M143.5,54.1L143.5,54.1c-0.1,0.1-0.1,0.1-0.1,0.2c0,0.1-0.1,0.1-0.1,0.2c-0.5,0.6-0.9,1.2-1.4,1.7c-0.5,0.6-1,1.1-1.5,1.6
	c-0.1,0.1-0.2,0.2-0.4,0.3c-0.2,0.1-0.3,0.2-0.5,0.3c0-0.2,0-0.4,0.1-0.5c0.1-0.1,0.1-0.3,0.2-0.5c0,0,0,0,0,0c0,0,0,0,0.1,0
	c0-0.1,0.1-0.3,0.1-0.3c0.1-0.1,0.1-0.2,0.1-0.2c0.1-0.3,0.3-0.6,0.5-0.9c0.2-0.3,0.4-0.6,0.6-0.9l0.4-0.4c0.1-0.1,0.1-0.1,0.1-0.2
	s0.1-0.1,0.1-0.2c0,0,0.1-0.1,0.1-0.1c0.1,0,0.1-0.1,0.1-0.1l0.4-0.5c0.3-0.1,0.4-0.1,0.5,0c0.1,0.2,0.2,0.4,0.2,0.6
	C143.4,54,143.5,54.1,143.5,54.1 M151.1,55.8c0-0.1,0.1-0.1,0.1-0.1c0-0.1,0.1-0.2,0.1-0.2c0.1,0,0.1-0.1,0.1-0.2c0,0,0.1,0,0.1,0
	c0-0.1,0.1-0.2,0.1-0.2c0,0,0-0.1,0.1-0.2c0,0,0.1-0.1,0.1-0.1c0,0,0.1-0.1,0.1-0.1c0,0.1,0,0.1,0,0.1c0,0,0-0.1,0.1-0.1
	c0,0,0-0.1,0.1-0.1c0,0,0-0.1,0-0.1l0,0.1c0,0,0,0,0-0.1c0,0,0,0,0-0.1c0,0-0.1,0-0.1,0c-0.1,0-0.1,0-0.1,0c0-0.1-0.2,0-0.4,0.2
	c-0.2,0.2-0.5,0.4-0.8,0.7c-0.3,0.3-0.5,0.5-0.8,0.7c-0.3,0.2-0.4,0.4-0.5,0.4l0,0c0,0,0,0-0.1,0c-0.1,0.1-0.3,0.3-0.4,0.4
	c-0.1,0.1-0.3,0.2-0.4,0.3c-0.4,0.2-0.9,0.5-1.3,0.8c-0.4,0.3-0.9,0.4-1.6,0.5c-0.1-0.4-0.1-0.8,0-1.3c0.1-0.5,0.2-1,0.3-1.4
	c0.1-0.3,0.3-0.6,0.4-1c0.1-0.4,0.1-0.7,0.1-1.1c0-0.1,0-0.1-0.1-0.1c0,0,0-0.1-0.1-0.1c-0.1,0-0.1,0-0.1,0c0,0-0.1,0-0.1,0
	c-0.1-0.1-0.3-0.2-0.5-0.3c-0.2-0.1-0.3-0.1-0.5-0.1c0,0-0.1,0-0.1,0.1c0,0.1-0.1,0.1-0.1,0.1c-0.1,0-0.2,0.1-0.3,0.2
	c-0.1,0.1-0.2,0.2-0.3,0.3c-0.1-0.3-0.3-0.6-0.6-0.7c-0.3-0.1-0.6-0.2-1-0.2c-0.1-0.1-0.2-0.1-0.3-0.1c-0.1,0.1-0.2,0.1-0.3,0.1
	c-0.1,0.1-0.3,0.1-0.4,0.2c-0.1,0.1-0.2,0.2-0.3,0.2c-0.3,0.4-0.7,0.7-1,1.1c-0.3,0.4-0.6,0.8-0.9,1.2c-0.2,0.3-0.3,0.5-0.5,0.8
	c-0.2,0.3-0.3,0.6-0.4,1c-0.1,0.1-0.1,0.3-0.2,0.5c0,0.2,0,0.4,0,0.5c0,0.3,0.1,0.4,0.1,0.6c0,0.1,0.2,0.2,0.4,0.3
	c0.1,0.1,0.2,0.1,0.2,0.2c0,0.1,0.1,0.1,0.3,0.1c0.2,0.2,0.4,0.2,0.6,0.2c0.2,0,0.4-0.1,0.6-0.2c0.2-0.1,0.4-0.2,0.5-0.4
	c0.2-0.1,0.3-0.3,0.5-0.4c0,0,0-0.1,0-0.1c0,0,0,0,0,0c0.3-0.3,0.5-0.6,0.8-1c0.1-0.1,0.2-0.2,0.3-0.3c0.1-0.1,0.2-0.3,0.3-0.4
	c0.2-0.3,0.5-0.5,0.7-0.8c0.2-0.3,0.5-0.5,0.7-0.7c-0.1,0.3-0.1,0.7-0.2,1c0,0.3-0.1,0.7,0,1c0,0.3,0.1,0.6,0.2,0.8
	c0.1,0.2,0.2,0.4,0.5,0.5c0,0.1,0.1,0.2,0.2,0.2c0.1,0,0.2,0.1,0.3,0.1c0.1,0,0.2,0.1,0.2,0.2c0.1,0.1,0.3,0,0.5-0.1
	c0.2-0.1,0.4-0.1,0.5-0.1c0.1,0,0.2,0,0.2,0c0.1,0,0.2,0,0.4-0.1c0.2,0,0.3-0.1,0.5-0.2c0.2-0.1,0.3-0.2,0.5-0.4
	c0.2,0,0.3-0.1,0.3-0.2c0,0,0.1,0,0.1,0c0.1-0.1,0.2-0.2,0.2-0.2c0.1,0,0.1-0.1,0.2-0.2c0.1,0,0.1-0.1,0.2-0.1
	c0-0.1,0.1-0.1,0.2-0.2c0.1,0,0.1,0,0.1,0c0-0.1,0.1-0.1,0.1-0.1l0,0l0.1,0c0.1-0.1,0.3-0.3,0.4-0.4c0.1-0.1,0.3-0.2,0.4-0.4
	c0,0,0,0.1,0,0.1c0.1-0.1,0.1-0.2,0.2-0.3c0.1-0.1,0.2-0.1,0.2-0.1L151.1,55.8z M127.4,67.4C127.4,67.4,127.4,67.4,127.4,67.4
	L127.4,67.4z M121.3,71L121.3,71L121.3,71L121.3,71z M127.8,66.9c0-0.1,0.1-0.1,0.1-0.1L127.8,66.9z M122.3,66.5l0.1-0.2l0,0.1
	L122.3,66.5z M130.6,59.4C130.6,59.4,130.6,59.4,130.6,59.4c0-0.1,0-0.1,0.1-0.1L130.6,59.4z M137.2,56.5c0-0.1,0.1-0.1,0.1-0.1
	C137.3,56.4,137.3,56.5,137.2,56.5 M137.6,57C137.6,57,137.6,57,137.6,57C137.6,56.9,137.6,56.9,137.6,57
	C137.7,56.9,137.7,57,137.6,57 M124.9,70.8c0,0-0.1,0-0.1,0C124.8,70.9,124.8,70.8,124.9,70.8C124.9,70.8,124.9,70.8,124.9,70.8
	C124.9,70.8,124.9,70.9,124.9,70.8 M127.2,67.7l-0.1,0C127.1,67.7,127.1,67.6,127.2,67.7c0-0.1,0-0.1,0-0.1
	C127.2,67.6,127.2,67.6,127.2,67.7 M128.4,65.8C128.4,65.8,128.3,65.9,128.4,65.8C128.3,65.9,128.3,65.8,128.4,65.8
	C128.4,65.7,128.4,65.7,128.4,65.8C128.4,65.7,128.4,65.8,128.4,65.8 M122.4,66.1c0,0.1-0.1,0.1-0.1,0.2L122.4,66.1
	C122.5,66,122.5,66,122.4,66.1 M137.4,56.9c0,0-0.1,0-0.1,0.1l0-0.1l0.2-0.1C137.5,56.8,137.4,56.9,137.4,56.9 M126.2,63.2
	c-0.1,0-0.1,0.1-0.2,0.1C126.1,63.3,126.1,63.2,126.2,63.2c0-0.1,0-0.1,0.1-0.1C126.3,63.1,126.3,63.2,126.2,63.2 M129.7,64.8
	c0,0.1-0.1,0.1-0.1,0.2C129.6,64.9,129.6,64.9,129.7,64.8c0-0.1,0.1-0.2,0.1-0.2C129.8,64.7,129.8,64.7,129.7,64.8 M125.3,63.4
	c0,0.1-0.1,0.1-0.2,0.1C125.1,63.4,125.2,63.3,125.3,63.4c0-0.1,0-0.1,0.1-0.2C125.4,63.2,125.3,63.3,125.3,63.4 M125.6,69.5
	c-0.1,0.1-0.2,0.1-0.3,0.2c0-0.1,0.1-0.1,0.1-0.2C125.5,69.5,125.6,69.5,125.6,69.5c0.1-0.1,0.1-0.2,0.1-0.2c0,0,0.1-0.1,0.1,0
	C125.8,69.3,125.7,69.4,125.6,69.5 M127.5,67.4c0,0.1-0.1,0.3-0.2,0.4c-0.1,0.1-0.2,0.2-0.3,0.3L127.5,67.4z M128,66.6
	C128,66.6,127.9,66.7,128,66.6c-0.1,0.1-0.1,0.1-0.1,0.1c0,0,0,0-0.1,0c0-0.1,0.1-0.2,0.2-0.3c0.1-0.1,0.2-0.2,0.2-0.3c0,0,0,0,0,0
	c0,0,0,0,0-0.1c0.1,0.1,0.1,0.1,0,0.2c-0.1,0.1-0.2,0.1-0.2,0.2C128,66.5,128,66.5,128,66.6C128.1,66.5,128.1,66.5,128,66.6
	L128,66.6C128,66.5,128,66.6,128,66.6 M131.2,63.1c-0.1,0.2-0.2,0.5-0.3,0.7C130.9,63.6,131,63.4,131.2,63.1c0-0.1,0.1-0.3,0.2-0.5
	c0-0.1,0-0.2,0.2-0.2C131.4,62.6,131.3,62.8,131.2,63.1 M126.6,62.9c0.2-0.2,0.5-0.4,0.7-0.6c0.2-0.2,0.5-0.4,0.8-0.6
	c0,0.1-0.1,0.1-0.1,0.1c-0.1,0-0.1,0.1,0,0.1c-0.1,0-0.2,0.1-0.2,0.2s-0.1,0.1-0.2,0.1L126.6,62.9z M131.1,63.8
	c0.1-0.1,0.3-0.3,0.4-0.6c0.1-0.2,0.2-0.5,0.3-0.7c-0.1,0.1-0.1,0.2-0.2,0.3c-0.1,0.1-0.1,0.2-0.1,0.3c-0.1,0.1-0.1,0.1-0.1,0.2
	c0,0.1-0.1,0.2-0.1,0.2C131.2,63.6,131.1,63.7,131.1,63.8 M136.7,57.2c-0.3,0.1-0.6,0.2-0.9,0.4c-0.3,0.1-0.6,0.2-0.9,0.4
	c-0.3,0.1-0.4,0.2-0.5,0.2c0-0.1,0.1-0.1,0.2-0.2s0.2-0.1,0.2-0.1l1.1-0.4C136.3,57.3,136.6,57.2,136.7,57.2
	c0.3-0.1,0.4-0.2,0.5-0.2c0,0,0,0,0-0.1c0,0,0,0,0,0c0,0,0,0.1,0,0.1c0,0-0.1,0-0.1,0C137.2,57,137,57,136.7,57.2 M126,69.9
	C126,69.9,126,69.9,126,69.9c0,0,0,0.1-0.1,0.2l0,0c-0.1,0.1-0.2,0.1-0.3,0.2c0,0,0.1-0.1,0.1-0.1c0.1,0,0.1-0.1,0.1-0.2
	c0.1,0,0.1-0.1,0.2-0.2c0.2-0.2,0.5-0.4,0.7-0.7c0.2-0.3,0.4-0.5,0.6-0.7c0,0.1,0,0.2-0.1,0.2c-0.1,0-0.1,0.1-0.1,0.2c0,0,0,0,0,0
	c-0.1,0.1-0.2,0.2-0.3,0.3c-0.1,0.1-0.2,0.2-0.3,0.3c0,0-0.1,0.1-0.1,0.1c0,0-0.1,0.1-0.1,0.1c0,0-0.1,0-0.1,0s-0.1,0-0.1,0
	c0,0.1,0,0.1,0,0.1C126.1,69.8,126,69.8,126,69.9C126,69.8,126,69.9,126,69.9C126,69.9,126,69.9,126,69.9 M127.1,67.8
	c0.1-0.1,0.1-0.2,0.2-0.3c0,0-0.1,0-0.1,0c0,0-0.1,0-0.1,0c0.1-0.1,0.2-0.2,0.3-0.3c0.1-0.1,0.2-0.2,0.2-0.4c0,0,0,0,0,0
	c0,0,0,0,0.1,0c0,0,0,0,0,0c0,0,0,0,0,0l0,0l0,0c0,0-0.1,0.1-0.1,0.1c0,0-0.1,0.1-0.1,0.2c-0.1,0-0.1,0.1-0.1,0.2c0,0,0,0,0-0.1
	l-0.1,0.1c0,0,0,0,0,0c0,0,0,0,0,0l0,0l0,0l0,0c0,0.2-0.1,0.3-0.3,0.4c-0.1,0.1-0.3,0.3-0.3,0.4c0,0,0,0,0-0.1c0,0,0,0,0-0.1
	c-0.2,0.1-0.3,0.3-0.4,0.5c-0.1,0.2-0.3,0.3-0.5,0.5c0-0.1,0-0.2,0.1-0.2c0.1,0,0.1-0.1,0.1-0.2c0.1,0,0.1-0.1,0.2-0.1
	c0.1-0.1,0.1-0.1,0.1-0.2l0.1,0c0.1-0.1,0.2-0.3,0.2-0.3c0.1-0.1,0.1-0.2,0.2-0.3C127,68,127.1,67.9,127.1,67.8 M128.6,61.3
	c-0.2,0.1-0.3,0.2-0.5,0.3c0,0,0,0,0-0.1c0,0,0.1,0,0.1,0c0,0,0,0,0.1,0c0,0,0,0,0-0.1c0.3-0.3,0.6-0.5,1-0.7c0.3-0.2,0.7-0.4,1-0.7
	c0,0,0.1,0,0.1,0c0-0.1,0.1-0.1,0.1-0.1c0,0.1,0,0.1,0,0.1c0,0,0,0.1-0.1,0.1l-0.1,0c-0.2,0.2-0.4,0.3-0.6,0.5
	c-0.2,0.2-0.4,0.3-0.6,0.4l0,0.1C128.9,61.1,128.8,61.2,128.6,61.3 M136.9,57.2c-0.3,0.1-0.7,0.3-1.1,0.4c-0.4,0.2-0.8,0.3-1.1,0.4
	c-0.4,0.1-0.6,0.2-0.7,0.3c0.1-0.1,0.3-0.2,0.6-0.3c0.3-0.1,0.7-0.3,1.1-0.4C136.1,57.4,136.5,57.3,136.9,57.2
	c0.3-0.2,0.5-0.3,0.6-0.3C137.4,57,137.2,57.1,136.9,57.2 M123.5,70.3c-0.2,0.1-0.4,0.2-0.6,0.2c0,0-0.1,0-0.1,0
	c-0.1-0.2-0.1-0.3,0-0.4c0-0.1,0.1-0.3,0.2-0.4c0.1-0.1,0.1-0.3,0.2-0.4c0.1-0.1,0.1-0.3,0.1-0.4c0.1-0.2,0.1-0.4,0.2-0.6
	s0.1-0.4,0.2-0.5c0.1-0.3,0.2-0.5,0.3-0.7c0.1-0.2,0.2-0.4,0.3-0.6c0.1-0.2,0.1-0.3,0.3-0.5c0.1-0.2,0.3-0.3,0.4-0.5
	c0.2-0.3,0.5-0.6,0.8-0.9c0.3-0.3,0.5-0.6,0.8-0.9c0.1,0,0.1-0.1,0.2-0.1c0.1,0,0.1-0.1,0.2-0.2c-0.2,0.1-0.3,0.1-0.4,0.2
	c-0.1,0.1-0.2,0.2-0.3,0.3c-0.2,0.2-0.4,0.4-0.6,0.7c-0.2,0.2-0.4,0.5-0.6,0.7c-0.2,0.2-0.3,0.4-0.4,0.6c-0.1,0-0.1,0.1-0.1,0.1
	c0,0.1-0.1,0.1-0.2,0.1c0.1-0.3,0.3-0.5,0.5-0.7c0.2-0.2,0.3-0.4,0.4-0.7c0.3-0.3,0.5-0.5,0.8-0.8c0.2-0.3,0.5-0.5,0.7-0.8
	c0.1-0.1,0.3-0.2,0.4-0.3c0.1-0.1,0.2-0.2,0.3-0.4c0.2-0.1,0.3-0.2,0.4-0.3c0.1-0.1,0.3-0.2,0.4-0.3c0,0,0,0,0,0c0,0,0-0.1,0-0.1
	c0.1-0.1,0.2-0.1,0.3-0.2c0.1-0.1,0.2-0.2,0.3-0.2c0,0,0,0,0.1,0c0.1-0.1,0.2-0.2,0.3-0.2c0.1-0.1,0.2-0.1,0.3-0.2
	c0.1-0.1,0.2-0.2,0.3-0.2c0.1,0,0.3-0.1,0.3-0.3c0,0,0,0,0,0c0,0,0,0,0,0c0,0,0-0.1,0-0.1c0,0,0,0,0,0c0,0,0.1,0,0.1-0.1
	c0-0.1,0.1-0.1,0.2-0.1c0,0.1-0.1,0.1-0.1,0.2c0,0.1,0,0.1-0.1,0.2c-0.1,0-0.1,0-0.1,0.1c0,0-0.1,0-0.2,0c0,0,0.1,0.1,0.2,0
	c-0.2,0.6-0.5,1.2-0.7,1.7c-0.3,0.5-0.5,1.1-0.7,1.7c-0.1,0.1-0.3,0.3-0.3,0.5s-0.2,0.4-0.4,0.5c0,0.1-0.1,0.3-0.1,0.3
	c-0.1,0.1-0.1,0.2-0.1,0.3c-0.1,0-0.1,0.1-0.1,0.1c0,0-0.1,0.1-0.1,0.1c-0.2,0.3-0.4,0.6-0.6,0.9c-0.2,0.3-0.4,0.6-0.7,0.9
	c0,0.1-0.1,0.2-0.1,0.2c0,0.1-0.1,0.1-0.1,0.2c-0.1,0.1-0.2,0.2-0.3,0.3s-0.2,0.2-0.3,0.3c0,0-0.1,0.1-0.1,0.1
	c-0.1,0-0.1,0.1-0.2,0.1c-0.1,0.1-0.2,0.2-0.3,0.3c-0.1,0.1-0.2,0.2-0.3,0.3c0,0-0.1,0.1-0.2,0.1c-0.1,0-0.1,0.1-0.1,0.2l-0.1,0
	c0,0,0,0,0,0c0,0,0,0,0,0c0,0,0,0,0,0C123.9,70.1,123.7,70.2,123.5,70.3 M121.3,71c0.1,0.1,0.3,0.1,0.4,0.2c0.1,0.1,0.3,0.1,0.5,0.1
	c0,0,0,0,0,0.1c0.2,0,0.3,0.1,0.4,0.1c0.1,0,0.2,0,0.3,0c0.2,0.1,0.4,0.1,0.6,0c0.2-0.1,0.4-0.2,0.6-0.2c0.1,0,0.2,0,0.3,0
	c0.1,0,0.2,0,0.3-0.1c0,0,0,0.1,0,0.1c0,0,0,0,0,0c0,0,0.1-0.1,0.1-0.1c0.1,0,0.1,0,0.1,0.1c0.2-0.1,0.4-0.2,0.6-0.4
	c0.2-0.2,0.4-0.3,0.6-0.3c0.2-0.1,0.4-0.3,0.6-0.4c0.2-0.2,0.4-0.3,0.5-0.5c0.1,0,0.2,0,0.2-0.1c0-0.1,0.1-0.2,0.1-0.2
	c0.2-0.1,0.3-0.2,0.4-0.4c0.1-0.1,0.3-0.3,0.4-0.4c0,0,0-0.1,0-0.1c0,0,0,0,0-0.1c0,0,0.1,0,0.1,0c0,0,0,0,0.1-0.1
	c0.1-0.2,0.2-0.3,0.3-0.5c0.2-0.1,0.3-0.3,0.3-0.5c0.1-0.1,0.1-0.2,0.2-0.2c0.1-0.1,0.1-0.2,0.1-0.3c0,0,0.1,0,0.1,0
	c0.2-0.3,0.3-0.5,0.4-0.8c0.1-0.3,0.3-0.5,0.5-0.8c0.1-0.2,0.2-0.4,0.3-0.6c0.1-0.2,0.2-0.4,0.3-0.6c0,0,0,0,0,0s0,0,0,0
	c0,0.1-0.1,0.2-0.1,0.2c-0.1,0.1-0.1,0.2-0.1,0.3c-0.2,0.1-0.3,0.3-0.3,0.4c-0.1,0.2-0.1,0.3-0.3,0.4l0.1,0.1
	c-0.1,0-0.1,0.1-0.1,0.1c0,0,0,0.1-0.1,0.1c0,0,0,0.1-0.1,0.1c0,0,0,0,0,0.1c-0.1,0.2-0.3,0.4-0.4,0.6c-0.1,0.2-0.3,0.4-0.4,0.6
	c0,0,0,0.1,0,0.2c-0.2,0.3-0.5,0.5-0.7,0.8s-0.4,0.6-0.7,0.8c0.1-0.1,0.1-0.2,0.2-0.3c0.1-0.1,0.1-0.2,0.2-0.3c0,0,0-0.1,0-0.1
	c0.1-0.1,0.2-0.2,0.3-0.3s0.2-0.2,0.2-0.4c0.2-0.3,0.4-0.6,0.6-0.9c0,0,0.1-0.1,0.1-0.2c0,0,0-0.1,0-0.1c0,0,0,0,0.1-0.1
	c0.1-0.1,0.1-0.2,0.2-0.3c0.1-0.1,0.1-0.3,0.1-0.4c0.1,0,0.2-0.1,0.2-0.1c0.1-0.1,0.1-0.2,0.1-0.3c0-0.1,0.1-0.2,0.2-0.3
	c0-0.2,0.1-0.3,0.2-0.4c0.1-0.1,0.2-0.3,0.2-0.4c0.2-0.2,0.3-0.4,0.4-0.7c0.1-0.3,0.2-0.5,0.3-0.7c0.1,0,0.1-0.1,0.1-0.1
	c0,0,0.1,0,0.1-0.1c0,0-0.1,0,0,0c0,0,0,0,0-0.1c0.1-0.1,0.2-0.2,0.2-0.3c0-0.1,0.1-0.2,0.2-0.3c0.1-0.2,0.2-0.5,0.3-0.7
	c0.1-0.2,0.2-0.5,0.2-0.8c0.1-0.1,0.2-0.3,0.2-0.5c0-0.2,0.1-0.3,0.1-0.5c0.1-0.1,0.3-0.2,0.4-0.2c0.2-0.1,0.3-0.1,0.4-0.2
	c-0.1,0-0.1-0.1-0.1-0.1c0,0,0.1,0,0.1,0c0,0,0,0,0,0c0,0,0-0.1,0,0c0,0,0,0,0,0c0,0,0,0,0.1-0.1c0,0,0,0,0.1-0.1
	c-0.1,0-0.1,0-0.1,0s-0.1,0-0.1,0c0.1-0.1,0.4-0.2,0.7-0.3c0.4-0.2,0.7-0.3,1.2-0.5c0.4-0.2,0.8-0.3,1.2-0.4
	c0.4-0.1,0.6-0.2,0.8-0.3c0,0,0,0,0,0c0,0,0,0,0,0.1c0,0,0.1-0.1,0.1-0.1c0,0,0.1-0.1,0.1-0.1c0,0,0,0,0,0.1c0,0,0,0,0.1,0
	c0.1-0.1,0.2-0.1,0.2-0.2c0.1-0.1,0.2-0.1,0.3-0.2c-0.1,0-0.1,0-0.2,0c0,0-0.1,0-0.1,0c0.2-0.1,0.4-0.2,0.5-0.3
	c0.2,0,0.4-0.2,0.6-0.3c-0.1,0-0.1,0-0.1-0.1c0,0,0.1,0,0.1,0c0.1,0,0.1,0,0.1,0c-0.1,0-0.1,0-0.2,0c0,0,0,0,0,0c0,0,0,0,0,0
	c-0.3,0-0.5,0-0.8,0c-0.3,0-0.5,0.1-0.6,0.2c-0.1,0.1-0.2,0.1-0.3,0c-0.1-0.1-0.2-0.1-0.2,0c0-0.1,0-0.1-0.1-0.1
	c-0.1,0-0.3,0.1-0.6,0.2c-0.3,0.1-0.7,0.2-1,0.4c-0.4,0.1-0.7,0.3-1,0.4c-0.3,0.1-0.5,0.2-0.6,0.2c0,0,0-0.1,0-0.1c0,0,0,0,0-0.1
	c-0.1,0-0.1,0-0.2,0c0.1-0.4,0.2-0.8,0.3-1.2c0.1-0.4,0.2-0.8,0.2-1.2c0,0.1,0,0.1-0.1,0.2c0,0,0,0.1,0,0.2
	c-0.1,0.1-0.1,0.2-0.1,0.4c0,0.2,0,0.3-0.1,0.4c0-0.3,0.1-0.6,0.1-0.9c0-0.3,0.1-0.6,0.2-0.9c0,0,0-0.1,0-0.1c0-0.1,0-0.1,0.1-0.1
	c0-0.2,0.1-0.4,0.1-0.6c0-0.2,0-0.4,0.1-0.5c0,0,0-0.1,0-0.1c0,0,0,0,0-0.1c0,0,0-0.1,0-0.1c0-0.1,0-0.1,0-0.1
	c0.1-0.2,0.1-0.4,0.1-0.7c0-0.2,0-0.4,0.1-0.7c0.1-0.1,0.1-0.3,0.2-0.4c0.1-0.1,0.1-0.3,0-0.5c0.1-0.3,0.2-0.7,0.3-1.1
	c0.1-0.4,0.1-0.8,0.1-1.2c0-0.1,0-0.2,0-0.3c0-0.1,0-0.2,0.1-0.4c0-0.1,0-0.2-0.1-0.3c0-0.1,0-0.2,0-0.3c0-0.2,0-0.4,0-0.6
	c0-0.2,0-0.4,0-0.6c0,0,0-0.1,0-0.1c0,0,0-0.1,0-0.1l0.1-0.3c0-0.3,0-0.5,0-0.7c0-0.2,0-0.4-0.1-0.6c-0.1-0.1-0.2-0.2-0.3-0.2
	c-0.1-0.1-0.2-0.1-0.3-0.1c-0.1,0-0.3,0-0.4,0c-0.1,0-0.3,0-0.4,0.1c0,0-0.1,0-0.1-0.1c0,0-0.1,0-0.1,0c-0.1,0-0.1,0.1,0,0.2
	c-0.1,0-0.1,0-0.1,0c0,0,0,0,0,0c0.2,0.3,0.2,0.6,0.1,1c-0.1,0.3-0.1,0.7-0.1,1c0,0.1,0,0.2,0,0.2s0,0.2,0,0.2
	c-0.1,0.3-0.1,0.7-0.1,1.1c0,0.4-0.1,0.7-0.1,1.1c-0.2,1.6-0.4,3.2-0.8,4.7c-0.4,1.5-0.7,3-1.1,4.5l-0.1,0c-0.1,0.3-0.2,0.6-0.3,0.9
	c-0.1,0.3-0.2,0.6-0.3,0.9c-0.1,0.1-0.3,0.2-0.4,0.2c0,0,0,0,0.1,0c0.1,0,0.1,0,0.1,0l0.1-0.1c0,0.1-0.1,0.2,0,0.2
	c0,0,0,0.1-0.1,0.1c0,0,0,0,0,0.1c0,0-0.1,0-0.1,0c0,0,0,0,0.1,0c0,0,0,0,0,0c0,0.1-0.1,0.2-0.1,0.2c-0.1,0-0.1,0.1-0.2,0.1
	c0,0,0-0.1,0.1-0.1c0,0,0,0,0-0.1c-0.1,0-0.1,0.1-0.2,0.2c0,0.1-0.1,0.1-0.1,0.2c0,0,0.1,0,0.1,0c0,0,0-0.1,0.1-0.1
	c-0.1,0.1-0.2,0.2-0.3,0.3c-0.1,0.1-0.2,0.1-0.3,0.2c-0.1,0.1-0.2,0.2-0.3,0.3c-0.1,0.1-0.2,0.1-0.3,0.2c-0.3,0.2-0.6,0.4-0.9,0.6
	c-0.1,0.1-0.2,0.2-0.4,0.3c-0.2,0.1-0.3,0.2-0.4,0.3c-0.1,0.1-0.1,0.1-0.1,0.2c-0.1,0.1-0.3,0.2-0.4,0.4c-0.2,0.1-0.3,0.2-0.4,0.3
	c-0.1-0.1-0.1-0.1-0.1-0.1c0,0-0.1,0.1-0.1,0.1s0,0-0.1,0c-0.1,0.1-0.2,0.2-0.3,0.3c-0.1,0.1-0.2,0.2-0.4,0.2
	c0.4-0.4,0.8-0.8,1.3-1.2c0.4-0.4,0.9-0.7,1.4-1c0-0.1,0.1-0.2,0.2-0.3c0.1-0.1,0.2-0.2,0.3-0.3c-0.1,0.1-0.3,0.2-0.5,0.4
	c0,0-0.1,0-0.1,0c0,0,0,0-0.1,0c0,0.1,0,0.1,0,0.1c0,0,0,0-0.1-0.1c0,0,0,0.1,0,0.1c0,0,0,0,0,0.1c-0.1,0-0.1,0.1-0.2,0.1
	c-0.1,0.1-0.1,0.1-0.2,0.1c-0.1,0.2-0.3,0.4-0.5,0.5c-0.2,0.1-0.4,0.3-0.6,0.4c-0.1-0.1-0.1-0.1,0-0.1c0.1,0,0.1-0.1,0.1-0.1
	c-0.1,0.1-0.1,0.1-0.2,0.1c0.1-0.1,0.1-0.2,0.2-0.3c0.1-0.1,0.2-0.1,0.3-0.2c-0.2,0.1-0.3,0.1-0.4,0.2c-0.1,0.1-0.2,0.2-0.4,0.3
	c0,0.1,0,0.1-0.1,0.2c0,0-0.1,0.1-0.1,0.1c0,0.1,0,0.1,0.1,0c0.1-0.1,0.2-0.1,0.2-0.1c0,0,0.1-0.1,0.1-0.1c0,0,0-0.1,0.1-0.1
	c0,0.1,0,0.1,0,0.1c0,0,0,0,0.1,0c-0.1,0.1-0.1,0.1-0.1,0.1c0,0-0.1,0-0.1,0.1c-0.1,0.1-0.3,0.1-0.3,0.2c-0.1,0.1-0.2,0.1-0.2,0.2
	c-0.1,0.2-0.3,0.4-0.5,0.4c0.1-0.1,0.1-0.2,0.2-0.2c0.1-0.1,0.1-0.1,0.2-0.2c0.1,0,0.1-0.1,0.2-0.2c0.1-0.1,0.1-0.2,0.1-0.3
	c-0.1,0.1-0.2,0.2-0.3,0.3c-0.1,0.1-0.2,0.2-0.3,0.2c0,0.1-0.1,0.3-0.2,0.3s-0.2,0.2-0.3,0.3c0,0.1,0,0.1-0.1,0.1
	c-0.1,0-0.1,0-0.1,0c0,0.1-0.1,0.2-0.1,0.2c-0.1,0.1-0.1,0.1-0.2,0.2c-0.1,0.1-0.1,0.3-0.2,0.3c-0.1,0.1-0.2,0.2-0.2,0.3
	c0,0,0,0,0,0c0,0,0,0.1-0.1,0.1c0,0-0.1,0,0,0.1c0,0,0,0,0.1-0.1c0,0,0,0,0,0c0,0.1-0.1,0.1-0.1,0.2c0,0.1-0.1,0.1-0.2,0.1
	c0,0,0,0.1,0,0.1c0,0,0,0-0.1,0c-0.1,0.1-0.1,0.2-0.2,0.3c0,0.1-0.1,0.2-0.2,0.3c0-0.1,0-0.1,0-0.1c0,0,0-0.1,0-0.1
	c0,0,0.1,0,0.1-0.1c0-0.1,0-0.1,0.1-0.2c0,0,0.1-0.1,0.2-0.2c0-0.1,0.1-0.1,0.1-0.2c0-0.1,0.1-0.1,0.1-0.2c0.1-0.1,0.2-0.3,0.4-0.5
	c0.1-0.2,0.3-0.3,0.4-0.5c0-0.1,0-0.1,0-0.2l0.1,0l0-0.1c-0.1,0-0.1,0.1-0.1,0.2c0,0.1-0.1,0.1-0.1,0.1c-0.1,0.2-0.2,0.4-0.4,0.6
	c-0.2,0.1-0.3,0.3-0.4,0.5c0,0,0,0,0,0.1c0,0,0,0.1,0,0.1c-0.1,0.1-0.2,0.3-0.3,0.5c-0.1,0.2-0.2,0.3-0.2,0.5c0,0,0.1-0.1,0.1-0.1
	c0,0,0-0.1,0.1-0.1c0,0,0,0.1,0,0.1c0,0,0,0,0,0.1c0,0,0.1,0,0.1,0c0,0,0,0,0,0c-0.1,0.1-0.1,0.2-0.2,0.3c-0.1,0.1-0.1,0.2-0.2,0.3
	c0-0.1,0.1-0.2,0.1-0.2c0-0.1,0-0.1,0-0.2c0,0.1-0.1,0.2-0.2,0.2c0,0,0,0.1,0,0.1c0,0,0,0,0,0.1c-0.1,0.1-0.2,0.3-0.3,0.5
	c-0.1,0.2-0.2,0.3-0.3,0.5c0,0,0,0,0,0c0,0,0,0.1-0.1,0.1c0,0-0.1,0.1-0.1,0.1c0,0,0.1,0,0.1,0c0,0.1-0.1,0.1-0.1,0.2
	c0,0.1,0,0.1-0.1,0.1c-0.1,0.2-0.2,0.4-0.2,0.6c0,0.2-0.1,0.4-0.2,0.6c0.1-0.4,0.2-0.8,0.3-1.2c0.1-0.4,0.3-0.7,0.5-1.1l0,0l0.1-0.3
	c-0.2,0.3-0.3,0.5-0.4,0.8c-0.1,0.3-0.2,0.6-0.4,0.9c-0.1,0-0.1,0.1-0.1,0.1c0,0,0,0.1-0.1,0.1c0,0,0,0-0.1,0c0,0,0,0,0,0.1
	c0,0,0,0.1,0,0.1c-0.1,0.2-0.2,0.4-0.2,0.6c-0.1,0.2-0.1,0.5-0.1,0.7c-0.1,0-0.1,0-0.1,0c0,0.1,0,0.2,0,0.3c0,0.1,0,0.2-0.1,0.3
	c0.1,0,0.1,0.1,0.1,0.1c0,0,0,0.1,0,0.2c0,0.1,0,0.1,0,0.2c0,0.1,0,0.1,0.1,0.1c0,0,0,0,0,0c0,0,0,0,0-0.1L121.3,71
	C121.3,70.9,121.2,70.9,121.3,71c-0.1-0.1-0.1-0.1-0.1-0.2c0.1,0,0.2,0.1,0.3,0.1c0.1,0,0.1,0.1,0.1,0.1c-0.1,0-0.1,0-0.1-0.1
	C121.4,71,121.3,71,121.3,71 M102,56.2L102,56.2L102,56.2z M113.6,49.1C113.6,49.2,113.6,49.2,113.6,49.1
	C113.6,49.2,113.6,49.2,113.6,49.1C113.7,49.1,113.7,49.1,113.6,49.1C113.6,49.1,113.6,49.1,113.6,49.1 M112.9,43.8
	C112.9,43.8,112.9,43.8,112.9,43.8C112.9,43.8,112.9,43.7,112.9,43.8C112.8,43.7,112.9,43.8,112.9,43.8 M110.4,59.5c0,0,0,0.1,0,0.1
	C110.4,59.6,110.4,59.5,110.4,59.5 M112.7,43.7c0-0.1,0-0.1-0.1-0.1L112.7,43.7z M114.7,49C114.7,49,114.7,48.9,114.7,49
	C114.7,48.9,114.7,49,114.7,49C114.7,49,114.7,49,114.7,49C114.7,49,114.7,49,114.7,49 M113.2,51.9L113.2,51.9L113.2,51.9
	L113.2,51.9C113.1,51.9,113.2,51.8,113.2,51.9L113.2,51.9z M113.2,51.9L113.2,51.9L113.2,51.9L113.2,51.9
	C113.1,51.9,113.2,51.8,113.2,51.9L113.2,51.9z M113.6,50.3c0,0,0,0.1-0.1,0.1c0.1-0.1,0.1-0.2,0.1-0.3
	C113.6,50.2,113.6,50.3,113.6,50.3 M112.9,52.2C112.9,52.2,112.9,52.1,112.9,52.2C112.9,52.1,112.8,52.1,112.9,52.2
	C112.8,52.2,112.8,52.3,112.9,52.2C112.8,52.2,112.8,52.2,112.9,52.2 M110,59.9C109.9,59.9,109.9,59.9,110,59.9
	c-0.1,0.1-0.1,0.1-0.1,0.2C109.9,60,110,60,110,59.9 M112.9,54.4L112.9,54.4l0,0.1c0,0,0,0-0.1,0l0,0
	C112.8,54.5,112.8,54.5,112.9,54.4L112.9,54.4L112.9,54.4z M112.9,54.4L112.9,54.4l0,0.1c0,0,0,0-0.1,0l0,0
	C112.8,54.5,112.8,54.5,112.9,54.4L112.9,54.4L112.9,54.4z M114.1,50.2C114.1,50.2,114.2,50.2,114.1,50.2c0.1-0.1,0.1-0.1,0.1-0.1
	C114.1,50.1,114.1,50.2,114.1,50.2 M102.4,58.7c0,0.1,0,0.1,0.1,0.1C102.4,58.8,102.4,58.8,102.4,58.7c0-0.1,0-0.1,0-0.1
	C102.3,58.6,102.3,58.7,102.4,58.7 M115.2,49.6L115.2,49.6C115.2,49.6,115.2,49.6,115.2,49.6c0,0.1-0.1,0.1-0.1,0.1
	c0,0,0,0.1-0.1,0.1c0,0,0,0,0,0l0.2-0.3C115.2,49.5,115.2,49.5,115.2,49.6C115.2,49.5,115.2,49.5,115.2,49.6L115.2,49.6z
	 M112.9,43.9C113,43.9,113,44,112.9,43.9c0.1,0.1,0.1,0.2,0.1,0.2C113,44,113,43.9,112.9,43.9 M102.2,58.3c0,0,0,0.1,0,0.1
	C102.3,58.4,102.3,58.3,102.2,58.3c0-0.1,0-0.1,0-0.1C102.1,58.2,102.1,58.3,102.2,58.3 M113.7,48.9c0,0,0-0.1,0-0.1l-0.1,0
	C113.7,48.8,113.7,48.8,113.7,48.9c-0.1,0.1-0.1,0.1,0,0.1C113.7,48.9,113.7,48.9,113.7,48.9 M111.8,57.4L111.8,57.4L111.8,57.4
	L111.8,57.4l0.1-0.2c0,0,0,0,0-0.1l0,0.1c0,0,0,0,0,0C111.9,57.4,111.9,57.4,111.8,57.4C111.9,57.4,111.9,57.4,111.8,57.4
	L111.8,57.4z M112,57.3C112,57.3,112,57.4,112,57.3C111.9,57.4,111.9,57.4,112,57.3c-0.1,0.1-0.1,0.1-0.1,0.1l0,0l0,0l0,0l0,0
	L112,57.3c0-0.1,0-0.1,0-0.1L112,57.3z M114,48.9c0-0.1,0-0.1,0-0.2C114,48.7,114,48.8,114,48.9c-0.1,0.1-0.1,0.1-0.1,0.2
	C114,49,114,48.9,114,48.9 M113.8,44.4L113.8,44.4L113.8,44.4c-0.1,0-0.1-0.1-0.1-0.2c0,0,0,0,0,0c0,0,0,0,0,0l0,0.1
	C113.8,44.3,113.8,44.3,113.8,44.4C113.8,44.3,113.8,44.3,113.8,44.4L113.8,44.4z M113.8,44.2L113.8,44.2
	C113.8,44.3,113.8,44.3,113.8,44.2c0.1,0.1,0.1,0.1,0.1,0.1l0,0.1l-0.1,0l0,0C113.7,44.4,113.7,44.3,113.8,44.2
	C113.7,44.2,113.7,44.2,113.8,44.2C113.7,44.2,113.7,44.2,113.8,44.2 M102,57.5C102.1,57.4,102.1,57.4,102,57.5
	c-0.1-0.1-0.1-0.1,0-0.2c0,0,0-0.1,0-0.1C102,57.3,101.9,57.3,102,57.5c-0.1,0.1,0,0.2,0,0.2C102,57.6,102,57.5,102,57.5 M102,56.5
	c0-0.1,0-0.1,0-0.1c0,0-0.1,0-0.1-0.1C101.9,56.3,101.9,56.4,102,56.5c0,0,0,0.1-0.1,0.1C101.9,56.6,102,56.5,102,56.5 M114,50.6
	c0-0.1,0-0.1,0.1-0.2c0-0.1,0.1-0.1,0-0.2C114,50.4,114,50.5,114,50.6 M110.2,59.8c0,0,0.1-0.1,0.1-0.1
	C110.2,59.7,110.2,59.7,110.2,59.8c-0.1,0-0.1,0-0.1,0.1C110.1,59.8,110.1,59.8,110.2,59.8 M101.9,56c0-0.1,0-0.1,0-0.2
	C101.9,55.9,101.8,55.9,101.9,56c-0.1,0.1,0,0.2,0,0.2C101.9,56.1,101.9,56.1,101.9,56 M114.6,48.2c0-0.1,0-0.3,0-0.4
	C114.6,47.9,114.6,48.1,114.6,48.2c-0.1,0.2-0.1,0.3-0.1,0.4C114.6,48.5,114.6,48.4,114.6,48.2 M101.9,56.7
	C102,56.6,102,56.6,101.9,56.7c-0.1,0-0.1,0.1-0.1,0.3c0.1,0,0.1,0,0.1,0c0,0,0,0,0.1,0L101.9,56.7
	C101.9,56.7,101.9,56.7,101.9,56.7c0,0.1,0,0.1-0.1,0.1C101.9,56.7,101.9,56.7,101.9,56.7 M114.6,51.2l-0.1,0.2c0,0,0,0.1,0,0.1
	c0,0,0,0,0,0.1l-0.1,0.2l-0.1,0.2c0,0,0,0,0,0.1l0,0.1l-0.1,0.2l0-0.1c0,0,0,0,0,0l0-0.1l0,0c0,0,0,0,0,0c0,0,0,0,0-0.1l0.1-0.1
	L114.6,51.2z M114.2,52.2l0,0.1l0.1-0.2l0-0.1c0,0,0,0,0-0.1l0.1-0.2l0.1-0.2c0,0,0-0.1,0-0.1c0,0,0,0,0-0.1l0.1-0.2l-0.3,0.6
	l-0.1,0.1c0,0,0,0.1,0,0.1c0,0,0,0,0,0L114.2,52.2L114.2,52.2C114.3,52.2,114.3,52.2,114.2,52.2 M115,46.3L115,46.3c0,0,0,0.1,0,0.1
	l0,0.2c0,0,0,0,0,0.1c0,0,0,0,0,0.1c0,0.1,0,0.1,0,0.1l0,0c0,0,0,0,0,0l0-0.1c0-0.1,0-0.1,0-0.2C115,46.5,115,46.4,115,46.3
	C115,46.3,115,46.3,115,46.3C115,46.2,115,46.2,115,46.3L115,46.3C115,46.2,115,46.2,115,46.3L115,46.3z M115,46.8
	C115,46.8,115,46.8,115,46.8L115,46.8c0-0.2-0.1-0.2,0-0.3c0-0.1,0-0.1,0-0.2c0,0,0,0,0-0.1c0,0,0,0,0-0.1c0,0,0,0,0,0l0,0l0,0
	c0,0,0,0.1,0,0.1l0,0.2c0,0,0,0,0,0.1c0,0,0,0,0,0.1C115,46.7,115,46.8,115,46.8L115,46.8z M113.9,52c0.1-0.1,0.1-0.3,0.1-0.4
	C113.9,51.7,113.9,51.8,113.9,52c-0.1,0.1-0.2,0.2-0.2,0.4C113.8,52.2,113.8,52.1,113.9,52 M114.9,50.4
	C114.9,50.4,114.9,50.4,114.9,50.4l0,0.1c0,0,0,0.1,0,0.1l0,0.1l0,0.1l-0.1,0.2c0,0,0,0,0,0c0,0,0,0,0,0l0,0l0,0l0-0.2
	c0-0.1,0.1-0.1,0-0.2L115,50l0.1-0.2l0,0c0,0.1-0.1,0.1,0,0.2l0,0l-0.1,0.1l0,0c0,0.1,0,0.1,0,0.1l0,0L114.9,50.4L114.9,50.4
	L114.9,50.4z M114.7,51l0-0.2c0-0.1,0.1-0.1,0-0.2L115,50l0.1-0.2l0.2-0.3c0,0,0,0,0,0c0,0,0,0,0,0l0,0l0,0c0,0,0,0,0,0c0,0,0,0,0,0
	c0,0,0,0.1-0.1,0.1c0,0,0,0,0,0.1c0,0.1-0.1,0.1,0,0.2l0,0l-0.1,0.1l0,0c0,0.1,0,0.1,0,0.1l0,0l-0.1,0.1l0,0l0,0c0,0,0,0,0,0.1
	l0,0.1c0,0,0,0.1,0,0.1l0,0.1l0,0.1l-0.1,0.2C114.7,50.9,114.7,51,114.7,51C114.7,51,114.7,51,114.7,51L114.7,51L114.7,51z
	 M103,58.7L103,58.7L103,58.7c-0.1-0.1-0.1-0.1-0.1-0.2c0-0.1,0-0.1-0.1-0.2l0-0.1c0,0,0,0,0-0.1l-0.1-0.5l0,0c0,0,0,0,0,0
	c0,0,0,0,0-0.1c0,0,0,0,0-0.1l0,0c0,0,0-0.1,0-0.1l0.1,0.1c0,0,0,0.1,0,0.1c0,0,0,0,0,0.1l0,0c0,0,0,0.1,0,0.1l0.1,0.2l0,0.1l0,0.1
	c0,0,0,0.1,0,0.1l0.1,0.1L103,58.7z M102.7,57.8L102.7,57.8L102.7,57.8C102.7,57.8,102.7,57.8,102.7,57.8
	C102.7,57.7,102.7,57.7,102.7,57.8c-0.1-0.1-0.1-0.1-0.1-0.2l0,0c0,0,0-0.1,0-0.1l0.1,0.1C102.7,57.7,102.8,57.7,102.7,57.8
	C102.8,57.7,102.8,57.8,102.7,57.8L102.7,57.8c0.1,0.1,0.1,0.1,0.1,0.1l0.1,0.2l0,0.1l0,0.1c0,0,0,0.1,0,0.1l0.1,0.1l0.1,0.2l0,0
	l0,0c0,0-0.1-0.1-0.1-0.1c0-0.1,0-0.1-0.1-0.2l0-0.1c0,0,0,0,0-0.1L102.7,57.8L102.7,57.8z M114.5,50.8c0.1-0.2,0.2-0.5,0.2-0.8
	c0,0,0,0,0,0c0,0,0,0,0,0C114.6,50.2,114.5,50.5,114.5,50.8c-0.2,0.2-0.2,0.4-0.3,0.7C114.3,51.2,114.4,51,114.5,50.8 M102.7,56.4
	C102.6,56.4,102.6,56.4,102.7,56.4c-0.1,0-0.1,0.1-0.1,0.1c0-0.3,0-0.5,0-0.8c0-0.3,0.1-0.6,0.1-0.8c0,0,0,0,0,0c0,0,0,0,0,0l0-0.1
	l0-0.1c0,0,0,0,0-0.1c0,0,0,0,0-0.1l0,0.1c0,0.1,0,0.2,0,0.3c0,0.1,0,0.2,0,0.4c0,0,0,0.1,0,0.1c0,0,0,0.1,0,0.1l0,0.1l0,0l0,0.1
	l0,0c0,0.1,0,0.1,0,0.2c0,0.1,0,0.1,0,0.2l0,0.1l0,0.2L102.7,56.4c0.1,0,0.1,0.1,0,0.2c0,0,0,0,0,0c0,0,0,0,0,0
	C102.6,56.5,102.6,56.5,102.7,56.4C102.7,56.5,102.7,56.4,102.7,56.4L102.7,56.4L102.7,56.4z M102.6,55.6c0-0.3,0.1-0.6,0.1-0.8
	c0,0,0,0,0,0c0,0,0,0,0,0l0-0.1l0-0.1c0,0,0,0,0-0.1c0,0,0,0,0-0.1l0,0.1c0,0.1,0,0.2,0,0.3c0,0.1,0,0.2,0,0.4c0,0,0,0.1,0,0.1
	c0,0,0,0.1,0,0.1l0,0.1l0,0l0,0.1l0,0c0,0.1,0,0.1,0,0.2c0,0.1,0,0.1,0,0.2l0,0.1l0,0.2l0,0.1c0,0.1,0,0.2,0,0.3c0,0,0,0,0,0
	c0,0,0,0,0,0c0,0,0-0.1,0-0.1c0,0,0,0,0,0l0,0l0,0c-0.1,0-0.1,0-0.1,0c0,0,0,0.1,0,0.1C102.5,56.2,102.5,55.9,102.6,55.6 M111,58.4
	l0.1-0.1l0.1-0.1c0,0,0,0,0.1-0.1c0,0,0-0.1,0-0.1l0,0l0,0l0,0c0,0,0,0,0,0c0,0,0,0,0,0l0,0l0,0l0-0.1c0,0,0,0,0-0.1l0,0l0,0
	c0,0,0,0,0,0l0.1-0.1l0.1-0.1c0,0,0,0,0,0c0,0,0,0,0-0.1c0,0,0,0,0,0c0,0,0,0,0,0l0,0l0.2-0.2l0.1-0.2c0,0,0,0,0-0.1c0,0,0,0,0,0
	l0.2-0.2l0.3-0.4c0,0,0,0,0-0.1c0,0,0,0,0.1-0.1l0,0l0.1-0.1c0.1-0.1,0.2-0.2,0.3-0.4l0,0c0,0,0-0.1,0.1-0.1l0.2-0.3l0,0.1
	c0,0,0,0,0,0c0,0,0,0,0,0l-0.1,0.1c0,0.1-0.1,0.1-0.1,0.1l0,0l0,0.1l-0.1,0.1c0,0,0,0,0,0c0,0,0,0,0,0l0,0.1l-0.1,0.1l0,0l-0.1,0.1
	l-0.1,0.2l-0.1,0.1l-0.1,0.2l0,0c0,0,0,0.1,0,0.1l0,0c0,0,0,0,0,0c0,0,0,0,0,0l0,0l0,0l0,0l0,0l0,0l0,0c0,0.1,0,0.1-0.1,0.1
	c0,0,0,0-0.1,0.1l-0.1,0.1l-0.2,0.2l-0.2,0.3l-0.2,0.3l-0.1,0.1c0,0,0,0,0,0c0,0,0,0,0,0l0,0l0,0c0,0,0,0,0,0
	C111.1,58.4,111.1,58.4,111,58.4L111,58.4z M111.2,58.2L111.2,58.2c-0.1,0.1-0.1,0.1-0.1,0.1c0,0,0,0,0,0l0,0l0,0c0,0,0,0,0,0
	c0,0,0,0,0,0l-0.1,0l0.1-0.1L111.2,58.2C111.2,58.1,111.2,58.1,111.2,58.2c0-0.1,0-0.1,0-0.2l0,0l0,0l0,0c0,0,0,0,0,0c0,0,0,0,0,0
	L111.2,58.2L111.2,58.2l-0.1-0.2c0,0,0,0,0-0.1l0,0l0,0c0,0,0,0,0,0l0.1-0.1l0.1-0.1c0,0,0,0,0,0c0,0,0,0,0-0.1c0,0,0,0,0,0
	c0,0,0,0,0,0l0,0l0.2-0.2l0.1-0.2c0,0,0,0,0-0.1c0,0,0,0,0,0l0.2-0.2l0.3-0.4c0,0,0,0,0-0.1c0,0,0,0,0.1-0.1l0,0l0.1-0.1
	c0.1-0.1,0.2-0.2,0.3-0.4l0,0c0,0,0-0.1,0.1-0.1l0.2-0.3l0,0.1c0,0,0,0,0,0c0,0,0,0,0,0l-0.1,0.1c0,0.1-0.1,0.1-0.1,0.1l0,0l0,0.1
	l-0.1,0.1c0,0,0,0,0,0c0,0,0,0,0,0l0,0.1l-0.1,0.1l0,0l-0.1,0.1l-0.1,0.2l-0.1,0.1l-0.1,0.2l0,0c0,0,0,0.1,0,0.1l0,0c0,0,0,0,0,0
	c0,0,0,0,0,0l0,0l0,0l0,0l0,0l0,0l0,0c0,0.1,0,0.1-0.1,0.1c0,0,0,0-0.1,0.1l-0.1,0.1l-0.2,0.2l-0.2,0.3L111.2,58.2z M113.3,51.2
	L113.3,51.2c0,0.1-0.1,0.1-0.1,0.2c0,0,0,0.1,0,0.2c0,0,0,0,0.1,0c0,0-0.1,0-0.1,0.1c0,0,0,0.1-0.1,0.1c0,0,0-0.1,0.1-0.1
	c0,0,0,0,0-0.1c0,0.1,0,0.2-0.1,0.2c-0.1,0.1-0.1,0.1,0,0.2c0,0,0-0.1,0-0.1c-0.1,0.3-0.2,0.7-0.4,1c-0.2,0.3-0.3,0.6-0.4,1
	c-0.1,0-0.1,0-0.1,0.1c0,0-0.1,0.1-0.1,0.1c0,0.1-0.1,0.1-0.1,0.2c0,0.1-0.1,0.1-0.1,0.1l0,0.1c0,0,0,0,0,0c0,0-0.1,0-0.1,0
	c0,0,0,0,0,0.1c-0.2,0.4-0.4,0.7-0.6,1c-0.2,0.3-0.4,0.6-0.6,1l-0.1,0.1c-0.1,0.1-0.2,0.2-0.2,0.4c-0.1,0.1-0.1,0.2-0.3,0.3
	c0,0.1,0,0.1,0,0.1c0,0-0.1,0-0.1,0.1c0,0,0-0.1,0-0.1c0,0,0,0,0-0.1c-0.2,0.1-0.3,0.2-0.4,0.4c-0.1,0.2-0.2,0.3-0.3,0.5
	c0,0,0,0.1-0.1,0.1c0,0,0,0-0.1,0l-0.1,0.2c-0.1,0.1-0.2,0.2-0.3,0.3c-0.1,0.1-0.2,0.2-0.3,0.2c-0.2,0.2-0.4,0.3-0.6,0.5
	c-0.2,0.2-0.4,0.3-0.7,0.4c-0.1,0-0.3,0.1-0.4,0.2c-0.1,0.1-0.3,0.2-0.4,0.2c-0.3,0.1-0.6,0.1-0.9,0.1c-0.3,0-0.6-0.1-0.9-0.2
	c-0.4-0.5-0.7-1.2-0.9-2.1l0-0.1c-0.1-0.4-0.1-0.8-0.1-1.1c0-0.4,0-0.7,0.1-1.1c0-0.3,0.1-0.5,0.1-0.8c0-0.3,0.1-0.5,0.2-0.8
	c0,0,0.1-0.1,0.1-0.2c0-0.1,0-0.1,0-0.2c0.1-0.3,0.1-0.6,0.2-0.9c0.1-0.3,0.2-0.6,0.2-0.9c0-0.1,0.1-0.1,0.1-0.2s0-0.2,0-0.3
	c0.1-0.3,0.2-0.7,0.3-1c0.1-0.3,0.2-0.7,0.4-1c0-0.2,0.1-0.3,0.2-0.5c0.1-0.1,0.1-0.3,0.2-0.4c0.2-0.2,0.3-0.5,0.4-0.7
	c0.1-0.3,0.3-0.5,0.5-0.7c0.1-0.1,0.1-0.3,0.2-0.3c0.1-0.1,0.1-0.2,0.2-0.3c0.1-0.1,0.3-0.2,0.3-0.4c0.1-0.2,0.2-0.3,0.3-0.4
	c0,0,0-0.1,0-0.1c0,0,0,0,0-0.1c0.2-0.3,0.5-0.5,0.7-0.8c0.2-0.3,0.5-0.5,0.8-0.7c0-0.1,0-0.1,0.1-0.1c0.1,0,0.1,0,0.2,0
	c0.1,0,0.2-0.1,0.2-0.1c0.2-0.1,0.3-0.1,0.4-0.2c0.1-0.1,0.1-0.2,0.1-0.5c0.1,0.1,0.1,0.1,0.2,0c0.1,0,0.2-0.1,0.3-0.1l0,0.1
	c0.2,0,0.4-0.1,0.6-0.1c0.2-0.1,0.5-0.1,0.7,0c0,0.1,0,0.1,0.1,0.1c0,0,0-0.1,0-0.1c0,0,0,0,0,0c0.4,0.2,0.7,0.4,1,0.8
	c0.2,0.4,0.4,0.8,0.6,1.3l0.2,0.9c0-0.2-0.1-0.5-0.1-0.7c0-0.2-0.1-0.4-0.1-0.7c0,0,0.1,0,0.1,0c0,0,0,0,0-0.1
	c0.1,0.2,0.2,0.5,0.3,0.9s0.1,0.7,0.1,1c0.1,0.2,0.1,0.3,0.1,0.5c-0.1,0.2-0.1,0.3,0,0.4c0,0,0,0,0,0.1c0,0,0,0.1,0,0.1
	c0.1,0,0.1,0.1,0.1,0.1c0,0.1,0,0.1,0,0.1c0,0,0,0,0-0.1c0-0.1,0-0.1,0,0c0,0.3-0.1,0.5-0.1,0.8c-0.1,0.2-0.1,0.5-0.1,0.7
	c0.1-0.4,0.2-0.8,0.3-1.3s0.1-0.9,0.1-1.4c0-0.2,0-0.3,0-0.5c0-0.1,0-0.2,0-0.4c0,0.2,0,0.4,0,0.6c0,0.2,0,0.4,0,0.7
	c0,0.3,0,0.5-0.1,0.8c0,0.2-0.1,0.5,0,0.8c0,0-0.1,0-0.1,0c0,0,0,0-0.1,0c0,0.2,0,0.5-0.1,0.7c-0.1,0.2-0.1,0.4-0.1,0.6
	c0-0.1,0.1-0.2,0.1-0.3c0-0.1,0.1-0.2,0.1-0.3c0.1,0,0.1-0.1,0.1-0.2c0-0.1,0-0.2,0-0.3c0,0,0.1,0,0.1-0.1c0,0,0-0.1,0.1-0.1
	c0-0.2,0-0.5,0.1-0.7c0.1-0.2,0.1-0.4,0.1-0.6c-0.1,0-0.1-0.1,0-0.1c0,0,0-0.1,0-0.1c0,0,0,0,0-0.1c0,0,0,0,0,0c0,0,0,0,0,0
	c0-0.3,0-0.7-0.1-1c0-0.3,0-0.7-0.1-1c0,0,0-0.1,0-0.1c0,0,0-0.1,0-0.1c0.1,0.2,0.1,0.4,0.1,0.5c0,0.2,0.1,0.3,0.1,0.5
	c0-0.2,0-0.4-0.1-0.6c-0.1-0.2-0.1-0.4-0.1-0.6c0.1,0.1,0.1,0.3,0.2,0.6c0,0.2,0.1,0.4,0.1,0.6c0-0.1,0-0.1,0.1-0.1
	c0-0.1,0-0.1,0-0.2c0,0.1,0,0.2,0.1,0.3c0,0.2,0,0.3,0,0.3c0-0.1,0-0.1,0-0.2c0-0.1,0-0.1-0.1-0.1c0,0.1,0,0.2,0,0.2
	c0,0-0.1,0.1,0,0.2c0,0,0,0,0,0c0,0,0,0,0,0c0.1,0.2,0.1,0.5,0.1,0.7c0,0-0.1-0.1,0-0.1s0-0.1,0-0.1c0,0.1,0,0.2,0.1,0.2
	c0,0,0,0-0.1,0c0,0,0,0,0,0c0.1,0.1,0.1,0.3,0.1,0.5c0,0.2,0,0.4-0.1,0.5c0.1-0.1,0.1-0.3,0.1-0.5c0-0.2,0-0.4,0.1-0.6
	c0,0,0,0,0,0.1c0,0,0,0,0,0c0.1-0.2,0.1-0.5,0.1-0.7c0-0.3,0-0.5,0-0.7c-0.1-0.3-0.2-0.6-0.3-0.8c-0.1-0.2-0.2-0.5-0.3-0.8
	c0,0-0.1-0.1-0.1-0.1c0,0,0-0.1-0.1-0.1c0,0,0,0,0,0c0,0,0,0,0,0c-0.1,0-0.1-0.1-0.2-0.1c-0.1-0.1-0.1-0.1-0.1-0.2
	c-0.1,0-0.1-0.1-0.1-0.2l0,0c0,0.1,0,0.1,0,0.1c-0.1-0.1-0.2-0.2-0.3-0.3c-0.1-0.1-0.2-0.2-0.2-0.2c0,0,0.1,0,0.1,0.1
	c0,0,0.1,0,0.1,0c0,0-0.1-0.1-0.2-0.2c-0.1-0.1-0.2-0.1-0.2-0.1c-0.1-0.1-0.3-0.3-0.5-0.4c-0.2-0.1-0.4-0.2-0.6-0.2c0,0,0,0,0,0
	c0,0,0,0-0.1,0l-0.2-0.2c-0.1,0-0.1,0-0.2,0c0,0-0.1,0-0.1,0c0,0,0-0.1-0.1-0.1c0,0-0.1,0-0.1,0l-0.1,0.1c0,0,0-0.1-0.1-0.1
	c0,0-0.1,0-0.1,0c-0.2,0-0.4,0.1-0.6,0.1c-0.2,0-0.4,0-0.6,0.1c0,0-0.1,0.1-0.1,0.1c0,0-0.1,0.1-0.1,0.1c-0.5,0.2-0.9,0.4-1.2,0.7
	c0,0,0,0,0,0c0,0,0,0-0.1,0c-0.1,0.1-0.1,0.1-0.2,0.2c-0.1,0-0.1,0.1-0.2,0.1c-0.1,0.2-0.3,0.4-0.5,0.6c-0.2,0.2-0.4,0.3-0.5,0.5
	c-0.5,0.4-0.9,0.9-1.2,1.4c-0.4,0.5-0.7,1-1,1.6c-0.1,0.2-0.3,0.5-0.4,0.7c-0.1,0.2-0.3,0.5-0.3,0.7c-0.1,0-0.1,0-0.1,0
	c0,0,0,0.1-0.1,0.1l0,0.1l0,0l0,0c-0.1,0.2-0.2,0.4-0.3,0.6c-0.1,0.2-0.2,0.4-0.2,0.6c0,0,0.1,0,0.1-0.1c0-0.1,0-0.1,0.1-0.1
	c0,0.1,0,0.1,0,0.2c0,0.1,0,0.1-0.1,0.1c0,0.1,0,0.2,0,0.2c0,0-0.1,0.1-0.1,0.1c0,0,0.1,0,0.1-0.1c0,0,0,0,0.1,0
	c0,0.1,0,0.1-0.1,0.1c0,0-0.1,0.1-0.1,0.2c0,0,0,0,0,0.1c0,0,0,0,0,0.1c0,0.2-0.1,0.4-0.2,0.5c-0.1,0.2-0.1,0.4-0.2,0.6
	c0,0.1-0.1,0.2,0,0.3c0,0.1,0,0.2,0,0.3c0,0,0,0.1-0.1,0.1c0,0,0,0.1-0.1,0.2c0,0.1,0,0.1,0,0.2c0,0.1,0,0.1,0,0.2l-0.2,0.6
	c0,0.1,0,0.1,0,0.2c0,0.1,0,0.1,0,0.2c0,0.1,0,0.1-0.1,0.1c0,0,0,0.1,0,0.1c0,0.3,0,0.5-0.1,0.8c0,0.2-0.1,0.5,0,0.7
	c0,0,0,0.1,0,0.1c0,0,0,0.1,0,0.1c0,0.1,0.1,0.3,0,0.5c0,0.2,0,0.3,0,0.5c0,0.2,0.1,0.4,0.1,0.6c0.1,0.2,0.1,0.4,0.2,0.5
	c0,0,0,0.1,0,0.1c0,0,0,0,0,0.1c0,0.1,0.1,0.2,0.1,0.3l0.2,0.3c0.1,0.2,0.1,0.3,0.2,0.4c0.1,0.1,0.1,0.2,0.2,0.3
	c0.4,0.5,1,0.9,1.6,1.1c0.1,0.1,0.2,0.1,0.3,0.1c0.1,0,0.2,0,0.3,0.1c0,0,0.1,0,0.1,0.1c0,0,0.1,0,0.1,0.1c0.1,0.1,0.3,0.1,0.5,0.1
	c0.2,0,0.4,0,0.6,0c0.1,0,0.3,0,0.3,0c0.1,0,0.2,0,0.3-0.1c0.1,0,0.2-0.1,0.4-0.1c0.1,0,0.2-0.1,0.3-0.1c0.1,0,0.1,0,0.1-0.1
	c0.1,0,0.1,0,0.2,0c0.1,0,0.1,0,0.2-0.1c0.1,0,0.1-0.1,0.1-0.1c0,0,0.1-0.1,0.1-0.1c0,0,0.1,0,0.1,0s0,0,0.1,0c0,0,0.1,0,0.1-0.1
	c0.1-0.1,0.1-0.1,0.2-0.2c0.1-0.1,0.1-0.2,0.1-0.2c0,0,0.1-0.1,0.1-0.1c0,0,0,0,0,0c0,0,0,0,0,0.1c0.1,0,0.1-0.1,0.2-0.2
	c0.1-0.1,0.1-0.1,0.1-0.2c0,0,0.1-0.1,0.1-0.1c0,0,0.1-0.1,0.1-0.1c0,0,0,0.1-0.1,0.1c0,0,0,0,0,0c0.1-0.2,0.2-0.3,0.4-0.4
	c0.1-0.2,0.2-0.3,0.3-0.5s0.2-0.3,0.3-0.5c0,0.1,0,0.2-0.1,0.2c0,0.1-0.1,0.1-0.1,0.2c-0.1,0.1-0.1,0.1-0.2,0.2
	c-0.1,0.1-0.1,0.2-0.2,0.2c0.1-0.1,0.2-0.2,0.3-0.3c0.1-0.1,0.1-0.3,0.2-0.4c0,0,0,0,0,0c0,0,0,0,0.1,0l0-0.1
	c0.1-0.1,0.2-0.3,0.3-0.5c0.1-0.2,0.2-0.3,0.3-0.5c0,0,0,0,0,0c0,0,0,0,0,0c0.1-0.2,0.1-0.3,0.3-0.4l0.1,0.1c0-0.1,0.1-0.2,0.1-0.3
	c0.4-0.6,0.8-1.2,1.2-1.9c0.3-0.6,0.6-1.3,0.9-2c0.1-0.1,0.2-0.2,0.2-0.4c0-0.1,0.1-0.3,0.2-0.4c0,0,0-0.1,0.1-0.1c0,0,0-0.1,0-0.2
	c0-0.1,0.1-0.1,0.1-0.1c0-0.1,0.1-0.2,0.1-0.3c0-0.1,0.1-0.2,0.1-0.3c0-0.1,0-0.1,0-0.1c0,0,0-0.1,0-0.1c0.1-0.3,0.2-0.5,0.2-0.8
	c0-0.3,0.1-0.5,0.2-0.8c0-0.1,0-0.1-0.1-0.1c0.1-0.3,0.1-0.6,0.2-0.9c0-0.3,0-0.7,0.1-1c0-0.1,0-0.2,0-0.3c-0.1-0.2-0.1-0.5-0.1-0.9
	c0-0.3-0.1-0.6-0.2-0.9c0.1,0.6,0.1,1.1,0,1.8c0,0.6-0.1,1.2-0.2,1.7c-0.2,0.7-0.4,1.4-0.6,2c-0.2,0.6-0.5,1.3-0.8,1.8
	c0,0,0,0,0,0.1c0,0,0,0,0,0.1c-0.1,0.1-0.1,0.2-0.2,0.4c0,0.1-0.1,0.3-0.2,0.4c0-0.2,0.1-0.4,0.1-0.5c0.1-0.3,0.2-0.6,0.3-0.9
	c0.1-0.3,0.2-0.6,0.2-0.9c-0.2,0.4-0.3,0.9-0.5,1.3c-0.2,0.5-0.3,0.9-0.6,1.2c0-0.1,0-0.2,0.1-0.2c0.1-0.1,0.1-0.1,0-0.2
	c-0.1,0.2-0.2,0.4-0.3,0.7c-0.1,0.2-0.2,0.4-0.4,0.6c0-0.1,0-0.1,0-0.1c0,0,0,0,0.1-0.1c0,0-0.1,0-0.1,0.1c0,0,0,0-0.1,0
	c0,0,0,0,0,0c0,0,0,0,0,0l0.5-1c0-0.1,0-0.1,0-0.1c0,0,0,0,0-0.1c0,0,0,0,0,0c0,0,0,0,0,0c0.1-0.4,0.3-0.7,0.4-1.1
	c0.1-0.4,0.2-0.7,0.3-1.2c0,0.1-0.1,0.2-0.1,0.2c-0.1,0.1-0.1,0.1-0.1,0.3c0,0-0.1,0-0.1,0.1c0,0.1,0,0.1-0.1,0.1
	c0-0.2,0.1-0.5,0.1-0.7c0.1-0.2,0.1-0.4,0.1-0.7l0,0c-0.1,0.1-0.1,0.2-0.2,0.3C113.3,50.9,113.3,51,113.3,51.2
	C113.3,51.1,113.3,51.1,113.3,51.2C113.3,51.1,113.3,51.2,113.3,51.2 M87.7,56.6L87.7,56.6L87.7,56.6z M99.3,49.5
	C99.3,49.5,99.3,49.6,99.3,49.5C99.3,49.6,99.3,49.5,99.3,49.5C99.4,49.5,99.4,49.4,99.3,49.5C99.3,49.5,99.3,49.5,99.3,49.5
	 M98.6,44.2C98.6,44.2,98.6,44.2,98.6,44.2C98.6,44.1,98.5,44.1,98.6,44.2C98.5,44.1,98.6,44.1,98.6,44.2 M96.1,59.8
	c0,0,0,0.1,0,0.1C96.1,59.9,96.1,59.9,96.1,59.8 M98.4,44c0-0.1,0-0.1-0.1-0.1L98.4,44z M100.4,49.4
	C100.4,49.3,100.4,49.3,100.4,49.4C100.4,49.3,100.4,49.3,100.4,49.4C100.4,49.4,100.4,49.4,100.4,49.4
	C100.4,49.4,100.4,49.4,100.4,49.4 M98.9,52.3L98.9,52.3L98.9,52.3L98.9,52.3C98.8,52.2,98.9,52.2,98.9,52.3L98.9,52.3z M98.9,52.3
	L98.9,52.3L98.9,52.3L98.9,52.3C98.8,52.2,98.9,52.2,98.9,52.3L98.9,52.3z M99.3,50.7c0,0,0,0.1-0.1,0.1c0.1-0.1,0.1-0.2,0.1-0.3
	C99.3,50.6,99.3,50.7,99.3,50.7 M98.6,52.6C98.6,52.5,98.6,52.5,98.6,52.6C98.6,52.5,98.5,52.5,98.6,52.6
	C98.5,52.6,98.5,52.6,98.6,52.6C98.5,52.6,98.5,52.6,98.6,52.6 M95.7,60.3C95.6,60.3,95.6,60.3,95.7,60.3c-0.1,0.1-0.1,0.1-0.1,0.2
	C95.6,60.4,95.7,60.3,95.7,60.3 M98.6,54.7L98.6,54.7l0,0.1c0,0,0,0-0.1,0l0,0C98.5,54.8,98.5,54.8,98.6,54.7L98.6,54.7L98.6,54.7z
	 M98.6,54.7L98.6,54.7l0,0.1c0,0,0,0-0.1,0l0,0C98.5,54.8,98.5,54.8,98.6,54.7L98.6,54.7L98.6,54.7z M99.8,50.6
	C99.8,50.6,99.9,50.6,99.8,50.6c0.1-0.1,0.1-0.1,0.1-0.1C99.8,50.5,99.8,50.6,99.8,50.6 M88,59.1c0,0.1,0,0.1,0.1,0.1
	C88.1,59.2,88.1,59.1,88,59.1c0-0.1,0-0.1,0-0.1C88,59,88,59.1,88,59.1 M100.9,50L100.9,50C100.9,50,100.9,50,100.9,50
	c0,0.1-0.1,0.1-0.1,0.1c0,0,0,0.1-0.1,0.1c0,0,0,0,0,0l0.2-0.3C100.9,49.9,100.9,49.9,100.9,50C100.9,49.9,100.9,49.9,100.9,50
	L100.9,50z M98.6,44.3C98.7,44.3,98.7,44.3,98.6,44.3c0.1,0.1,0.1,0.2,0.1,0.2C98.7,44.3,98.7,44.3,98.6,44.3 M87.9,58.7
	c0,0,0,0.1,0,0.1C88,58.8,88,58.7,87.9,58.7c0-0.1,0-0.1,0-0.1C87.8,58.6,87.8,58.6,87.9,58.7 M99.4,49.2c0,0,0-0.1,0-0.1l-0.1,0
	C99.4,49.2,99.4,49.2,99.4,49.2c-0.1,0.1-0.1,0.1,0,0.1C99.4,49.3,99.4,49.3,99.4,49.2 M97.5,57.8L97.5,57.8L97.5,57.8L97.5,57.8
	l0.1-0.2c0,0,0,0,0-0.1l0,0.1c0,0,0,0,0,0C97.6,57.8,97.6,57.8,97.5,57.8C97.6,57.8,97.6,57.8,97.5,57.8L97.5,57.8z M97.7,57.7
	C97.7,57.7,97.7,57.7,97.7,57.7C97.6,57.8,97.6,57.8,97.7,57.7c-0.1,0.1-0.1,0.1-0.1,0.1l0,0l0,0l0,0l0,0L97.7,57.7
	c0-0.1,0-0.1,0-0.1L97.7,57.7z M99.7,49.2c0-0.1,0-0.1,0-0.2C99.7,49.1,99.7,49.2,99.7,49.2c-0.1,0.1-0.1,0.1-0.1,0.2
	C99.7,49.4,99.7,49.3,99.7,49.2 M99.5,44.8L99.5,44.8L99.5,44.8c-0.1,0-0.1-0.1-0.1-0.2c0,0,0,0,0,0c0,0,0,0,0,0l0,0.1
	C99.5,44.7,99.5,44.7,99.5,44.8C99.5,44.7,99.5,44.7,99.5,44.8L99.5,44.8z M99.5,44.6L99.5,44.6C99.5,44.7,99.5,44.7,99.5,44.6
	c0.1,0.1,0.1,0.1,0.1,0.1l0,0.1l-0.1,0l0,0C99.4,44.7,99.4,44.7,99.5,44.6C99.4,44.6,99.4,44.6,99.5,44.6
	C99.4,44.6,99.4,44.6,99.5,44.6 M87.7,57.8C87.8,57.8,87.8,57.8,87.7,57.8c-0.1-0.1-0.1-0.1,0-0.2c0,0,0-0.1,0-0.1
	C87.7,57.6,87.6,57.7,87.7,57.8c-0.1,0.1,0,0.2,0,0.2C87.7,58,87.7,57.9,87.7,57.8 M87.6,56.8c0-0.1,0-0.1,0-0.1c0,0-0.1,0-0.1-0.1
	C87.6,56.7,87.6,56.7,87.6,56.8c0,0,0,0.1-0.1,0.1C87.6,56.9,87.7,56.9,87.6,56.8 M99.7,51c0-0.1,0-0.1,0.1-0.2c0-0.1,0.1-0.1,0-0.2
	C99.7,50.8,99.7,50.9,99.7,51 M95.8,60.1c0,0,0.1-0.1,0.1-0.1C95.9,60,95.9,60.1,95.8,60.1c-0.1,0-0.1,0-0.1,0.1
	C95.8,60.2,95.8,60.2,95.8,60.1 M87.6,56.4c0-0.1,0-0.1,0-0.2C87.6,56.2,87.5,56.3,87.6,56.4c-0.1,0.1,0,0.2,0,0.2
	C87.6,56.5,87.6,56.4,87.6,56.4 M100.3,48.6c0-0.1,0-0.3,0-0.4C100.3,48.3,100.3,48.5,100.3,48.6c-0.1,0.2-0.1,0.3-0.1,0.4
	C100.3,48.9,100.3,48.7,100.3,48.6 M87.6,57C87.7,57,87.7,57,87.6,57c-0.1,0-0.1,0.1-0.1,0.3c0.1,0,0.1,0,0.1,0c0,0,0,0,0.1,0
	L87.6,57C87.6,57.1,87.6,57.1,87.6,57c0,0.1,0,0.1-0.1,0.1C87.6,57.1,87.6,57.1,87.6,57 M100.3,51.6l-0.1,0.2c0,0,0,0.1,0,0.1
	c0,0,0,0,0,0.1l-0.1,0.2l-0.1,0.2c0,0,0,0,0,0.1l0,0.1l-0.1,0.2l0-0.1c0,0,0,0,0,0l0-0.1l0,0c0,0,0,0,0,0c0,0,0,0,0-0.1l0.1-0.1
	L100.3,51.6z M99.9,52.6l0,0.1l0.1-0.2l0-0.1c0,0,0,0,0-0.1l0.1-0.2l0.1-0.2c0,0,0-0.1,0-0.1c0,0,0,0,0-0.1l0.1-0.2l-0.3,0.6
	l-0.1,0.1c0,0,0,0.1,0,0.1c0,0,0,0,0,0L99.9,52.6L99.9,52.6C100,52.6,100,52.6,99.9,52.6 M100.7,46.6L100.7,46.6c0,0,0,0.1,0,0.1
	l0,0.2c0,0,0,0,0,0.1c0,0,0,0,0,0.1c0,0.1,0,0.1,0,0.1l0,0c0,0,0,0,0,0l0-0.1c0-0.1,0-0.1,0-0.2C100.7,46.8,100.7,46.8,100.7,46.6
	C100.7,46.7,100.7,46.6,100.7,46.6C100.7,46.6,100.7,46.6,100.7,46.6L100.7,46.6C100.7,46.6,100.7,46.6,100.7,46.6L100.7,46.6z
	 M100.7,47.2C100.7,47.2,100.7,47.2,100.7,47.2L100.7,47.2c0-0.2-0.1-0.2,0-0.3c0-0.1,0-0.1,0-0.2c0,0,0,0,0-0.1c0,0,0,0,0-0.1
	c0,0,0,0,0,0l0,0l0,0c0,0,0,0.1,0,0.1l0,0.2c0,0,0,0,0,0.1c0,0,0,0,0,0.1C100.7,47.1,100.7,47.1,100.7,47.2L100.7,47.2z M99.6,52.4
	c0.1-0.1,0.1-0.3,0.1-0.4C99.6,52.1,99.5,52.2,99.6,52.4c-0.1,0.1-0.2,0.2-0.2,0.4C99.5,52.6,99.5,52.5,99.6,52.4 M100.6,50.8
	C100.6,50.8,100.6,50.8,100.6,50.8l0,0.1c0,0,0,0.1,0,0.1l0,0.1l0,0.1l-0.1,0.2c0,0,0,0,0,0c0,0,0,0,0,0l0,0l0,0l0-0.2
	c0-0.1,0.1-0.1,0.1-0.2l0.3-0.7l0.1-0.2l0,0c0,0.1-0.1,0.1,0,0.2l0,0l-0.1,0.1l0,0c0,0.1,0,0.1,0,0.1l0,0L100.6,50.8L100.6,50.8
	L100.6,50.8z M100.3,51.4l0-0.2c0-0.1,0.1-0.1,0.1-0.2l0.3-0.7l0.1-0.2l0.2-0.3c0,0,0,0,0,0c0,0,0,0,0,0l0,0l0,0c0,0,0,0,0,0
	c0,0,0,0,0,0c0,0,0,0.1-0.1,0.1c0,0,0,0,0,0.1c0,0.1-0.1,0.1,0,0.2l0,0l-0.1,0.1l0,0c0,0.1,0,0.1,0,0.1l0,0l-0.1,0.1l0,0l0,0
	c0,0,0,0,0,0.1l0,0.1c0,0,0,0.1,0,0.1l0,0.1l0,0.1l-0.1,0.2C100.4,51.3,100.4,51.3,100.3,51.4C100.4,51.3,100.4,51.3,100.3,51.4
	L100.3,51.4L100.3,51.4z M88.7,59.1L88.7,59.1L88.7,59.1c-0.1-0.1-0.1-0.1-0.1-0.2c0-0.1,0-0.1-0.1-0.2l0-0.1c0,0,0,0,0-0.1
	l-0.1-0.5l0,0c0,0,0,0,0,0c0,0,0,0,0-0.1c0,0,0,0,0-0.1l0,0c0,0,0-0.1,0-0.1l0.1,0.1c0,0,0,0.1,0,0.1c0,0,0,0,0,0.1l0,0
	c0,0,0,0.1,0,0.1l0.1,0.2l0,0.1l0,0.1c0,0,0,0.1,0,0.1l0.1,0.1L88.7,59.1z M88.4,58.2L88.4,58.2L88.4,58.2
	C88.4,58.2,88.4,58.2,88.4,58.2C88.4,58.1,88.4,58.1,88.4,58.2c-0.1-0.1-0.1-0.1-0.1-0.2l0,0c0,0,0-0.1,0-0.1l0.1,0.1
	C88.4,58.1,88.4,58.1,88.4,58.2C88.5,58.1,88.5,58.1,88.4,58.2L88.4,58.2c0.1,0.1,0.1,0.1,0.1,0.1l0.1,0.2l0,0.1l0,0.1
	c0,0,0,0.1,0,0.1l0.1,0.1l0.1,0.2l0,0l0,0c0,0-0.1-0.1-0.1-0.1c0-0.1,0-0.1-0.1-0.2l0-0.1c0,0,0,0,0-0.1L88.4,58.2L88.4,58.2z
	 M100.2,51.2c0.1-0.2,0.2-0.5,0.2-0.8c0,0,0,0,0,0c0,0,0,0,0,0C100.3,50.6,100.2,50.9,100.2,51.2c-0.2,0.2-0.2,0.4-0.3,0.7
	C100,51.6,100,51.4,100.2,51.2 M88.4,56.7C88.3,56.7,88.3,56.7,88.4,56.7c-0.1,0-0.1,0.1-0.1,0.1c0-0.3,0-0.5,0-0.8
	c0-0.3,0.1-0.6,0.1-0.8c0,0,0,0,0,0c0,0,0,0,0,0l0-0.1l0-0.1c0,0,0,0,0-0.1c0,0,0,0,0-0.1l0,0.1c0,0.1,0,0.2,0,0.3
	c0,0.1,0,0.2,0,0.4c0,0,0,0.1,0,0.1c0,0,0,0.1,0,0.1l0,0.1l0,0l0,0.1l0,0c0,0.1,0,0.1,0,0.2c0,0.1,0,0.1,0,0.2l0,0.1l0,0.2
	L88.4,56.7c0.1,0,0.1,0.1,0,0.2c0,0,0,0,0,0c0,0,0,0,0,0C88.3,56.9,88.3,56.8,88.4,56.7C88.4,56.8,88.4,56.8,88.4,56.7L88.4,56.7
	L88.4,56.7z M88.3,56c0-0.3,0.1-0.6,0.1-0.8c0,0,0,0,0,0c0,0,0,0,0,0l0-0.1l0-0.1c0,0,0,0,0-0.1c0,0,0,0,0-0.1l0,0.1
	c0,0.1,0,0.2,0,0.3c0,0.1,0,0.2,0,0.4c0,0,0,0.1,0,0.1c0,0,0,0.1,0,0.1l0,0.1l0,0l0,0.1l0,0c0,0.1,0,0.1,0,0.2c0,0.1,0,0.1,0,0.2
	l0,0.1l0,0.2l0,0.1c0,0.1,0,0.2,0,0.3c0,0,0,0,0,0c0,0,0,0,0,0c0,0,0-0.1,0-0.1c0,0,0,0,0,0l0,0l0,0c-0.1,0-0.1,0-0.1,0
	c0,0,0,0.1,0,0.1C88.2,56.6,88.2,56.3,88.3,56 M96.7,58.8l0.1-0.1l0.1-0.1c0,0,0,0,0.1-0.1c0,0,0-0.1,0-0.1l0,0l0,0l0,0c0,0,0,0,0,0
	c0,0,0,0,0,0l0,0l0,0l0-0.1c0,0,0,0,0-0.1l0,0l0,0c0,0,0,0,0,0l0.1-0.1l0.1-0.1c0,0,0,0,0,0c0,0,0,0,0-0.1c0,0,0,0,0,0c0,0,0,0,0,0
	l0,0l0.2-0.2l0.1-0.2c0,0,0,0,0-0.1c0,0,0,0,0,0l0.2-0.2l0.3-0.4c0,0,0,0,0-0.1c0,0,0,0,0.1-0.1l0,0l0.1-0.1
	c0.1-0.1,0.2-0.2,0.3-0.4l0,0c0,0,0-0.1,0.1-0.1l0.2-0.3l0,0.1c0,0,0,0,0,0c0,0,0,0,0,0l-0.1,0.1c0,0.1-0.1,0.1-0.1,0.1l0,0l0,0.1
	l-0.1,0.1c0,0,0,0,0,0c0,0,0,0,0,0l0,0.1l-0.1,0.1l0,0l-0.1,0.1L98,56.8l-0.1,0.1l-0.1,0.2l0,0c0,0,0,0.1,0,0.1l0,0c0,0,0,0,0,0
	c0,0,0,0,0,0l0,0l0,0l0,0l0,0l0,0l0,0c0,0.1,0,0.1-0.1,0.1c0,0,0,0-0.1,0.1l-0.1,0.1L97.3,58l-0.2,0.3l-0.2,0.3l-0.1,0.1
	c0,0,0,0,0,0c0,0,0,0,0,0l0,0l0,0c0,0,0,0,0,0C96.8,58.8,96.8,58.8,96.7,58.8L96.7,58.8z M96.9,58.5L96.9,58.5
	c-0.1,0.1-0.1,0.1-0.1,0.1c0,0,0,0,0,0l0,0l0,0c0,0,0,0,0,0c0,0,0,0,0,0l-0.1,0l0.1-0.1L96.9,58.5C96.9,58.5,96.9,58.5,96.9,58.5
	c0-0.1,0-0.1,0-0.2l0,0l0,0l0,0c0,0,0,0,0,0c0,0,0,0,0,0L96.9,58.5L96.9,58.5l-0.1-0.2c0,0,0,0,0-0.1l0,0l0,0c0,0,0,0,0,0l0.1-0.1
	l0.1-0.1c0,0,0,0,0,0c0,0,0,0,0-0.1c0,0,0,0,0,0c0,0,0,0,0,0l0,0l0.2-0.2l0.1-0.2c0,0,0,0,0-0.1c0,0,0,0,0,0l0.2-0.2l0.3-0.4
	c0,0,0,0,0-0.1c0,0,0,0,0.1-0.1l0,0l0.1-0.1c0.1-0.1,0.2-0.2,0.3-0.4l0,0c0,0,0-0.1,0.1-0.1l0.2-0.3l0,0.1c0,0,0,0,0,0c0,0,0,0,0,0
	l-0.1,0.1c0,0.1-0.1,0.1-0.1,0.1l0,0l0,0.1l-0.1,0.1c0,0,0,0,0,0c0,0,0,0,0,0l0,0.1l-0.1,0.1l0,0l-0.1,0.1L98,56.8l-0.1,0.1
	l-0.1,0.2l0,0c0,0,0,0.1,0,0.1l0,0c0,0,0,0,0,0c0,0,0,0,0,0l0,0l0,0l0,0l0,0l0,0l0,0c0,0.1,0,0.1-0.1,0.1c0,0,0,0-0.1,0.1l-0.1,0.1
	L97.3,58l-0.2,0.3L96.9,58.5z M99,51.6L99,51.6c0,0.1-0.1,0.1-0.1,0.2c0,0,0,0.1,0,0.2c0,0,0,0,0.1,0c0,0-0.1,0-0.1,0.1
	c0,0,0,0.1-0.1,0.1c0,0,0-0.1,0.1-0.1c0,0,0,0,0-0.1c0,0.1,0,0.2-0.1,0.2c-0.1,0.1-0.1,0.1,0,0.2c0,0,0-0.1,0-0.1
	c-0.1,0.3-0.2,0.7-0.4,1c-0.2,0.3-0.3,0.6-0.4,1c-0.1,0-0.1,0-0.1,0.1c0,0-0.1,0.1-0.1,0.1c0,0.1-0.1,0.1-0.1,0.2
	c0,0.1-0.1,0.1-0.1,0.1l0,0.1c0,0,0,0,0,0c0,0-0.1,0-0.1,0c0,0,0,0,0,0.1c-0.2,0.4-0.4,0.7-0.6,1c-0.2,0.3-0.4,0.6-0.6,1l-0.1,0.1
	c-0.1,0.1-0.2,0.2-0.2,0.4c-0.1,0.1-0.1,0.2-0.3,0.3c0,0.1,0,0.1,0,0.1c0,0-0.1,0-0.1,0.1c0,0,0-0.1,0-0.1c0,0,0,0,0-0.1
	c-0.2,0.1-0.3,0.2-0.4,0.4c-0.1,0.2-0.2,0.3-0.3,0.5c0,0,0,0.1-0.1,0.1c0,0,0,0-0.1,0l-0.1,0.2c-0.1,0.1-0.2,0.2-0.3,0.3
	c-0.1,0.1-0.2,0.2-0.3,0.2c-0.2,0.2-0.4,0.3-0.6,0.5c-0.2,0.2-0.4,0.3-0.7,0.4c-0.1,0-0.3,0.1-0.4,0.2c-0.1,0.1-0.3,0.2-0.4,0.2
	c-0.3,0.1-0.6,0.1-0.9,0.1c-0.3,0-0.6-0.1-0.9-0.2c-0.4-0.5-0.7-1.2-0.9-2.1l0-0.1c-0.1-0.4-0.1-0.8-0.1-1.1c0-0.4,0-0.7,0.1-1.1
	c0-0.3,0.1-0.5,0.1-0.8c0-0.3,0.1-0.5,0.2-0.8c0,0,0.1-0.1,0.1-0.2c0-0.1,0-0.1,0-0.2c0.1-0.3,0.1-0.6,0.2-0.9
	c0.1-0.3,0.2-0.6,0.2-0.9c0-0.1,0.1-0.1,0.1-0.2s0-0.2,0-0.3c0.1-0.3,0.2-0.7,0.3-1c0.1-0.3,0.2-0.7,0.4-1c0-0.2,0.1-0.3,0.2-0.5
	c0.1-0.1,0.1-0.3,0.2-0.4c0.2-0.2,0.3-0.5,0.4-0.7c0.1-0.3,0.3-0.5,0.5-0.7c0.1-0.1,0.1-0.3,0.2-0.3c0.1-0.1,0.1-0.2,0.2-0.3
	c0.1-0.1,0.3-0.2,0.3-0.4c0.1-0.2,0.2-0.3,0.3-0.4c0,0,0-0.1,0-0.1c0,0,0,0,0-0.1c0.2-0.3,0.5-0.5,0.7-0.8c0.2-0.3,0.5-0.5,0.8-0.7
	c0-0.1,0-0.1,0.1-0.1c0.1,0,0.1,0,0.2,0c0.1,0,0.2-0.1,0.2-0.1c0.2-0.1,0.3-0.1,0.4-0.2c0.1-0.1,0.1-0.2,0.1-0.5
	c0.1,0.1,0.1,0.1,0.2,0c0.1,0,0.2-0.1,0.3-0.1l0,0.1c0.2,0,0.4-0.1,0.6-0.1c0.2-0.1,0.5-0.1,0.7,0c0,0.1,0,0.1,0.1,0.1
	c0,0,0-0.1,0-0.1c0,0,0,0,0,0c0.4,0.2,0.7,0.4,1,0.8c0.2,0.4,0.4,0.8,0.6,1.3l0.2,0.9c0-0.2-0.1-0.5-0.1-0.7c0-0.2-0.1-0.4-0.1-0.7
	c0,0,0.1,0,0.1,0c0,0,0,0,0-0.1c0.1,0.2,0.2,0.5,0.3,0.9c0.1,0.4,0.1,0.7,0.1,1c0.1,0.2,0.1,0.3,0.1,0.5c-0.1,0.2-0.1,0.3,0,0.4
	c0,0-0.1,0,0,0.1c0,0,0,0.1,0,0.1c0.1,0,0.1,0.1,0.1,0.1c0,0.1,0,0.1,0,0.1c0,0,0,0,0-0.1c0-0.1,0-0.1,0,0c0,0.3-0.1,0.5-0.1,0.8
	c-0.1,0.2-0.1,0.5-0.1,0.7c0.1-0.4,0.2-0.8,0.3-1.3c0.1-0.5,0.1-0.9,0.1-1.4c0-0.2,0-0.3,0-0.5c0-0.1,0-0.2,0-0.4c0,0.2,0,0.4,0,0.6
	c0,0.2,0,0.4,0,0.7c0,0.3,0,0.5-0.1,0.8c0,0.2-0.1,0.5,0,0.8c0,0-0.1,0-0.1,0c0,0,0,0-0.1,0c0,0.2,0,0.5-0.1,0.7
	c-0.1,0.2-0.1,0.4-0.1,0.6c0-0.1,0.1-0.2,0.1-0.3c0-0.1,0.1-0.2,0.1-0.3c0.1,0,0.1-0.1,0.1-0.2c0-0.1,0-0.2,0-0.3c0,0,0.1,0,0.1-0.1
	c0,0,0-0.1,0.1-0.1c0-0.2,0-0.5,0.1-0.7c0.1-0.2,0.1-0.4,0.1-0.6c-0.1,0-0.1-0.1,0-0.1c0,0,0-0.1,0-0.1c0,0,0,0,0-0.1c0,0,0,0,0,0
	c0,0,0,0,0,0c0-0.3,0-0.7-0.1-1c0-0.3,0-0.7-0.1-1c0,0,0-0.1,0-0.1c0,0,0-0.1,0-0.1c0.1,0.2,0.1,0.4,0.1,0.5c0,0.2,0.1,0.3,0.1,0.5
	c0-0.2,0-0.4-0.1-0.6c-0.1-0.2-0.1-0.4-0.1-0.6c0.1,0.1,0.1,0.3,0.2,0.6s0.1,0.4,0.1,0.6c0-0.1,0-0.1,0.1-0.1c0-0.1,0-0.1,0-0.2
	c0,0.1,0,0.2,0.1,0.3c0,0.2,0,0.3,0,0.3c0-0.1,0-0.1,0-0.2c0-0.1,0-0.1-0.1-0.1c0,0.1,0,0.2,0,0.2c0,0-0.1,0.1,0,0.2c0,0,0,0,0,0
	c0,0,0,0,0,0c0.1,0.2,0.1,0.5,0.1,0.7c0,0-0.1-0.1,0-0.1c0-0.1,0-0.1,0-0.1c0,0.1,0,0.2,0.1,0.2c0,0,0,0-0.1,0c0,0,0,0,0,0
	c0.1,0.1,0.1,0.3,0.1,0.5c0,0.2,0,0.4-0.1,0.5c0.1-0.1,0.1-0.3,0.1-0.5c0-0.2,0-0.4,0.1-0.6c0,0,0,0,0,0.1c0,0,0,0,0,0
	c0.1-0.2,0.1-0.5,0.1-0.7c0-0.3,0-0.5,0-0.7c-0.1-0.3-0.2-0.6-0.3-0.8c-0.1-0.2-0.2-0.5-0.3-0.8c0,0-0.1-0.1-0.1-0.1
	c0,0,0-0.1-0.1-0.1c0,0,0,0,0,0c0,0,0,0,0,0c-0.1,0-0.1-0.1-0.2-0.1c-0.1-0.1-0.1-0.1-0.1-0.2c-0.1,0-0.1-0.1-0.1-0.2l0,0
	c0,0.1,0,0.1,0,0.1c-0.1-0.1-0.2-0.2-0.3-0.3c-0.1-0.1-0.2-0.2-0.2-0.2c0,0,0.1,0,0.1,0.1c0,0,0.1,0,0.1,0c0,0-0.1-0.1-0.2-0.2
	c-0.1-0.1-0.2-0.1-0.2-0.1c-0.1-0.1-0.3-0.3-0.5-0.4c-0.2-0.1-0.4-0.2-0.6-0.2c0,0,0,0,0,0c0,0,0,0-0.1,0l-0.2-0.2
	c-0.1,0-0.1,0-0.2,0c0,0-0.1,0-0.1,0c0,0,0-0.1-0.1-0.1c0,0-0.1,0-0.1,0l-0.1,0.1c0,0,0-0.1-0.1-0.1c0,0-0.1,0-0.1,0
	c-0.2,0-0.4,0.1-0.6,0.1c-0.2,0-0.4,0-0.6,0.1c0,0-0.1,0.1-0.1,0.1c0,0-0.1,0.1-0.1,0.1c-0.5,0.2-0.9,0.4-1.2,0.7c0,0,0,0,0,0
	c0,0,0,0-0.1,0c-0.1,0.1-0.1,0.1-0.2,0.2c-0.1,0-0.1,0.1-0.2,0.1c-0.1,0.2-0.3,0.4-0.5,0.6c-0.2,0.2-0.4,0.3-0.5,0.5
	c-0.5,0.4-0.9,0.9-1.2,1.4c-0.4,0.5-0.7,1-1,1.6c-0.1,0.2-0.3,0.5-0.4,0.7c-0.1,0.2-0.3,0.5-0.3,0.7c-0.1,0-0.1,0-0.1,0
	c0,0,0,0.1-0.1,0.1l0,0.1l0,0l0,0c-0.1,0.2-0.2,0.4-0.3,0.6c-0.1,0.2-0.2,0.4-0.2,0.6c0,0,0.1,0,0.1-0.1c0-0.1,0-0.1,0.1-0.1
	c0,0.1,0,0.1,0,0.2c0,0.1,0,0.1-0.1,0.1c0,0.1,0,0.2,0,0.2c0,0-0.1,0.1-0.1,0.1c0,0,0.1,0,0.1-0.1c0,0,0,0,0.1,0
	c0,0.1,0,0.1-0.1,0.1c0,0-0.1,0.1-0.1,0.2c0,0,0,0,0,0.1c0,0,0,0,0,0.1c0,0.2-0.1,0.4-0.2,0.5c-0.1,0.2-0.1,0.4-0.2,0.6
	c0,0.1-0.1,0.2,0,0.3c0,0.1,0,0.2,0,0.3c0,0,0,0.1-0.1,0.1c0,0,0,0.1-0.1,0.2c0,0.1,0,0.1,0,0.2c0,0.1,0,0.1-0.1,0.2l-0.2,0.6
	c0,0.1,0,0.1,0,0.2c0,0.1,0,0.1,0,0.2c0,0.1,0,0.1-0.1,0.1c0,0,0,0.1,0,0.1c0,0.3,0,0.5-0.1,0.8c0,0.2-0.1,0.5,0,0.7
	c0,0,0,0.1,0,0.1c0,0,0,0.1,0,0.1c0,0.1,0.1,0.3,0,0.5c0,0.2,0,0.3,0,0.5c0,0.2,0.1,0.4,0.1,0.6c0.1,0.2,0.1,0.4,0.2,0.5
	c0,0,0,0.1,0,0.1c0,0,0,0,0,0.1c0,0.1,0.1,0.2,0.1,0.3c0.1,0.1,0.1,0.2,0.2,0.3c0.1,0.2,0.1,0.3,0.2,0.4c0.1,0.1,0.1,0.2,0.2,0.3
	c0.4,0.5,0.9,0.9,1.6,1.1c0.1,0.1,0.2,0.1,0.3,0.1c0.1,0,0.2,0,0.3,0.1c0,0,0.1,0,0.1,0.1c0,0,0.1,0,0.1,0.1
	c0.1,0.1,0.3,0.1,0.5,0.1c0.2,0,0.4,0,0.6,0c0.1,0,0.3,0,0.3,0c0.1,0,0.2,0,0.3-0.1c0.1,0,0.2-0.1,0.4-0.1c0.1,0,0.2-0.1,0.3-0.1
	c0.1,0,0.1,0,0.1-0.1c0.1,0,0.1,0,0.2,0c0.1,0,0.1,0,0.2-0.1c0.1,0,0.1-0.1,0.1-0.1c0,0,0.1-0.1,0.1-0.1c0,0,0.1,0,0.1,0s0,0,0.1,0
	c0,0,0.1,0,0.1-0.1c0.1-0.1,0.1-0.1,0.2-0.2c0.1-0.1,0.1-0.2,0.1-0.2c0,0,0.1-0.1,0.1-0.1c0,0,0,0,0,0c0,0,0,0,0,0.1
	c0.1,0,0.1-0.1,0.2-0.2c0.1-0.1,0.1-0.1,0.1-0.2c0,0,0.1-0.1,0.1-0.1c0,0,0.1-0.1,0.1-0.1c0,0,0,0.1-0.1,0.1c0,0,0,0,0,0
	c0.1-0.2,0.2-0.3,0.4-0.4c0.1-0.2,0.2-0.3,0.3-0.5c0.1-0.1,0.2-0.3,0.3-0.5c0,0.1,0,0.2-0.1,0.2c0,0.1-0.1,0.1-0.1,0.2
	c-0.1,0.1-0.1,0.1-0.2,0.2c-0.1,0.1-0.1,0.2-0.2,0.2c0.1-0.1,0.2-0.2,0.3-0.3c0.1-0.1,0.1-0.3,0.2-0.4c0,0,0,0,0,0c0,0,0,0,0.1,0
	l0-0.1c0.1-0.1,0.2-0.3,0.3-0.5s0.2-0.3,0.3-0.5c0,0,0,0,0,0c0,0,0,0,0,0c0-0.2,0.1-0.3,0.3-0.4l0.1,0.1c0-0.1,0.1-0.2,0.1-0.3
	c0.4-0.6,0.8-1.2,1.2-1.9c0.3-0.6,0.6-1.3,0.9-2c0.1-0.1,0.2-0.2,0.2-0.4c0-0.1,0.1-0.3,0.2-0.4c0,0,0-0.1,0.1-0.1c0,0,0-0.1,0-0.2
	c0-0.1,0.1-0.1,0.1-0.1c0-0.1,0.1-0.2,0.1-0.3c0-0.1,0.1-0.2,0.1-0.3c0-0.1,0-0.1,0-0.1c0,0,0-0.1,0-0.1c0.1-0.3,0.2-0.5,0.2-0.8
	c0-0.3,0.1-0.5,0.2-0.8c0-0.1,0-0.1-0.1-0.1c0.1-0.3,0.1-0.6,0.2-0.9c0-0.3,0-0.7,0.1-1c0-0.1,0-0.2,0-0.3c-0.1-0.2-0.1-0.5-0.1-0.9
	c0-0.3-0.1-0.6-0.2-0.9c0.1,0.6,0.1,1.1,0,1.8c0,0.6-0.1,1.2-0.2,1.7c-0.2,0.7-0.4,1.4-0.6,2c-0.2,0.6-0.5,1.3-0.8,1.8
	c0,0,0,0,0,0.1c0,0,0,0,0,0.1c-0.1,0.1-0.1,0.2-0.2,0.4c0,0.1-0.1,0.3-0.2,0.4c0-0.2,0.1-0.4,0.1-0.5c0.1-0.3,0.2-0.6,0.3-0.9
	c0.1-0.3,0.2-0.6,0.2-0.9c-0.2,0.4-0.3,0.9-0.5,1.3c-0.2,0.5-0.3,0.9-0.6,1.2c0-0.1,0-0.2,0.1-0.2c0.1-0.1,0.1-0.1,0-0.2
	c-0.1,0.2-0.2,0.4-0.3,0.7c-0.1,0.2-0.2,0.4-0.4,0.6c0-0.1,0-0.1,0-0.1c0,0,0,0,0.1-0.1c0,0-0.1,0-0.1,0.1c0,0,0,0-0.1,0
	c0,0,0,0,0,0c0,0,0,0,0,0l0.5-1c0-0.1,0-0.1,0-0.1c0,0,0,0,0-0.1c0,0,0,0,0,0c0,0,0,0,0,0c0.1-0.4,0.3-0.7,0.4-1.1
	c0.1-0.4,0.2-0.7,0.3-1.2c0,0.1-0.1,0.2-0.1,0.2c-0.1,0.1-0.1,0.1-0.1,0.3c0,0-0.1,0-0.1,0.1c0,0.1,0,0.1-0.1,0.1
	c0-0.2,0.1-0.5,0.1-0.7c0.1-0.2,0.1-0.4,0.1-0.7l0,0c-0.1,0.1-0.1,0.2-0.2,0.3C99,51.3,99,51.4,99,51.6C99,51.5,99,51.5,99,51.6
	C99,51.5,99,51.5,99,51.6 M82.6,57.8C82.6,57.8,82.6,57.8,82.6,57.8C82.6,57.8,82.6,57.8,82.6,57.8L82.6,57.8L82.6,57.8z M84.6,53.5
	C84.6,53.5,84.6,53.5,84.6,53.5C84.6,53.5,84.6,53.5,84.6,53.5C84.7,53.5,84.7,53.4,84.6,53.5C84.6,53.4,84.6,53.5,84.6,53.5
	 M82.9,58.4C82.9,58.3,82.9,58.3,82.9,58.4L82.9,58.4L82.9,58.4L82.9,58.4C82.9,58.4,82.9,58.4,82.9,58.4
	C82.9,58.4,82.9,58.4,82.9,58.4C82.9,58.4,82.8,58.4,82.9,58.4 M82.9,58.3L82.9,58.3L82.9,58.3C82.9,58.4,82.9,58.4,82.9,58.3
	c0,0.1,0,0.1,0,0.1C82.9,58.4,82.8,58.4,82.9,58.3C82.9,58.3,82.9,58.3,82.9,58.3L82.9,58.3z M83.4,55.1L83.4,55.1
	C83.4,55.2,83.4,55.2,83.4,55.1c0,0.1,0,0.1,0,0.1l0,0L83.4,55.1L83.4,55.1L83.4,55.1z M83.3,55.2L83.3,55.2l0-0.1l0,0L83.3,55.2
	C83.4,55.2,83.4,55.2,83.3,55.2C83.4,55.2,83.4,55.2,83.3,55.2L83.3,55.2z M82.1,61.5L82.1,61.5l0-0.2l0,0c0-0.1,0-0.1,0-0.1l0,0.2
	C82.1,61.4,82.1,61.4,82.1,61.5L82.1,61.5z M82.1,61.5L82.1,61.5l0-0.2l0,0c0-0.1,0-0.1,0-0.1l0,0.2C82.1,61.4,82.1,61.4,82.1,61.5
	L82.1,61.5z M82.5,58.3L82.5,58.3C82.5,58.3,82.5,58.3,82.5,58.3c0.1,0.1,0,0.1,0,0.2l0,0C82.4,58.5,82.5,58.4,82.5,58.3 M82.5,58.3
	L82.5,58.3C82.5,58.3,82.5,58.3,82.5,58.3c0.1,0.1,0,0.1,0,0.2l0,0C82.4,58.5,82.5,58.4,82.5,58.3 M83.2,55.6
	C83.2,55.6,83.2,55.6,83.2,55.6L83.2,55.6c0-0.2,0.1-0.2,0.2-0.3l-0.1,0.1C83.3,55.5,83.3,55.5,83.2,55.6l0,0.2c0,0,0,0.1,0,0.1
	c0,0,0,0,0,0.1c0,0,0.1-0.1,0.1-0.1C83.2,55.7,83.2,55.7,83.2,55.6C83.2,55.6,83.2,55.6,83.2,55.6 M83.3,55.4c0,0,0,0.1-0.1,0.2
	l-0.1,0.2c0,0,0,0.1,0,0.1c0,0,0,0,0,0.1c0,0,0.1-0.1,0.1-0.1c0,0,0,0,0-0.1c0,0,0-0.1,0-0.1c0,0,0,0,0-0.1L83.3,55.4
	c0,0,0-0.1,0.1-0.1L83.3,55.4z M82.6,57.7l0.1-0.2c0,0,0,0,0-0.1l0-0.1c0,0,0-0.1,0.1-0.1l0-0.1c0,0,0,0,0,0c0,0,0,0,0,0l0,0.1l0,0
	l0,0l-0.1,0.3l0,0.1C82.7,57.6,82.6,57.6,82.6,57.7L82.6,57.7L82.6,57.7z M82.7,57.4C82.7,57.4,82.7,57.4,82.7,57.4l0-0.1
	c0,0,0-0.1,0.1-0.1l0-0.1c0,0,0,0,0,0c0,0,0,0,0,0l0,0.1l0,0l0,0L82.7,57.4l0,0.1c0,0.1,0,0.1,0,0.1l0,0.2l0-0.1c0,0,0-0.1,0-0.1
	L82.7,57.4z M83.1,57.6c0,0.1,0,0.2,0,0.2l0,0c0,0,0,0,0,0.1L83,58.1l0,0l0,0c0-0.1,0-0.1,0-0.2c0,0,0,0,0-0.1l0,0
	C83.1,57.7,83.1,57.7,83.1,57.6L83.1,57.6z M83.1,57.6c0,0.1,0,0.2,0,0.2l0,0c0,0,0,0,0,0.1L83,58.1l0,0l0,0c0-0.1,0-0.1,0-0.2
	c0,0,0,0,0-0.1l0,0C83.1,57.7,83.1,57.7,83.1,57.6L83.1,57.6z M83.8,55.3L83.8,55.3l0-0.1c0-0.1,0.1-0.2,0.1-0.2l0.1-0.1l0,0.2
	C83.9,55.1,83.9,55.1,83.8,55.3C83.8,55.2,83.8,55.2,83.8,55.3C83.8,55.2,83.8,55.3,83.8,55.3L83.8,55.3z M83.8,55.3L83.8,55.3
	l0-0.1c0-0.1,0.1-0.2,0.1-0.2l0.1-0.1l0,0.2C83.9,55.1,83.9,55.1,83.8,55.3C83.8,55.2,83.8,55.2,83.8,55.3
	C83.8,55.2,83.8,55.3,83.8,55.3L83.8,55.3z M82.4,60.2l-0.1,0.5c0,0,0,0.1,0,0.1c0,0,0,0,0,0.1c-0.1,0.1-0.1,0.2-0.1,0.4
	c0-0.1,0-0.3,0-0.4c0-0.1,0-0.3,0-0.4L82.4,60.2z M82.5,59.9c0-0.2,0.1-0.4,0.1-0.6c0.1-0.2,0.1-0.4,0.2-0.6c0,0.2-0.1,0.4-0.1,0.6
	c-0.1,0.2-0.1,0.4-0.2,0.6L82.5,59.9z M82.1,61.1C82.1,61.1,82.1,61.1,82.1,61.1C82.1,61.1,82.1,61.1,82.1,61.1c0-0.2,0-0.4,0.1-0.5
	c0,0,0,0,0,0l0,0l0-0.1l0.1-0.3l0,0.1l0,0.3c0,0.1-0.1,0.2-0.1,0.3C82.2,60.9,82.1,61,82.1,61.1L82.1,61.1z M82.1,61.1
	C82.1,61.1,82.1,61.1,82.1,61.1C82.1,61.1,82.1,61.1,82.1,61.1c0-0.2,0-0.4,0.1-0.5c0,0,0,0,0,0l0,0l0-0.1l0.1-0.3l0,0.1l0,0.3
	c0,0.1-0.1,0.2-0.1,0.3C82.2,60.9,82.1,61,82.1,61.1L82.1,61.1z M86.3,43.4c-0.1,0.1-0.1,0.2,0,0.3c0,0.1,0,0.2,0,0.2
	c0,0.1,0,0.1-0.1,0.2L86.1,45c-0.1,0.2-0.1,0.3-0.2,0.5c0,0.2-0.1,0.4-0.2,0.5l-1,3.3c-0.1,0.2-0.2,0.5-0.3,0.7
	c-0.1,0.3-0.2,0.5-0.3,0.8c-0.1,0.2-0.2,0.4-0.2,0.7c-0.1,0.2-0.1,0.5-0.2,0.7c-0.3,0.8-0.6,1.6-0.8,2.5c-0.2,0.9-0.5,1.7-0.7,2.6
	c0,0,0,0.1,0,0.1c0,0,0,0.1,0,0.2c-0.1,0.1-0.1,0.2-0.1,0.3l-0.3,1.5c-0.1,0.1-0.1,0.2-0.1,0.3c0,0.1,0,0.2,0,0.3
	c-0.1,0.4-0.1,0.7-0.2,1.1c-0.1,0.4-0.1,0.8-0.1,1.1c0.1,0.1,0.3,0.1,0.4,0c0,0,0.1,0,0.1,0c0,0,0,0,0.1,0c0,0,0-0.1,0-0.1
	c0,0,0,0,0.1,0c0.1,0,0.1-0.1,0.1-0.1c0,0,0-0.1,0.1-0.1c0,0,0.1,0,0,0c0,0,0,0,0,0c0,0,0-0.1,0-0.1c0,0,0-0.1,0-0.1
	c0,0,0-0.1,0-0.1c0,0,0,0,0-0.1c0,0,0,0,0,0c0.1,0,0.1-0.1,0.1-0.2c0-0.1,0-0.2,0-0.3c0.1-0.1,0.1-0.2,0.1-0.3c0-0.1,0-0.3,0-0.4
	c0,0-0.1,0-0.1,0c0.1-0.1,0.1-0.1,0.1-0.2s0-0.1,0.1-0.2c0.1-0.2,0.2-0.4,0.2-0.7c0.1-0.3,0.1-0.5,0.2-0.8c0.1-0.1,0.1-0.3,0.2-0.4
	c0.1-0.1,0.1-0.3,0.2-0.4c0.1-0.1,0.1-0.2,0.1-0.3s0.1-0.2,0.1-0.3c0.1-0.1,0.2-0.2,0.2-0.4c0,0-0.1,0.1-0.1,0.1
	c0,0.1,0,0.1-0.1,0.1c0.1-0.2,0.1-0.4,0.2-0.6c0.1-0.2,0.1-0.4,0.2-0.6l0,0c0,0,0,0,0-0.1c0,0-0.1,0,0,0c0,0,0,0,0,0
	c0-0.1,0-0.2,0-0.2c0.1,0,0.2-0.1,0.2-0.2c0-0.1,0-0.2,0-0.3c-0.1,0-0.1,0.1-0.1,0.2c0,0.1,0,0.1-0.1,0.1l0.3-1.3c0,0,0.1,0,0.1,0
	c0,0,0-0.1,0.1-0.1c0-0.1,0-0.1,0-0.2c0-0.1,0.1-0.1,0.1-0.2l0-0.3c0-0.1,0-0.1,0.1-0.2c0-0.1,0.1-0.1,0.1-0.2c0-0.1,0-0.2,0-0.3
	c0-0.1,0-0.2,0-0.3c0,0,0-0.1,0-0.1c0,0,0-0.1,0.1-0.1c0-0.1,0-0.2,0-0.2c0.1-0.1,0.1-0.2,0.1-0.3c0-0.1,0.1-0.2,0.1-0.3
	c0.1-0.1,0.1-0.2,0.2-0.2c0-0.1,0.1-0.2,0.1-0.3c0.1-0.1,0.1-0.2,0.1-0.3c0.1-0.2,0.2-0.4,0.3-0.7c0-0.1,0.1-0.2,0.1-0.2
	c0,0,0.1-0.1,0.1-0.2c0-0.2,0.1-0.4,0.2-0.6c0.1-0.2,0.1-0.4,0.2-0.5c0-0.1,0.1-0.3,0.1-0.4c0.1-0.1,0.1-0.2,0.1-0.3l0.1-0.1
	c0.1-0.2,0.1-0.3,0.1-0.5c0-0.2,0.1-0.4,0.2-0.5c0-0.1,0.1-0.2,0.1-0.3c0-0.1,0.1-0.2,0.1-0.3c0.1-0.1,0.1-0.3,0.1-0.4
	c0-0.1,0.1-0.3,0.2-0.4c0-0.3,0.1-0.5,0.2-0.7c0.1-0.2,0.2-0.4,0.2-0.7c-0.1-0.1-0.2-0.2-0.3-0.3c-0.1,0-0.3-0.1-0.4-0.1
	c-0.2,0-0.3,0-0.4,0c-0.1,0-0.3,0-0.4,0C86.5,43.2,86.4,43.3,86.3,43.4"/>
</svg>
